M48
;GenerationSoftware,Autodesk,EAGLE,9.3.0*%
;CreationDate,2020-11-05T07:57:55Z*%
FMAT,2
ICI,OFF
METRIC,TZ,000.000
T6C0.300
T5C0.350
T4C0.600
T3C0.650
T2C0.950
T1C1.000
%
G90
M71
T1
X-5000Y0
X5000Y0
T2
X-15621Y9017
X-15621Y11049
X-10541Y10033
T3
X16121Y-2890
X16121Y2890
T4
X19771Y-4320
X19771Y4320
X15621Y4320
X15621Y-4320
T5
X13208Y1651
X14478Y10571
T6
X10541Y5080
X-381Y4699
X-17780Y262
X-11811Y10668
X-9483Y8897
X-5580Y-8890
X-16256Y2159
X-15494Y2159
X-17018Y2159
X-14732Y2159
X-17018Y2921
X-17018Y3683
X-17018Y4445
X-17018Y5207
X-17018Y5969
X-17018Y6731
X-17018Y7493
X-17018Y8255
X-17018Y9017
X-17018Y9779
X-17018Y10541
X-17018Y11303
X-18542Y-318
X-19304Y-318
X-20066Y-318
X-20828Y-318
X-20828Y-1143
X-20828Y-1968
X-20828Y-2794
X-20828Y-3619
X-20828Y-4445
X-16891Y254
X-16129Y254
X-15240Y262
X-11430Y1270
X-10160Y1270
X-10160Y0
X-10160Y-1270
X-11430Y-1270
X-12700Y-1270
X-12700Y0
X-12700Y1270
X8509Y-1397
X-11906Y6237
X-11870Y3810
X-8255Y-3083
X-14859Y-2194
X-18300Y-9100
X-13970Y2540
X-7112Y11049
X-17018Y-1270
X-6731Y4699
X16319Y-5778
X8255Y-10414
X9398Y11049
X-1778Y5080
X381Y5080
X-14351Y9398
X-9144Y3556
X-13081Y10668
X-10099Y3556
X-14351Y10668
X-10287Y-4572
X-11811Y9398
X-13175Y7747
X-13589Y4318
X14478Y7971
X11430Y8346
X1778Y8890
X-13373Y-3429
X2540Y8255
X-10515Y-3657
X-4572Y5207
X-3937Y5842
X-3175Y6604
X-2540Y7239
X-1016Y8255
X3175Y7239
X3937Y6096
X4572Y4826
X1016Y9525
X-6281Y1836
X11618Y-1300
X10922Y6096
X12599Y-6769
X-16129Y-6921
X0Y-7429
X7048Y-4953
X5969Y-9525
X9525Y-9098
X-5680Y-7620
X-7366Y-4445
X-11049Y-8509
X-10287Y-5588
X-16002Y-4191
X-11430Y0
X-14256Y7987
X-12700Y4310
X-12509Y-5461
M30