G04 EAGLE Gerber RS-274X export*
G75*
%MOMM*%
%FSLAX34Y34*%
%LPD*%
%INTop Copper*%
%IPPOS*%
%AMOC8*
5,1,8,0,0,1.08239X$1,22.5*%
G01*
%ADD10C,0.200000*%
%ADD11C,0.160000*%
%ADD12C,0.148000*%
%ADD13C,0.100000*%
%ADD14C,0.300000*%
%ADD15C,0.055000*%
%ADD16C,0.510000*%
%ADD17C,0.120000*%
%ADD18C,0.140000*%
%ADD19C,0.787400*%
%ADD20C,0.110000*%
%ADD21C,0.080000*%
%ADD22C,1.108000*%
%ADD23C,0.060000*%
%ADD24C,0.220000*%
%ADD25C,0.604800*%
%ADD26C,0.400000*%
%ADD27C,0.654800*%
%ADD28C,0.250000*%
%ADD29C,0.600000*%

G36*
X-144816Y17917D02*
X-144816Y17917D01*
X-144807Y17916D01*
X-144719Y17937D01*
X-144629Y17955D01*
X-144622Y17960D01*
X-144614Y17962D01*
X-144541Y18016D01*
X-144465Y18068D01*
X-144461Y18075D01*
X-144454Y18080D01*
X-144407Y18158D01*
X-144358Y18235D01*
X-144357Y18244D01*
X-144352Y18251D01*
X-144325Y18415D01*
X-144325Y19345D01*
X-143270Y20400D01*
X-142724Y20400D01*
X-142716Y20401D01*
X-142707Y20400D01*
X-142619Y20421D01*
X-142529Y20439D01*
X-142522Y20444D01*
X-142514Y20446D01*
X-142441Y20500D01*
X-142365Y20552D01*
X-142361Y20559D01*
X-142354Y20564D01*
X-142307Y20642D01*
X-142258Y20719D01*
X-142257Y20728D01*
X-142252Y20735D01*
X-142225Y20899D01*
X-142225Y21285D01*
X-142227Y21297D01*
X-142225Y21310D01*
X-142247Y21394D01*
X-142264Y21480D01*
X-142271Y21490D01*
X-142275Y21502D01*
X-142371Y21638D01*
X-144249Y23516D01*
X-144249Y25400D01*
X-144250Y25408D01*
X-144249Y25417D01*
X-144270Y25505D01*
X-144288Y25595D01*
X-144293Y25602D01*
X-144295Y25610D01*
X-144349Y25683D01*
X-144401Y25759D01*
X-144408Y25763D01*
X-144413Y25770D01*
X-144491Y25817D01*
X-144568Y25866D01*
X-144577Y25867D01*
X-144584Y25872D01*
X-144748Y25899D01*
X-150631Y25899D01*
X-150631Y58471D01*
X-150632Y58479D01*
X-150631Y58488D01*
X-150652Y58576D01*
X-150670Y58666D01*
X-150675Y58673D01*
X-150677Y58681D01*
X-150731Y58754D01*
X-150783Y58830D01*
X-150790Y58834D01*
X-150795Y58841D01*
X-150873Y58888D01*
X-150950Y58937D01*
X-150959Y58938D01*
X-150966Y58943D01*
X-151130Y58970D01*
X-158838Y58970D01*
X-160165Y60297D01*
X-160165Y69943D01*
X-158838Y71270D01*
X-151130Y71270D01*
X-151122Y71271D01*
X-151113Y71270D01*
X-151025Y71291D01*
X-150935Y71309D01*
X-150928Y71314D01*
X-150920Y71316D01*
X-150847Y71370D01*
X-150771Y71422D01*
X-150767Y71429D01*
X-150760Y71434D01*
X-150713Y71512D01*
X-150664Y71589D01*
X-150663Y71598D01*
X-150658Y71605D01*
X-150631Y71769D01*
X-150631Y84233D01*
X-150632Y84237D01*
X-150631Y84242D01*
X-150651Y84334D01*
X-150670Y84428D01*
X-150673Y84432D01*
X-150674Y84436D01*
X-150729Y84513D01*
X-150783Y84592D01*
X-150786Y84594D01*
X-150789Y84598D01*
X-150871Y84648D01*
X-150950Y84699D01*
X-150955Y84700D01*
X-150958Y84702D01*
X-151052Y84716D01*
X-151147Y84732D01*
X-151151Y84731D01*
X-151155Y84732D01*
X-151247Y84708D01*
X-151340Y84686D01*
X-151343Y84684D01*
X-151347Y84683D01*
X-151483Y84586D01*
X-152080Y83989D01*
X-154760Y82879D01*
X-157660Y82879D01*
X-160340Y83989D01*
X-162391Y86040D01*
X-163501Y88720D01*
X-163501Y91620D01*
X-162391Y94300D01*
X-160340Y96351D01*
X-157660Y97461D01*
X-154760Y97461D01*
X-152080Y96351D01*
X-151483Y95754D01*
X-151480Y95751D01*
X-151477Y95748D01*
X-151397Y95697D01*
X-151317Y95644D01*
X-151313Y95643D01*
X-151310Y95641D01*
X-151216Y95625D01*
X-151122Y95608D01*
X-151118Y95608D01*
X-151113Y95608D01*
X-151022Y95630D01*
X-150928Y95650D01*
X-150924Y95653D01*
X-150920Y95654D01*
X-150844Y95710D01*
X-150766Y95766D01*
X-150763Y95769D01*
X-150760Y95772D01*
X-150712Y95853D01*
X-150661Y95935D01*
X-150661Y95939D01*
X-150658Y95943D01*
X-150631Y96107D01*
X-150631Y104553D01*
X-150632Y104557D01*
X-150631Y104562D01*
X-150651Y104654D01*
X-150670Y104748D01*
X-150673Y104752D01*
X-150674Y104756D01*
X-150729Y104833D01*
X-150783Y104912D01*
X-150786Y104914D01*
X-150789Y104918D01*
X-150871Y104968D01*
X-150950Y105019D01*
X-150955Y105020D01*
X-150958Y105022D01*
X-151052Y105036D01*
X-151147Y105052D01*
X-151151Y105051D01*
X-151155Y105052D01*
X-151247Y105028D01*
X-151340Y105006D01*
X-151343Y105004D01*
X-151347Y105003D01*
X-151483Y104906D01*
X-152080Y104309D01*
X-154760Y103199D01*
X-157660Y103199D01*
X-160340Y104309D01*
X-162391Y106360D01*
X-163501Y109040D01*
X-163501Y111940D01*
X-162391Y114620D01*
X-161166Y115845D01*
X-161163Y115849D01*
X-161160Y115851D01*
X-161109Y115931D01*
X-161056Y116011D01*
X-161055Y116015D01*
X-161053Y116018D01*
X-161037Y116112D01*
X-161019Y116206D01*
X-161020Y116210D01*
X-161020Y116215D01*
X-161042Y116306D01*
X-161062Y116400D01*
X-161065Y116404D01*
X-161066Y116408D01*
X-161122Y116484D01*
X-161178Y116563D01*
X-161181Y116565D01*
X-161184Y116568D01*
X-161265Y116617D01*
X-161347Y116667D01*
X-161351Y116667D01*
X-161355Y116670D01*
X-161519Y116697D01*
X-165000Y116697D01*
X-165012Y116695D01*
X-165028Y116696D01*
X-170201Y116406D01*
X-170235Y116397D01*
X-170284Y116394D01*
X-173466Y115668D01*
X-173514Y115646D01*
X-173565Y115634D01*
X-173604Y115606D01*
X-173647Y115586D01*
X-173683Y115547D01*
X-173725Y115516D01*
X-173750Y115475D01*
X-173782Y115440D01*
X-173800Y115390D01*
X-173827Y115345D01*
X-173836Y115289D01*
X-173849Y115253D01*
X-173847Y115222D01*
X-173854Y115181D01*
X-173854Y18415D01*
X-173853Y18407D01*
X-173854Y18398D01*
X-173833Y18310D01*
X-173815Y18220D01*
X-173810Y18213D01*
X-173808Y18205D01*
X-173754Y18132D01*
X-173702Y18056D01*
X-173695Y18052D01*
X-173690Y18045D01*
X-173612Y17998D01*
X-173535Y17949D01*
X-173526Y17948D01*
X-173519Y17943D01*
X-173355Y17916D01*
X-144824Y17916D01*
X-144816Y17917D01*
G37*
G36*
X-163036Y-18278D02*
X-163036Y-18278D01*
X-163027Y-18279D01*
X-162939Y-18258D01*
X-162849Y-18240D01*
X-162842Y-18235D01*
X-162834Y-18233D01*
X-162761Y-18179D01*
X-162685Y-18127D01*
X-162681Y-18120D01*
X-162674Y-18115D01*
X-162627Y-18037D01*
X-162578Y-17960D01*
X-162577Y-17951D01*
X-162572Y-17944D01*
X-162545Y-17780D01*
X-162545Y-10384D01*
X-161887Y-9727D01*
X-161885Y-9723D01*
X-161882Y-9721D01*
X-161831Y-9641D01*
X-161778Y-9561D01*
X-161777Y-9557D01*
X-161775Y-9554D01*
X-161759Y-9460D01*
X-161741Y-9366D01*
X-161742Y-9362D01*
X-161742Y-9357D01*
X-161763Y-9266D01*
X-161784Y-9172D01*
X-161787Y-9168D01*
X-161788Y-9164D01*
X-161844Y-9088D01*
X-161899Y-9009D01*
X-161903Y-9007D01*
X-161905Y-9004D01*
X-161987Y-8955D01*
X-162069Y-8905D01*
X-162073Y-8905D01*
X-162076Y-8902D01*
X-162241Y-8875D01*
X-162577Y-8875D01*
X-162590Y-8877D01*
X-162602Y-8875D01*
X-162687Y-8897D01*
X-162772Y-8914D01*
X-162783Y-8921D01*
X-162795Y-8925D01*
X-162930Y-9021D01*
X-165485Y-11576D01*
X-165492Y-11586D01*
X-165502Y-11594D01*
X-165547Y-11668D01*
X-165595Y-11741D01*
X-165597Y-11754D01*
X-165604Y-11765D01*
X-165631Y-11929D01*
X-165631Y-14584D01*
X-168296Y-17249D01*
X-172064Y-17249D01*
X-174729Y-14584D01*
X-174729Y-10816D01*
X-172064Y-8151D01*
X-169409Y-8151D01*
X-169396Y-8149D01*
X-169384Y-8151D01*
X-169299Y-8129D01*
X-169214Y-8112D01*
X-169203Y-8105D01*
X-169191Y-8101D01*
X-169056Y-8005D01*
X-164876Y-3825D01*
X-150013Y-3825D01*
X-150001Y-3823D01*
X-149988Y-3825D01*
X-149904Y-3803D01*
X-149818Y-3786D01*
X-149808Y-3779D01*
X-149796Y-3775D01*
X-149660Y-3679D01*
X-149047Y-3066D01*
X-149040Y-3055D01*
X-149030Y-3048D01*
X-148985Y-2973D01*
X-148937Y-2900D01*
X-148935Y-2888D01*
X-148928Y-2877D01*
X-148901Y-2713D01*
X-148901Y1990D01*
X-147491Y3400D01*
X-145866Y5025D01*
X-144824Y5025D01*
X-144816Y5026D01*
X-144807Y5025D01*
X-144719Y5046D01*
X-144629Y5064D01*
X-144622Y5069D01*
X-144614Y5071D01*
X-144541Y5125D01*
X-144465Y5177D01*
X-144461Y5184D01*
X-144454Y5189D01*
X-144407Y5267D01*
X-144358Y5344D01*
X-144357Y5353D01*
X-144352Y5360D01*
X-144325Y5524D01*
X-144325Y6350D01*
X-144326Y6358D01*
X-144325Y6367D01*
X-144346Y6455D01*
X-144364Y6545D01*
X-144369Y6552D01*
X-144371Y6560D01*
X-144425Y6633D01*
X-144477Y6709D01*
X-144484Y6713D01*
X-144489Y6720D01*
X-144567Y6767D01*
X-144644Y6816D01*
X-144653Y6817D01*
X-144660Y6822D01*
X-144824Y6849D01*
X-181610Y6849D01*
X-181618Y6848D01*
X-181627Y6849D01*
X-181715Y6828D01*
X-181805Y6810D01*
X-181812Y6805D01*
X-181820Y6803D01*
X-181893Y6749D01*
X-181969Y6697D01*
X-181973Y6690D01*
X-181980Y6685D01*
X-182027Y6607D01*
X-182076Y6530D01*
X-182077Y6521D01*
X-182082Y6514D01*
X-182109Y6350D01*
X-182109Y499D01*
X-211198Y499D01*
X-211206Y498D01*
X-211215Y499D01*
X-211303Y478D01*
X-211393Y460D01*
X-211400Y455D01*
X-211408Y453D01*
X-211481Y399D01*
X-211557Y347D01*
X-211561Y340D01*
X-211568Y335D01*
X-211615Y257D01*
X-211664Y180D01*
X-211665Y171D01*
X-211670Y164D01*
X-211697Y0D01*
X-211697Y-17780D01*
X-211696Y-17788D01*
X-211697Y-17797D01*
X-211676Y-17885D01*
X-211658Y-17975D01*
X-211653Y-17982D01*
X-211651Y-17990D01*
X-211597Y-18063D01*
X-211545Y-18139D01*
X-211538Y-18143D01*
X-211533Y-18150D01*
X-211455Y-18197D01*
X-211378Y-18246D01*
X-211369Y-18247D01*
X-211362Y-18252D01*
X-211198Y-18279D01*
X-163044Y-18279D01*
X-163036Y-18278D01*
G37*
G36*
X-126992Y-18278D02*
X-126992Y-18278D01*
X-126983Y-18279D01*
X-126895Y-18258D01*
X-126805Y-18240D01*
X-126798Y-18235D01*
X-126790Y-18233D01*
X-126717Y-18179D01*
X-126641Y-18127D01*
X-126637Y-18120D01*
X-126630Y-18115D01*
X-126583Y-18037D01*
X-126534Y-17960D01*
X-126533Y-17951D01*
X-126528Y-17944D01*
X-126501Y-17780D01*
X-126501Y19476D01*
X-126502Y19484D01*
X-126501Y19493D01*
X-126522Y19581D01*
X-126540Y19671D01*
X-126545Y19678D01*
X-126547Y19686D01*
X-126601Y19759D01*
X-126653Y19835D01*
X-126660Y19839D01*
X-126665Y19846D01*
X-126743Y19893D01*
X-126820Y19942D01*
X-126829Y19943D01*
X-126836Y19948D01*
X-127000Y19975D01*
X-128645Y19975D01*
X-128947Y20277D01*
X-128954Y20281D01*
X-128959Y20288D01*
X-129037Y20336D01*
X-129113Y20387D01*
X-129121Y20388D01*
X-129128Y20393D01*
X-129218Y20406D01*
X-129308Y20423D01*
X-129317Y20421D01*
X-129325Y20422D01*
X-129413Y20400D01*
X-129502Y20380D01*
X-129509Y20375D01*
X-129517Y20373D01*
X-129653Y20277D01*
X-129955Y19975D01*
X-133776Y19975D01*
X-133784Y19974D01*
X-133793Y19975D01*
X-133881Y19954D01*
X-133971Y19936D01*
X-133978Y19931D01*
X-133986Y19929D01*
X-134059Y19875D01*
X-134135Y19823D01*
X-134139Y19816D01*
X-134146Y19811D01*
X-134193Y19733D01*
X-134242Y19656D01*
X-134243Y19647D01*
X-134248Y19640D01*
X-134275Y19476D01*
X-134275Y15655D01*
X-134577Y15353D01*
X-134581Y15346D01*
X-134588Y15341D01*
X-134636Y15263D01*
X-134687Y15187D01*
X-134688Y15179D01*
X-134693Y15172D01*
X-134706Y15082D01*
X-134723Y14992D01*
X-134721Y14984D01*
X-134722Y14975D01*
X-134700Y14887D01*
X-134680Y14798D01*
X-134675Y14791D01*
X-134673Y14783D01*
X-134577Y14647D01*
X-134275Y14345D01*
X-134275Y10655D01*
X-134577Y10353D01*
X-134581Y10346D01*
X-134588Y10341D01*
X-134636Y10263D01*
X-134687Y10187D01*
X-134688Y10179D01*
X-134693Y10172D01*
X-134706Y10082D01*
X-134723Y9992D01*
X-134721Y9984D01*
X-134722Y9975D01*
X-134700Y9887D01*
X-134680Y9798D01*
X-134675Y9791D01*
X-134673Y9783D01*
X-134577Y9647D01*
X-134275Y9345D01*
X-134275Y5655D01*
X-134577Y5353D01*
X-134581Y5346D01*
X-134588Y5341D01*
X-134636Y5263D01*
X-134687Y5187D01*
X-134688Y5179D01*
X-134693Y5172D01*
X-134706Y5082D01*
X-134723Y4992D01*
X-134721Y4984D01*
X-134722Y4975D01*
X-134700Y4887D01*
X-134680Y4798D01*
X-134675Y4791D01*
X-134673Y4783D01*
X-134577Y4647D01*
X-134275Y4345D01*
X-134275Y655D01*
X-134577Y353D01*
X-134581Y346D01*
X-134588Y341D01*
X-134636Y263D01*
X-134687Y187D01*
X-134688Y179D01*
X-134693Y172D01*
X-134706Y82D01*
X-134723Y-8D01*
X-134721Y-17D01*
X-134722Y-25D01*
X-134700Y-113D01*
X-134680Y-202D01*
X-134675Y-209D01*
X-134673Y-217D01*
X-134577Y-353D01*
X-134275Y-655D01*
X-134275Y-4345D01*
X-134577Y-4647D01*
X-134581Y-4654D01*
X-134588Y-4659D01*
X-134636Y-4737D01*
X-134687Y-4813D01*
X-134688Y-4821D01*
X-134693Y-4828D01*
X-134706Y-4918D01*
X-134723Y-5008D01*
X-134721Y-5017D01*
X-134722Y-5025D01*
X-134700Y-5113D01*
X-134680Y-5202D01*
X-134675Y-5209D01*
X-134673Y-5217D01*
X-134577Y-5353D01*
X-134275Y-5655D01*
X-134275Y-9345D01*
X-134577Y-9647D01*
X-134581Y-9654D01*
X-134588Y-9659D01*
X-134636Y-9737D01*
X-134687Y-9813D01*
X-134688Y-9821D01*
X-134693Y-9828D01*
X-134706Y-9918D01*
X-134723Y-10008D01*
X-134721Y-10017D01*
X-134722Y-10025D01*
X-134700Y-10113D01*
X-134680Y-10202D01*
X-134675Y-10209D01*
X-134673Y-10217D01*
X-134577Y-10353D01*
X-134275Y-10655D01*
X-134275Y-14345D01*
X-134577Y-14647D01*
X-134581Y-14654D01*
X-134588Y-14659D01*
X-134636Y-14737D01*
X-134687Y-14813D01*
X-134688Y-14821D01*
X-134693Y-14828D01*
X-134706Y-14918D01*
X-134723Y-15008D01*
X-134721Y-15017D01*
X-134722Y-15025D01*
X-134700Y-15113D01*
X-134680Y-15202D01*
X-134675Y-15209D01*
X-134673Y-15217D01*
X-134577Y-15353D01*
X-134275Y-15655D01*
X-134275Y-17780D01*
X-134274Y-17788D01*
X-134275Y-17797D01*
X-134254Y-17885D01*
X-134236Y-17975D01*
X-134231Y-17982D01*
X-134229Y-17990D01*
X-134175Y-18063D01*
X-134123Y-18139D01*
X-134116Y-18143D01*
X-134111Y-18150D01*
X-134033Y-18197D01*
X-133956Y-18246D01*
X-133947Y-18247D01*
X-133940Y-18252D01*
X-133776Y-18279D01*
X-127000Y-18279D01*
X-126992Y-18278D01*
G37*
D10*
X-205850Y16370D02*
X-187850Y16370D01*
X-187850Y8370D01*
X-205850Y8370D01*
X-205850Y16370D01*
X-205850Y10270D02*
X-187850Y10270D01*
X-187850Y12170D02*
X-205850Y12170D01*
X-205850Y14070D02*
X-187850Y14070D01*
X-187850Y15970D02*
X-205850Y15970D01*
X-205850Y70370D02*
X-187850Y70370D01*
X-187850Y62370D01*
X-205850Y62370D01*
X-205850Y70370D01*
X-205850Y64270D02*
X-187850Y64270D01*
X-187850Y66170D02*
X-205850Y66170D01*
X-205850Y68070D02*
X-187850Y68070D01*
X-187850Y69970D02*
X-205850Y69970D01*
D11*
X-28200Y-97800D02*
X-17800Y-97800D01*
X-17800Y-104200D01*
X-28200Y-104200D01*
X-28200Y-97800D01*
X-28200Y-102680D02*
X-17800Y-102680D01*
X-17800Y-101160D02*
X-28200Y-101160D01*
X-28200Y-99640D02*
X-17800Y-99640D01*
X-17800Y-98120D02*
X-28200Y-98120D01*
X-28200Y-75800D02*
X-17800Y-75800D01*
X-17800Y-82200D01*
X-28200Y-82200D01*
X-28200Y-75800D01*
X-28200Y-80680D02*
X-17800Y-80680D01*
X-17800Y-79160D02*
X-28200Y-79160D01*
X-28200Y-77640D02*
X-17800Y-77640D01*
X-17800Y-76120D02*
X-28200Y-76120D01*
X17800Y-75800D02*
X28200Y-75800D01*
X28200Y-82200D01*
X17800Y-82200D01*
X17800Y-75800D01*
X17800Y-80680D02*
X28200Y-80680D01*
X28200Y-79160D02*
X17800Y-79160D01*
X17800Y-77640D02*
X28200Y-77640D01*
X28200Y-76120D02*
X17800Y-76120D01*
X17800Y-97800D02*
X28200Y-97800D01*
X28200Y-104200D01*
X17800Y-104200D01*
X17800Y-97800D01*
X17800Y-102680D02*
X28200Y-102680D01*
X28200Y-101160D02*
X17800Y-101160D01*
X17800Y-99640D02*
X28200Y-99640D01*
X28200Y-98120D02*
X17800Y-98120D01*
X-131800Y-72200D02*
X-142200Y-72200D01*
X-142200Y-65800D01*
X-131800Y-65800D01*
X-131800Y-72200D01*
X-131800Y-70680D02*
X-142200Y-70680D01*
X-142200Y-69160D02*
X-131800Y-69160D01*
X-131800Y-67640D02*
X-142200Y-67640D01*
X-142200Y-66120D02*
X-131800Y-66120D01*
X-131800Y-94200D02*
X-142200Y-94200D01*
X-142200Y-87800D01*
X-131800Y-87800D01*
X-131800Y-94200D01*
X-131800Y-92680D02*
X-142200Y-92680D01*
X-142200Y-91160D02*
X-131800Y-91160D01*
X-131800Y-89640D02*
X-142200Y-89640D01*
X-142200Y-88120D02*
X-131800Y-88120D01*
X-177800Y-94200D02*
X-188200Y-94200D01*
X-188200Y-87800D01*
X-177800Y-87800D01*
X-177800Y-94200D01*
X-177800Y-92680D02*
X-188200Y-92680D01*
X-188200Y-91160D02*
X-177800Y-91160D01*
X-177800Y-89640D02*
X-188200Y-89640D01*
X-188200Y-88120D02*
X-177800Y-88120D01*
X-177800Y-72200D02*
X-188200Y-72200D01*
X-188200Y-65800D01*
X-177800Y-65800D01*
X-177800Y-72200D01*
X-177800Y-70680D02*
X-188200Y-70680D01*
X-188200Y-69160D02*
X-177800Y-69160D01*
X-177800Y-67640D02*
X-188200Y-67640D01*
X-188200Y-66120D02*
X-177800Y-66120D01*
X131800Y-87800D02*
X142200Y-87800D01*
X142200Y-94200D01*
X131800Y-94200D01*
X131800Y-87800D01*
X131800Y-92680D02*
X142200Y-92680D01*
X142200Y-91160D02*
X131800Y-91160D01*
X131800Y-89640D02*
X142200Y-89640D01*
X142200Y-88120D02*
X131800Y-88120D01*
X131800Y-65800D02*
X142200Y-65800D01*
X142200Y-72200D01*
X131800Y-72200D01*
X131800Y-65800D01*
X131800Y-70680D02*
X142200Y-70680D01*
X142200Y-69160D02*
X131800Y-69160D01*
X131800Y-67640D02*
X142200Y-67640D01*
X142200Y-66120D02*
X131800Y-66120D01*
X177800Y-65800D02*
X188200Y-65800D01*
X188200Y-72200D01*
X177800Y-72200D01*
X177800Y-65800D01*
X177800Y-70680D02*
X188200Y-70680D01*
X188200Y-69160D02*
X177800Y-69160D01*
X177800Y-67640D02*
X188200Y-67640D01*
X188200Y-66120D02*
X177800Y-66120D01*
X177800Y-87800D02*
X188200Y-87800D01*
X188200Y-94200D01*
X177800Y-94200D01*
X177800Y-87800D01*
X177800Y-92680D02*
X188200Y-92680D01*
X188200Y-91160D02*
X177800Y-91160D01*
X177800Y-89640D02*
X188200Y-89640D01*
X188200Y-88120D02*
X177800Y-88120D01*
D12*
X98210Y-83545D02*
X98210Y-75775D01*
X98210Y-83545D02*
X92290Y-83545D01*
X92290Y-75775D01*
X98210Y-75775D01*
X98210Y-82139D02*
X92290Y-82139D01*
X92290Y-80733D02*
X98210Y-80733D01*
X98210Y-79327D02*
X92290Y-79327D01*
X92290Y-77921D02*
X98210Y-77921D01*
X98210Y-76515D02*
X92290Y-76515D01*
X98210Y-71545D02*
X98210Y-63775D01*
X98210Y-71545D02*
X92290Y-71545D01*
X92290Y-63775D01*
X98210Y-63775D01*
X98210Y-70139D02*
X92290Y-70139D01*
X92290Y-68733D02*
X98210Y-68733D01*
X98210Y-67327D02*
X92290Y-67327D01*
X92290Y-65921D02*
X98210Y-65921D01*
X98210Y-64515D02*
X92290Y-64515D01*
X-79015Y79160D02*
X-86785Y79160D01*
X-79015Y79160D02*
X-79015Y73240D01*
X-86785Y73240D01*
X-86785Y79160D01*
X-86785Y74646D02*
X-79015Y74646D01*
X-79015Y76052D02*
X-86785Y76052D01*
X-86785Y77458D02*
X-79015Y77458D01*
X-79015Y78864D02*
X-86785Y78864D01*
X-91015Y79160D02*
X-98785Y79160D01*
X-91015Y79160D02*
X-91015Y73240D01*
X-98785Y73240D01*
X-98785Y79160D01*
X-98785Y74646D02*
X-91015Y74646D01*
X-91015Y76052D02*
X-98785Y76052D01*
X-98785Y77458D02*
X-91015Y77458D01*
X-91015Y78864D02*
X-98785Y78864D01*
X-98785Y85940D02*
X-91015Y85940D01*
X-98785Y85940D02*
X-98785Y91860D01*
X-91015Y91860D01*
X-91015Y85940D01*
X-91015Y87346D02*
X-98785Y87346D01*
X-98785Y88752D02*
X-91015Y88752D01*
X-91015Y90158D02*
X-98785Y90158D01*
X-98785Y91564D02*
X-91015Y91564D01*
X-86785Y85940D02*
X-79015Y85940D01*
X-86785Y85940D02*
X-86785Y91860D01*
X-79015Y91860D01*
X-79015Y85940D01*
X-79015Y87346D02*
X-86785Y87346D01*
X-86785Y88752D02*
X-79015Y88752D01*
X-79015Y90158D02*
X-86785Y90158D01*
X-86785Y91564D02*
X-79015Y91564D01*
X91015Y66460D02*
X98785Y66460D01*
X98785Y60540D01*
X91015Y60540D01*
X91015Y66460D01*
X91015Y61946D02*
X98785Y61946D01*
X98785Y63352D02*
X91015Y63352D01*
X91015Y64758D02*
X98785Y64758D01*
X98785Y66164D02*
X91015Y66164D01*
X86785Y66460D02*
X79015Y66460D01*
X86785Y66460D02*
X86785Y60540D01*
X79015Y60540D01*
X79015Y66460D01*
X79015Y61946D02*
X86785Y61946D01*
X86785Y63352D02*
X79015Y63352D01*
X79015Y64758D02*
X86785Y64758D01*
X86785Y66164D02*
X79015Y66164D01*
X91015Y53760D02*
X98785Y53760D01*
X98785Y47840D01*
X91015Y47840D01*
X91015Y53760D01*
X91015Y49246D02*
X98785Y49246D01*
X98785Y50652D02*
X91015Y50652D01*
X91015Y52058D02*
X98785Y52058D01*
X98785Y53464D02*
X91015Y53464D01*
X86785Y53760D02*
X79015Y53760D01*
X86785Y53760D02*
X86785Y47840D01*
X79015Y47840D01*
X79015Y53760D01*
X79015Y49246D02*
X86785Y49246D01*
X86785Y50652D02*
X79015Y50652D01*
X79015Y52058D02*
X86785Y52058D01*
X86785Y53464D02*
X79015Y53464D01*
X-91015Y44030D02*
X-98785Y44030D01*
X-98785Y49950D01*
X-91015Y49950D01*
X-91015Y44030D01*
X-91015Y45436D02*
X-98785Y45436D01*
X-98785Y46842D02*
X-91015Y46842D01*
X-91015Y48248D02*
X-98785Y48248D01*
X-98785Y49654D02*
X-91015Y49654D01*
X-86785Y44030D02*
X-79015Y44030D01*
X-86785Y44030D02*
X-86785Y49950D01*
X-79015Y49950D01*
X-79015Y44030D01*
X-79015Y45436D02*
X-86785Y45436D01*
X-86785Y46842D02*
X-79015Y46842D01*
X-79015Y48248D02*
X-86785Y48248D01*
X-86785Y49654D02*
X-79015Y49654D01*
X-103720Y61235D02*
X-103720Y69005D01*
X-103720Y61235D02*
X-109640Y61235D01*
X-109640Y69005D01*
X-103720Y69005D01*
X-103720Y62641D02*
X-109640Y62641D01*
X-109640Y64047D02*
X-103720Y64047D01*
X-103720Y65453D02*
X-109640Y65453D01*
X-109640Y66859D02*
X-103720Y66859D01*
X-103720Y68265D02*
X-109640Y68265D01*
X-103720Y73235D02*
X-103720Y81005D01*
X-103720Y73235D02*
X-109640Y73235D01*
X-109640Y81005D01*
X-103720Y81005D01*
X-103720Y74641D02*
X-109640Y74641D01*
X-109640Y76047D02*
X-103720Y76047D01*
X-103720Y77453D02*
X-109640Y77453D01*
X-109640Y78859D02*
X-103720Y78859D01*
X-103720Y80265D02*
X-109640Y80265D01*
X-157900Y81005D02*
X-157900Y73235D01*
X-157900Y81005D02*
X-151980Y81005D01*
X-151980Y73235D01*
X-157900Y73235D01*
X-157900Y74641D02*
X-151980Y74641D01*
X-151980Y76047D02*
X-157900Y76047D01*
X-157900Y77453D02*
X-151980Y77453D01*
X-151980Y78859D02*
X-157900Y78859D01*
X-157900Y80265D02*
X-151980Y80265D01*
X-157900Y69005D02*
X-157900Y61235D01*
X-157900Y69005D02*
X-151980Y69005D01*
X-151980Y61235D01*
X-157900Y61235D01*
X-157900Y62641D02*
X-151980Y62641D01*
X-151980Y64047D02*
X-157900Y64047D01*
X-157900Y65453D02*
X-151980Y65453D01*
X-151980Y66859D02*
X-157900Y66859D01*
X-157900Y68265D02*
X-151980Y68265D01*
X66315Y-98210D02*
X74085Y-98210D01*
X66315Y-98210D02*
X66315Y-92290D01*
X74085Y-92290D01*
X74085Y-98210D01*
X74085Y-96804D02*
X66315Y-96804D01*
X66315Y-95398D02*
X74085Y-95398D01*
X74085Y-93992D02*
X66315Y-93992D01*
X66315Y-92586D02*
X74085Y-92586D01*
X78315Y-98210D02*
X86085Y-98210D01*
X78315Y-98210D02*
X78315Y-92290D01*
X86085Y-92290D01*
X86085Y-98210D01*
X86085Y-96804D02*
X78315Y-96804D01*
X78315Y-95398D02*
X86085Y-95398D01*
X86085Y-93992D02*
X78315Y-93992D01*
X78315Y-92586D02*
X86085Y-92586D01*
X-145630Y-37825D02*
X-145630Y-30055D01*
X-145630Y-37825D02*
X-151550Y-37825D01*
X-151550Y-30055D01*
X-145630Y-30055D01*
X-145630Y-36419D02*
X-151550Y-36419D01*
X-151550Y-35013D02*
X-145630Y-35013D01*
X-145630Y-33607D02*
X-151550Y-33607D01*
X-151550Y-32201D02*
X-145630Y-32201D01*
X-145630Y-30795D02*
X-151550Y-30795D01*
X-145630Y-25825D02*
X-145630Y-18055D01*
X-145630Y-25825D02*
X-151550Y-25825D01*
X-151550Y-18055D01*
X-145630Y-18055D01*
X-145630Y-24419D02*
X-151550Y-24419D01*
X-151550Y-23013D02*
X-145630Y-23013D01*
X-145630Y-21607D02*
X-151550Y-21607D01*
X-151550Y-20201D02*
X-145630Y-20201D01*
X-145630Y-18795D02*
X-151550Y-18795D01*
X-79590Y-38945D02*
X-79590Y-46715D01*
X-85510Y-46715D01*
X-85510Y-38945D01*
X-79590Y-38945D01*
X-79590Y-45309D02*
X-85510Y-45309D01*
X-85510Y-43903D02*
X-79590Y-43903D01*
X-79590Y-42497D02*
X-85510Y-42497D01*
X-85510Y-41091D02*
X-79590Y-41091D01*
X-79590Y-39685D02*
X-85510Y-39685D01*
X-79590Y-34715D02*
X-79590Y-26945D01*
X-79590Y-34715D02*
X-85510Y-34715D01*
X-85510Y-26945D01*
X-79590Y-26945D01*
X-79590Y-33309D02*
X-85510Y-33309D01*
X-85510Y-31903D02*
X-79590Y-31903D01*
X-79590Y-30497D02*
X-85510Y-30497D01*
X-85510Y-29091D02*
X-79590Y-29091D01*
X-79590Y-27685D02*
X-85510Y-27685D01*
X96795Y22440D02*
X104565Y22440D01*
X96795Y22440D02*
X96795Y28360D01*
X104565Y28360D01*
X104565Y22440D01*
X104565Y23846D02*
X96795Y23846D01*
X96795Y25252D02*
X104565Y25252D01*
X104565Y26658D02*
X96795Y26658D01*
X96795Y28064D02*
X104565Y28064D01*
X108795Y22440D02*
X116565Y22440D01*
X108795Y22440D02*
X108795Y28360D01*
X116565Y28360D01*
X116565Y22440D01*
X116565Y23846D02*
X108795Y23846D01*
X108795Y25252D02*
X116565Y25252D01*
X116565Y26658D02*
X108795Y26658D01*
X108795Y28064D02*
X116565Y28064D01*
X135040Y-2115D02*
X135040Y-9885D01*
X129120Y-9885D01*
X129120Y-2115D01*
X135040Y-2115D01*
X135040Y-8479D02*
X129120Y-8479D01*
X129120Y-7073D02*
X135040Y-7073D01*
X135040Y-5667D02*
X129120Y-5667D01*
X129120Y-4261D02*
X135040Y-4261D01*
X135040Y-2855D02*
X129120Y-2855D01*
X135040Y2115D02*
X135040Y9885D01*
X135040Y2115D02*
X129120Y2115D01*
X129120Y9885D01*
X135040Y9885D01*
X135040Y3521D02*
X129120Y3521D01*
X129120Y4927D02*
X135040Y4927D01*
X135040Y6333D02*
X129120Y6333D01*
X129120Y7739D02*
X135040Y7739D01*
X135040Y9145D02*
X129120Y9145D01*
X-52915Y-79160D02*
X-60685Y-79160D01*
X-60685Y-73240D01*
X-52915Y-73240D01*
X-52915Y-79160D01*
X-52915Y-77754D02*
X-60685Y-77754D01*
X-60685Y-76348D02*
X-52915Y-76348D01*
X-52915Y-74942D02*
X-60685Y-74942D01*
X-60685Y-73536D02*
X-52915Y-73536D01*
X-48685Y-79160D02*
X-40915Y-79160D01*
X-48685Y-79160D02*
X-48685Y-73240D01*
X-40915Y-73240D01*
X-40915Y-79160D01*
X-40915Y-77754D02*
X-48685Y-77754D01*
X-48685Y-76348D02*
X-40915Y-76348D01*
X-40915Y-74942D02*
X-48685Y-74942D01*
X-48685Y-73536D02*
X-40915Y-73536D01*
X134895Y61810D02*
X142665Y61810D01*
X134895Y61810D02*
X134895Y67730D01*
X142665Y67730D01*
X142665Y61810D01*
X142665Y63216D02*
X134895Y63216D01*
X134895Y64622D02*
X142665Y64622D01*
X142665Y66028D02*
X134895Y66028D01*
X134895Y67434D02*
X142665Y67434D01*
X146895Y61810D02*
X154665Y61810D01*
X146895Y61810D02*
X146895Y67730D01*
X154665Y67730D01*
X154665Y61810D01*
X154665Y63216D02*
X146895Y63216D01*
X146895Y64622D02*
X154665Y64622D01*
X154665Y66028D02*
X146895Y66028D01*
X146895Y67434D02*
X154665Y67434D01*
X-79015Y65190D02*
X-86785Y65190D01*
X-79015Y65190D02*
X-79015Y59270D01*
X-86785Y59270D01*
X-86785Y65190D01*
X-86785Y60676D02*
X-79015Y60676D01*
X-79015Y62082D02*
X-86785Y62082D01*
X-86785Y63488D02*
X-79015Y63488D01*
X-79015Y64894D02*
X-86785Y64894D01*
X-91015Y65190D02*
X-98785Y65190D01*
X-91015Y65190D02*
X-91015Y59270D01*
X-98785Y59270D01*
X-98785Y65190D01*
X-98785Y60676D02*
X-91015Y60676D01*
X-91015Y62082D02*
X-98785Y62082D01*
X-98785Y63488D02*
X-91015Y63488D01*
X-91015Y64894D02*
X-98785Y64894D01*
D13*
X-86200Y-74200D02*
X-80200Y-74200D01*
X-80200Y-78200D01*
X-86200Y-78200D01*
X-86200Y-74200D01*
X-86200Y-77250D02*
X-80200Y-77250D01*
X-80200Y-76300D02*
X-86200Y-76300D01*
X-86200Y-75350D02*
X-80200Y-75350D01*
X-80200Y-74400D02*
X-86200Y-74400D01*
X-73200Y-74200D02*
X-67200Y-74200D01*
X-67200Y-78200D01*
X-73200Y-78200D01*
X-73200Y-74200D01*
X-73200Y-77250D02*
X-67200Y-77250D01*
X-67200Y-76300D02*
X-73200Y-76300D01*
X-73200Y-75350D02*
X-67200Y-75350D01*
X-67200Y-74400D02*
X-73200Y-74400D01*
X-60800Y-61500D02*
X-54800Y-61500D01*
X-54800Y-65500D01*
X-60800Y-65500D01*
X-60800Y-61500D01*
X-60800Y-64550D02*
X-54800Y-64550D01*
X-54800Y-63600D02*
X-60800Y-63600D01*
X-60800Y-62650D02*
X-54800Y-62650D01*
X-54800Y-61700D02*
X-60800Y-61700D01*
X-47800Y-61500D02*
X-41800Y-61500D01*
X-41800Y-65500D01*
X-47800Y-65500D01*
X-47800Y-61500D01*
X-47800Y-64550D02*
X-41800Y-64550D01*
X-41800Y-63600D02*
X-47800Y-63600D01*
X-47800Y-62650D02*
X-41800Y-62650D01*
X-41800Y-61700D02*
X-47800Y-61700D01*
D14*
X115880Y-34100D02*
X122880Y-34100D01*
X115880Y-34100D02*
X115880Y-27100D01*
X122880Y-27100D01*
X122880Y-34100D01*
X122880Y-31250D02*
X115880Y-31250D01*
X115880Y-28400D02*
X122880Y-28400D01*
X122880Y-51640D02*
X115880Y-51640D01*
X115880Y-44640D01*
X122880Y-44640D01*
X122880Y-51640D01*
X122880Y-48790D02*
X115880Y-48790D01*
X115880Y-45940D02*
X122880Y-45940D01*
D15*
X-86075Y1400D02*
X-92525Y1400D01*
X-92525Y3600D01*
X-86075Y3600D01*
X-86075Y1400D01*
X-86075Y1922D02*
X-92525Y1922D01*
X-92525Y2444D02*
X-86075Y2444D01*
X-86075Y2966D02*
X-92525Y2966D01*
X-92525Y3488D02*
X-86075Y3488D01*
X-86075Y-3600D02*
X-92525Y-3600D01*
X-92525Y-1400D01*
X-86075Y-1400D01*
X-86075Y-3600D01*
X-86075Y-3078D02*
X-92525Y-3078D01*
X-92525Y-2556D02*
X-86075Y-2556D01*
X-86075Y-2034D02*
X-92525Y-2034D01*
X-92525Y-1512D02*
X-86075Y-1512D01*
X-86075Y-8600D02*
X-92525Y-8600D01*
X-92525Y-6400D01*
X-86075Y-6400D01*
X-86075Y-8600D01*
X-86075Y-8078D02*
X-92525Y-8078D01*
X-92525Y-7556D02*
X-86075Y-7556D01*
X-86075Y-7034D02*
X-92525Y-7034D01*
X-92525Y-6512D02*
X-86075Y-6512D01*
X-86075Y6400D02*
X-92525Y6400D01*
X-92525Y8600D01*
X-86075Y8600D01*
X-86075Y6400D01*
X-86075Y6922D02*
X-92525Y6922D01*
X-92525Y7444D02*
X-86075Y7444D01*
X-86075Y7966D02*
X-92525Y7966D01*
X-92525Y8488D02*
X-86075Y8488D01*
X-86075Y11400D02*
X-92525Y11400D01*
X-92525Y13600D01*
X-86075Y13600D01*
X-86075Y11400D01*
X-86075Y11922D02*
X-92525Y11922D01*
X-92525Y12444D02*
X-86075Y12444D01*
X-86075Y12966D02*
X-92525Y12966D01*
X-92525Y13488D02*
X-86075Y13488D01*
X-86075Y-13600D02*
X-92525Y-13600D01*
X-92525Y-11400D01*
X-86075Y-11400D01*
X-86075Y-13600D01*
X-86075Y-13078D02*
X-92525Y-13078D01*
X-92525Y-12556D02*
X-86075Y-12556D01*
X-86075Y-12034D02*
X-92525Y-12034D01*
X-92525Y-11512D02*
X-86075Y-11512D01*
X-86075Y-18600D02*
X-92525Y-18600D01*
X-92525Y-16400D01*
X-86075Y-16400D01*
X-86075Y-18600D01*
X-86075Y-18078D02*
X-92525Y-18078D01*
X-92525Y-17556D02*
X-86075Y-17556D01*
X-86075Y-17034D02*
X-92525Y-17034D01*
X-92525Y-16512D02*
X-86075Y-16512D01*
X-86075Y16400D02*
X-92525Y16400D01*
X-92525Y18600D01*
X-86075Y18600D01*
X-86075Y16400D01*
X-86075Y16922D02*
X-92525Y16922D01*
X-92525Y17444D02*
X-86075Y17444D01*
X-86075Y17966D02*
X-92525Y17966D01*
X-92525Y18488D02*
X-86075Y18488D01*
X-136075Y16400D02*
X-142525Y16400D01*
X-142525Y18600D01*
X-136075Y18600D01*
X-136075Y16400D01*
X-136075Y16922D02*
X-142525Y16922D01*
X-142525Y17444D02*
X-136075Y17444D01*
X-136075Y17966D02*
X-142525Y17966D01*
X-142525Y18488D02*
X-136075Y18488D01*
X-136075Y-18600D02*
X-142525Y-18600D01*
X-142525Y-16400D01*
X-136075Y-16400D01*
X-136075Y-18600D01*
X-136075Y-18078D02*
X-142525Y-18078D01*
X-142525Y-17556D02*
X-136075Y-17556D01*
X-136075Y-17034D02*
X-142525Y-17034D01*
X-142525Y-16512D02*
X-136075Y-16512D01*
X-136075Y-13600D02*
X-142525Y-13600D01*
X-142525Y-11400D01*
X-136075Y-11400D01*
X-136075Y-13600D01*
X-136075Y-13078D02*
X-142525Y-13078D01*
X-142525Y-12556D02*
X-136075Y-12556D01*
X-136075Y-12034D02*
X-142525Y-12034D01*
X-142525Y-11512D02*
X-136075Y-11512D01*
X-136075Y11400D02*
X-142525Y11400D01*
X-142525Y13600D01*
X-136075Y13600D01*
X-136075Y11400D01*
X-136075Y11922D02*
X-142525Y11922D01*
X-142525Y12444D02*
X-136075Y12444D01*
X-136075Y12966D02*
X-142525Y12966D01*
X-142525Y13488D02*
X-136075Y13488D01*
X-136075Y6400D02*
X-142525Y6400D01*
X-142525Y8600D01*
X-136075Y8600D01*
X-136075Y6400D01*
X-136075Y6922D02*
X-142525Y6922D01*
X-142525Y7444D02*
X-136075Y7444D01*
X-136075Y7966D02*
X-142525Y7966D01*
X-142525Y8488D02*
X-136075Y8488D01*
X-136075Y-8600D02*
X-142525Y-8600D01*
X-142525Y-6400D01*
X-136075Y-6400D01*
X-136075Y-8600D01*
X-136075Y-8078D02*
X-142525Y-8078D01*
X-142525Y-7556D02*
X-136075Y-7556D01*
X-136075Y-7034D02*
X-142525Y-7034D01*
X-142525Y-6512D02*
X-136075Y-6512D01*
X-136075Y-3600D02*
X-142525Y-3600D01*
X-142525Y-1400D01*
X-136075Y-1400D01*
X-136075Y-3600D01*
X-136075Y-3078D02*
X-142525Y-3078D01*
X-142525Y-2556D02*
X-136075Y-2556D01*
X-136075Y-2034D02*
X-142525Y-2034D01*
X-142525Y-1512D02*
X-136075Y-1512D01*
X-136075Y1400D02*
X-142525Y1400D01*
X-142525Y3600D01*
X-136075Y3600D01*
X-136075Y1400D01*
X-136075Y1922D02*
X-142525Y1922D01*
X-142525Y2444D02*
X-136075Y2444D01*
X-136075Y2966D02*
X-142525Y2966D01*
X-142525Y3488D02*
X-136075Y3488D01*
X-115700Y21775D02*
X-115700Y28225D01*
X-115700Y21775D02*
X-117900Y21775D01*
X-117900Y28225D01*
X-115700Y28225D01*
X-115700Y22297D02*
X-117900Y22297D01*
X-117900Y22819D02*
X-115700Y22819D01*
X-115700Y23341D02*
X-117900Y23341D01*
X-117900Y23863D02*
X-115700Y23863D01*
X-115700Y24385D02*
X-117900Y24385D01*
X-117900Y24907D02*
X-115700Y24907D01*
X-115700Y25429D02*
X-117900Y25429D01*
X-117900Y25951D02*
X-115700Y25951D01*
X-115700Y26473D02*
X-117900Y26473D01*
X-117900Y26995D02*
X-115700Y26995D01*
X-115700Y27517D02*
X-117900Y27517D01*
X-117900Y28039D02*
X-115700Y28039D01*
X-115700Y-21775D02*
X-115700Y-28225D01*
X-117900Y-28225D01*
X-117900Y-21775D01*
X-115700Y-21775D01*
X-115700Y-27703D02*
X-117900Y-27703D01*
X-117900Y-27181D02*
X-115700Y-27181D01*
X-115700Y-26659D02*
X-117900Y-26659D01*
X-117900Y-26137D02*
X-115700Y-26137D01*
X-115700Y-25615D02*
X-117900Y-25615D01*
X-117900Y-25093D02*
X-115700Y-25093D01*
X-115700Y-24571D02*
X-117900Y-24571D01*
X-117900Y-24049D02*
X-115700Y-24049D01*
X-115700Y-23527D02*
X-117900Y-23527D01*
X-117900Y-23005D02*
X-115700Y-23005D01*
X-115700Y-22483D02*
X-117900Y-22483D01*
X-117900Y-21961D02*
X-115700Y-21961D01*
X-110700Y-21775D02*
X-110700Y-28225D01*
X-112900Y-28225D01*
X-112900Y-21775D01*
X-110700Y-21775D01*
X-110700Y-27703D02*
X-112900Y-27703D01*
X-112900Y-27181D02*
X-110700Y-27181D01*
X-110700Y-26659D02*
X-112900Y-26659D01*
X-112900Y-26137D02*
X-110700Y-26137D01*
X-110700Y-25615D02*
X-112900Y-25615D01*
X-112900Y-25093D02*
X-110700Y-25093D01*
X-110700Y-24571D02*
X-112900Y-24571D01*
X-112900Y-24049D02*
X-110700Y-24049D01*
X-110700Y-23527D02*
X-112900Y-23527D01*
X-112900Y-23005D02*
X-110700Y-23005D01*
X-110700Y-22483D02*
X-112900Y-22483D01*
X-112900Y-21961D02*
X-110700Y-21961D01*
X-110700Y21775D02*
X-110700Y28225D01*
X-110700Y21775D02*
X-112900Y21775D01*
X-112900Y28225D01*
X-110700Y28225D01*
X-110700Y22297D02*
X-112900Y22297D01*
X-112900Y22819D02*
X-110700Y22819D01*
X-110700Y23341D02*
X-112900Y23341D01*
X-112900Y23863D02*
X-110700Y23863D01*
X-110700Y24385D02*
X-112900Y24385D01*
X-112900Y24907D02*
X-110700Y24907D01*
X-110700Y25429D02*
X-112900Y25429D01*
X-112900Y25951D02*
X-110700Y25951D01*
X-110700Y26473D02*
X-112900Y26473D01*
X-112900Y26995D02*
X-110700Y26995D01*
X-110700Y27517D02*
X-112900Y27517D01*
X-112900Y28039D02*
X-110700Y28039D01*
X-105700Y28225D02*
X-105700Y21775D01*
X-107900Y21775D01*
X-107900Y28225D01*
X-105700Y28225D01*
X-105700Y22297D02*
X-107900Y22297D01*
X-107900Y22819D02*
X-105700Y22819D01*
X-105700Y23341D02*
X-107900Y23341D01*
X-107900Y23863D02*
X-105700Y23863D01*
X-105700Y24385D02*
X-107900Y24385D01*
X-107900Y24907D02*
X-105700Y24907D01*
X-105700Y25429D02*
X-107900Y25429D01*
X-107900Y25951D02*
X-105700Y25951D01*
X-105700Y26473D02*
X-107900Y26473D01*
X-107900Y26995D02*
X-105700Y26995D01*
X-105700Y27517D02*
X-107900Y27517D01*
X-107900Y28039D02*
X-105700Y28039D01*
X-105700Y-21775D02*
X-105700Y-28225D01*
X-107900Y-28225D01*
X-107900Y-21775D01*
X-105700Y-21775D01*
X-105700Y-27703D02*
X-107900Y-27703D01*
X-107900Y-27181D02*
X-105700Y-27181D01*
X-105700Y-26659D02*
X-107900Y-26659D01*
X-107900Y-26137D02*
X-105700Y-26137D01*
X-105700Y-25615D02*
X-107900Y-25615D01*
X-107900Y-25093D02*
X-105700Y-25093D01*
X-105700Y-24571D02*
X-107900Y-24571D01*
X-107900Y-24049D02*
X-105700Y-24049D01*
X-105700Y-23527D02*
X-107900Y-23527D01*
X-107900Y-23005D02*
X-105700Y-23005D01*
X-105700Y-22483D02*
X-107900Y-22483D01*
X-107900Y-21961D02*
X-105700Y-21961D01*
X-120700Y-21775D02*
X-120700Y-28225D01*
X-122900Y-28225D01*
X-122900Y-21775D01*
X-120700Y-21775D01*
X-120700Y-27703D02*
X-122900Y-27703D01*
X-122900Y-27181D02*
X-120700Y-27181D01*
X-120700Y-26659D02*
X-122900Y-26659D01*
X-122900Y-26137D02*
X-120700Y-26137D01*
X-120700Y-25615D02*
X-122900Y-25615D01*
X-122900Y-25093D02*
X-120700Y-25093D01*
X-120700Y-24571D02*
X-122900Y-24571D01*
X-122900Y-24049D02*
X-120700Y-24049D01*
X-120700Y-23527D02*
X-122900Y-23527D01*
X-122900Y-23005D02*
X-120700Y-23005D01*
X-120700Y-22483D02*
X-122900Y-22483D01*
X-122900Y-21961D02*
X-120700Y-21961D01*
X-120700Y21775D02*
X-120700Y28225D01*
X-120700Y21775D02*
X-122900Y21775D01*
X-122900Y28225D01*
X-120700Y28225D01*
X-120700Y22297D02*
X-122900Y22297D01*
X-122900Y22819D02*
X-120700Y22819D01*
X-120700Y23341D02*
X-122900Y23341D01*
X-122900Y23863D02*
X-120700Y23863D01*
X-120700Y24385D02*
X-122900Y24385D01*
X-122900Y24907D02*
X-120700Y24907D01*
X-120700Y25429D02*
X-122900Y25429D01*
X-122900Y25951D02*
X-120700Y25951D01*
X-120700Y26473D02*
X-122900Y26473D01*
X-122900Y26995D02*
X-120700Y26995D01*
X-120700Y27517D02*
X-122900Y27517D01*
X-122900Y28039D02*
X-120700Y28039D01*
X-125700Y28225D02*
X-125700Y21775D01*
X-127900Y21775D01*
X-127900Y28225D01*
X-125700Y28225D01*
X-125700Y22297D02*
X-127900Y22297D01*
X-127900Y22819D02*
X-125700Y22819D01*
X-125700Y23341D02*
X-127900Y23341D01*
X-127900Y23863D02*
X-125700Y23863D01*
X-125700Y24385D02*
X-127900Y24385D01*
X-127900Y24907D02*
X-125700Y24907D01*
X-125700Y25429D02*
X-127900Y25429D01*
X-127900Y25951D02*
X-125700Y25951D01*
X-125700Y26473D02*
X-127900Y26473D01*
X-127900Y26995D02*
X-125700Y26995D01*
X-125700Y27517D02*
X-127900Y27517D01*
X-127900Y28039D02*
X-125700Y28039D01*
X-125700Y-21775D02*
X-125700Y-28225D01*
X-127900Y-28225D01*
X-127900Y-21775D01*
X-125700Y-21775D01*
X-125700Y-27703D02*
X-127900Y-27703D01*
X-127900Y-27181D02*
X-125700Y-27181D01*
X-125700Y-26659D02*
X-127900Y-26659D01*
X-127900Y-26137D02*
X-125700Y-26137D01*
X-125700Y-25615D02*
X-127900Y-25615D01*
X-127900Y-25093D02*
X-125700Y-25093D01*
X-125700Y-24571D02*
X-127900Y-24571D01*
X-127900Y-24049D02*
X-125700Y-24049D01*
X-125700Y-23527D02*
X-127900Y-23527D01*
X-127900Y-23005D02*
X-125700Y-23005D01*
X-125700Y-22483D02*
X-127900Y-22483D01*
X-127900Y-21961D02*
X-125700Y-21961D01*
X-100700Y-21775D02*
X-100700Y-28225D01*
X-102900Y-28225D01*
X-102900Y-21775D01*
X-100700Y-21775D01*
X-100700Y-27703D02*
X-102900Y-27703D01*
X-102900Y-27181D02*
X-100700Y-27181D01*
X-100700Y-26659D02*
X-102900Y-26659D01*
X-102900Y-26137D02*
X-100700Y-26137D01*
X-100700Y-25615D02*
X-102900Y-25615D01*
X-102900Y-25093D02*
X-100700Y-25093D01*
X-100700Y-24571D02*
X-102900Y-24571D01*
X-102900Y-24049D02*
X-100700Y-24049D01*
X-100700Y-23527D02*
X-102900Y-23527D01*
X-102900Y-23005D02*
X-100700Y-23005D01*
X-100700Y-22483D02*
X-102900Y-22483D01*
X-102900Y-21961D02*
X-100700Y-21961D01*
X-100700Y21775D02*
X-100700Y28225D01*
X-100700Y21775D02*
X-102900Y21775D01*
X-102900Y28225D01*
X-100700Y28225D01*
X-100700Y22297D02*
X-102900Y22297D01*
X-102900Y22819D02*
X-100700Y22819D01*
X-100700Y23341D02*
X-102900Y23341D01*
X-102900Y23863D02*
X-100700Y23863D01*
X-100700Y24385D02*
X-102900Y24385D01*
X-102900Y24907D02*
X-100700Y24907D01*
X-100700Y25429D02*
X-102900Y25429D01*
X-102900Y25951D02*
X-100700Y25951D01*
X-100700Y26473D02*
X-102900Y26473D01*
X-102900Y26995D02*
X-100700Y26995D01*
X-100700Y27517D02*
X-102900Y27517D01*
X-102900Y28039D02*
X-100700Y28039D01*
X-95700Y28225D02*
X-95700Y21775D01*
X-97900Y21775D01*
X-97900Y28225D01*
X-95700Y28225D01*
X-95700Y22297D02*
X-97900Y22297D01*
X-97900Y22819D02*
X-95700Y22819D01*
X-95700Y23341D02*
X-97900Y23341D01*
X-97900Y23863D02*
X-95700Y23863D01*
X-95700Y24385D02*
X-97900Y24385D01*
X-97900Y24907D02*
X-95700Y24907D01*
X-95700Y25429D02*
X-97900Y25429D01*
X-97900Y25951D02*
X-95700Y25951D01*
X-95700Y26473D02*
X-97900Y26473D01*
X-97900Y26995D02*
X-95700Y26995D01*
X-95700Y27517D02*
X-97900Y27517D01*
X-97900Y28039D02*
X-95700Y28039D01*
X-95700Y-21775D02*
X-95700Y-28225D01*
X-97900Y-28225D01*
X-97900Y-21775D01*
X-95700Y-21775D01*
X-95700Y-27703D02*
X-97900Y-27703D01*
X-97900Y-27181D02*
X-95700Y-27181D01*
X-95700Y-26659D02*
X-97900Y-26659D01*
X-97900Y-26137D02*
X-95700Y-26137D01*
X-95700Y-25615D02*
X-97900Y-25615D01*
X-97900Y-25093D02*
X-95700Y-25093D01*
X-95700Y-24571D02*
X-97900Y-24571D01*
X-97900Y-24049D02*
X-95700Y-24049D01*
X-95700Y-23527D02*
X-97900Y-23527D01*
X-97900Y-23005D02*
X-95700Y-23005D01*
X-95700Y-22483D02*
X-97900Y-22483D01*
X-97900Y-21961D02*
X-95700Y-21961D01*
X-130700Y-21775D02*
X-130700Y-28225D01*
X-132900Y-28225D01*
X-132900Y-21775D01*
X-130700Y-21775D01*
X-130700Y-27703D02*
X-132900Y-27703D01*
X-132900Y-27181D02*
X-130700Y-27181D01*
X-130700Y-26659D02*
X-132900Y-26659D01*
X-132900Y-26137D02*
X-130700Y-26137D01*
X-130700Y-25615D02*
X-132900Y-25615D01*
X-132900Y-25093D02*
X-130700Y-25093D01*
X-130700Y-24571D02*
X-132900Y-24571D01*
X-132900Y-24049D02*
X-130700Y-24049D01*
X-130700Y-23527D02*
X-132900Y-23527D01*
X-132900Y-23005D02*
X-130700Y-23005D01*
X-130700Y-22483D02*
X-132900Y-22483D01*
X-132900Y-21961D02*
X-130700Y-21961D01*
X-130700Y21775D02*
X-130700Y28225D01*
X-130700Y21775D02*
X-132900Y21775D01*
X-132900Y28225D01*
X-130700Y28225D01*
X-130700Y22297D02*
X-132900Y22297D01*
X-132900Y22819D02*
X-130700Y22819D01*
X-130700Y23341D02*
X-132900Y23341D01*
X-132900Y23863D02*
X-130700Y23863D01*
X-130700Y24385D02*
X-132900Y24385D01*
X-132900Y24907D02*
X-130700Y24907D01*
X-130700Y25429D02*
X-132900Y25429D01*
X-132900Y25951D02*
X-130700Y25951D01*
X-130700Y26473D02*
X-132900Y26473D01*
X-132900Y26995D02*
X-130700Y26995D01*
X-130700Y27517D02*
X-132900Y27517D01*
X-132900Y28039D02*
X-130700Y28039D01*
D16*
X-128750Y14450D02*
X-99850Y14450D01*
X-99850Y-14450D01*
X-128750Y-14450D01*
X-128750Y14450D01*
X-128750Y-9605D02*
X-99850Y-9605D01*
X-99850Y-4760D02*
X-128750Y-4760D01*
X-128750Y85D02*
X-99850Y85D01*
X-99850Y4930D02*
X-128750Y4930D01*
X-128750Y9775D02*
X-99850Y9775D01*
D17*
X-174900Y5020D02*
X-174900Y220D01*
X-180700Y220D01*
X-180700Y5020D01*
X-174900Y5020D01*
X-174900Y1360D02*
X-180700Y1360D01*
X-180700Y2500D02*
X-174900Y2500D01*
X-174900Y3640D02*
X-180700Y3640D01*
X-180700Y4780D02*
X-174900Y4780D01*
X-174900Y10220D02*
X-174900Y15020D01*
X-174900Y10220D02*
X-180700Y10220D01*
X-180700Y15020D01*
X-174900Y15020D01*
X-174900Y11360D02*
X-180700Y11360D01*
X-180700Y12500D02*
X-174900Y12500D01*
X-174900Y13640D02*
X-180700Y13640D01*
X-180700Y14780D02*
X-174900Y14780D01*
X-149500Y5020D02*
X-149500Y220D01*
X-155300Y220D01*
X-155300Y5020D01*
X-149500Y5020D01*
X-149500Y1360D02*
X-155300Y1360D01*
X-155300Y2500D02*
X-149500Y2500D01*
X-149500Y3640D02*
X-155300Y3640D01*
X-155300Y4780D02*
X-149500Y4780D01*
X-149500Y10220D02*
X-149500Y15020D01*
X-149500Y10220D02*
X-155300Y10220D01*
X-155300Y15020D01*
X-149500Y15020D01*
X-149500Y11360D02*
X-155300Y11360D01*
X-155300Y12500D02*
X-149500Y12500D01*
X-149500Y13640D02*
X-155300Y13640D01*
X-155300Y14780D02*
X-149500Y14780D01*
X-157700Y15600D02*
X-162500Y15600D01*
X-157700Y15600D02*
X-157700Y9800D01*
X-162500Y9800D01*
X-162500Y15600D01*
X-162500Y10940D02*
X-157700Y10940D01*
X-157700Y12080D02*
X-162500Y12080D01*
X-162500Y13220D02*
X-157700Y13220D01*
X-157700Y14360D02*
X-162500Y14360D01*
X-162500Y15500D02*
X-157700Y15500D01*
X-167700Y15600D02*
X-172500Y15600D01*
X-167700Y15600D02*
X-167700Y9800D01*
X-172500Y9800D01*
X-172500Y15600D01*
X-172500Y10940D02*
X-167700Y10940D01*
X-167700Y12080D02*
X-172500Y12080D01*
X-172500Y13220D02*
X-167700Y13220D01*
X-167700Y14360D02*
X-172500Y14360D01*
X-172500Y15500D02*
X-167700Y15500D01*
D18*
X118000Y104760D02*
X123600Y104760D01*
X123600Y99160D01*
X118000Y99160D01*
X118000Y104760D01*
X118000Y100490D02*
X123600Y100490D01*
X123600Y101820D02*
X118000Y101820D01*
X118000Y103150D02*
X123600Y103150D01*
X123600Y104480D02*
X118000Y104480D01*
X110600Y104760D02*
X105000Y104760D01*
X110600Y104760D02*
X110600Y99160D01*
X105000Y99160D01*
X105000Y104760D01*
X105000Y100490D02*
X110600Y100490D01*
X110600Y101820D02*
X105000Y101820D01*
X105000Y103150D02*
X110600Y103150D01*
X110600Y104480D02*
X105000Y104480D01*
X111500Y86260D02*
X117100Y86260D01*
X117100Y80660D01*
X111500Y80660D01*
X111500Y86260D01*
X111500Y81990D02*
X117100Y81990D01*
X117100Y83320D02*
X111500Y83320D01*
X111500Y84650D02*
X117100Y84650D01*
X117100Y85980D02*
X111500Y85980D01*
D17*
X-167280Y-30540D02*
X-167280Y-35340D01*
X-173080Y-35340D01*
X-173080Y-30540D01*
X-167280Y-30540D01*
X-167280Y-34200D02*
X-173080Y-34200D01*
X-173080Y-33060D02*
X-167280Y-33060D01*
X-167280Y-31920D02*
X-173080Y-31920D01*
X-173080Y-30780D02*
X-167280Y-30780D01*
X-167280Y-25340D02*
X-167280Y-20540D01*
X-167280Y-25340D02*
X-173080Y-25340D01*
X-173080Y-20540D01*
X-167280Y-20540D01*
X-167280Y-24200D02*
X-173080Y-24200D01*
X-173080Y-23060D02*
X-167280Y-23060D01*
X-167280Y-21920D02*
X-173080Y-21920D01*
X-173080Y-20780D02*
X-167280Y-20780D01*
X-162920Y-20540D02*
X-162920Y-25340D01*
X-162920Y-20540D02*
X-157120Y-20540D01*
X-157120Y-25340D01*
X-162920Y-25340D01*
X-162920Y-24200D02*
X-157120Y-24200D01*
X-157120Y-23060D02*
X-162920Y-23060D01*
X-162920Y-21920D02*
X-157120Y-21920D01*
X-157120Y-20780D02*
X-162920Y-20780D01*
X-162920Y-30540D02*
X-162920Y-35340D01*
X-162920Y-30540D02*
X-157120Y-30540D01*
X-157120Y-35340D01*
X-162920Y-35340D01*
X-162920Y-34200D02*
X-157120Y-34200D01*
X-157120Y-33060D02*
X-162920Y-33060D01*
X-162920Y-31920D02*
X-157120Y-31920D01*
X-157120Y-30780D02*
X-162920Y-30780D01*
X-83600Y-91800D02*
X-78800Y-91800D01*
X-83600Y-91800D02*
X-83600Y-86000D01*
X-78800Y-86000D01*
X-78800Y-91800D01*
X-78800Y-90660D02*
X-83600Y-90660D01*
X-83600Y-89520D02*
X-78800Y-89520D01*
X-78800Y-88380D02*
X-83600Y-88380D01*
X-83600Y-87240D02*
X-78800Y-87240D01*
X-78800Y-86100D02*
X-83600Y-86100D01*
X-73600Y-91800D02*
X-68800Y-91800D01*
X-73600Y-91800D02*
X-73600Y-86000D01*
X-68800Y-86000D01*
X-68800Y-91800D01*
X-68800Y-90660D02*
X-73600Y-90660D01*
X-73600Y-89520D02*
X-68800Y-89520D01*
X-68800Y-88380D02*
X-73600Y-88380D01*
X-73600Y-87240D02*
X-68800Y-87240D01*
X-68800Y-86100D02*
X-73600Y-86100D01*
X82190Y2600D02*
X82190Y7400D01*
X87990Y7400D01*
X87990Y2600D01*
X82190Y2600D01*
X82190Y3740D02*
X87990Y3740D01*
X87990Y4880D02*
X82190Y4880D01*
X82190Y6020D02*
X87990Y6020D01*
X87990Y7160D02*
X82190Y7160D01*
X82190Y-2600D02*
X82190Y-7400D01*
X82190Y-2600D02*
X87990Y-2600D01*
X87990Y-7400D01*
X82190Y-7400D01*
X82190Y-6260D02*
X87990Y-6260D01*
X87990Y-5120D02*
X82190Y-5120D01*
X82190Y-3980D02*
X87990Y-3980D01*
X87990Y-2840D02*
X82190Y-2840D01*
X117100Y-72600D02*
X117100Y-77400D01*
X117100Y-72600D02*
X122900Y-72600D01*
X122900Y-77400D01*
X117100Y-77400D01*
X117100Y-76260D02*
X122900Y-76260D01*
X122900Y-75120D02*
X117100Y-75120D01*
X117100Y-73980D02*
X122900Y-73980D01*
X122900Y-72840D02*
X117100Y-72840D01*
X117100Y-82600D02*
X117100Y-87400D01*
X117100Y-82600D02*
X122900Y-82600D01*
X122900Y-87400D01*
X117100Y-87400D01*
X117100Y-86260D02*
X122900Y-86260D01*
X122900Y-85120D02*
X117100Y-85120D01*
X117100Y-83980D02*
X122900Y-83980D01*
X122900Y-82840D02*
X117100Y-82840D01*
X-117100Y-82600D02*
X-117100Y-87400D01*
X-122900Y-87400D01*
X-122900Y-82600D01*
X-117100Y-82600D01*
X-117100Y-86260D02*
X-122900Y-86260D01*
X-122900Y-85120D02*
X-117100Y-85120D01*
X-117100Y-83980D02*
X-122900Y-83980D01*
X-122900Y-82840D02*
X-117100Y-82840D01*
X-117100Y-77400D02*
X-117100Y-72600D01*
X-117100Y-77400D02*
X-122900Y-77400D01*
X-122900Y-72600D01*
X-117100Y-72600D01*
X-117100Y-76260D02*
X-122900Y-76260D01*
X-122900Y-75120D02*
X-117100Y-75120D01*
X-117100Y-73980D02*
X-122900Y-73980D01*
X-122900Y-72840D02*
X-117100Y-72840D01*
X99970Y-36770D02*
X99970Y-31970D01*
X105770Y-31970D01*
X105770Y-36770D01*
X99970Y-36770D01*
X99970Y-35630D02*
X105770Y-35630D01*
X105770Y-34490D02*
X99970Y-34490D01*
X99970Y-33350D02*
X105770Y-33350D01*
X105770Y-32210D02*
X99970Y-32210D01*
X99970Y-41970D02*
X99970Y-46770D01*
X99970Y-41970D02*
X105770Y-41970D01*
X105770Y-46770D01*
X99970Y-46770D01*
X99970Y-45630D02*
X105770Y-45630D01*
X105770Y-44490D02*
X99970Y-44490D01*
X99970Y-43350D02*
X105770Y-43350D01*
X105770Y-42210D02*
X99970Y-42210D01*
X86300Y98700D02*
X81500Y98700D01*
X81500Y104500D01*
X86300Y104500D01*
X86300Y98700D01*
X86300Y99840D02*
X81500Y99840D01*
X81500Y100980D02*
X86300Y100980D01*
X86300Y102120D02*
X81500Y102120D01*
X81500Y103260D02*
X86300Y103260D01*
X86300Y104400D02*
X81500Y104400D01*
X91500Y98700D02*
X96300Y98700D01*
X91500Y98700D02*
X91500Y104500D01*
X96300Y104500D01*
X96300Y98700D01*
X96300Y99840D02*
X91500Y99840D01*
X91500Y100980D02*
X96300Y100980D01*
X96300Y102120D02*
X91500Y102120D01*
X91500Y103260D02*
X96300Y103260D01*
X96300Y104400D02*
X91500Y104400D01*
X86300Y86000D02*
X81500Y86000D01*
X81500Y91800D01*
X86300Y91800D01*
X86300Y86000D01*
X86300Y87140D02*
X81500Y87140D01*
X81500Y88280D02*
X86300Y88280D01*
X86300Y89420D02*
X81500Y89420D01*
X81500Y90560D02*
X86300Y90560D01*
X86300Y91700D02*
X81500Y91700D01*
X91500Y86000D02*
X96300Y86000D01*
X91500Y86000D02*
X91500Y91800D01*
X96300Y91800D01*
X96300Y86000D01*
X96300Y87140D02*
X91500Y87140D01*
X91500Y88280D02*
X96300Y88280D01*
X96300Y89420D02*
X91500Y89420D01*
X91500Y90560D02*
X96300Y90560D01*
X96300Y91700D02*
X91500Y91700D01*
X-129900Y45500D02*
X-129900Y40700D01*
X-129900Y45500D02*
X-124100Y45500D01*
X-124100Y40700D01*
X-129900Y40700D01*
X-129900Y41840D02*
X-124100Y41840D01*
X-124100Y42980D02*
X-129900Y42980D01*
X-129900Y44120D02*
X-124100Y44120D01*
X-124100Y45260D02*
X-129900Y45260D01*
X-129900Y35500D02*
X-129900Y30700D01*
X-129900Y35500D02*
X-124100Y35500D01*
X-124100Y30700D01*
X-129900Y30700D01*
X-129900Y31840D02*
X-124100Y31840D01*
X-124100Y32980D02*
X-129900Y32980D01*
X-129900Y34120D02*
X-124100Y34120D01*
X-124100Y35260D02*
X-129900Y35260D01*
X-114660Y-40860D02*
X-114660Y-45660D01*
X-114660Y-40860D02*
X-108860Y-40860D01*
X-108860Y-45660D01*
X-114660Y-45660D01*
X-114660Y-44520D02*
X-108860Y-44520D01*
X-108860Y-43380D02*
X-114660Y-43380D01*
X-114660Y-42240D02*
X-108860Y-42240D01*
X-108860Y-41100D02*
X-114660Y-41100D01*
X-114660Y-50860D02*
X-114660Y-55660D01*
X-114660Y-50860D02*
X-108860Y-50860D01*
X-108860Y-55660D01*
X-114660Y-55660D01*
X-114660Y-54520D02*
X-108860Y-54520D01*
X-108860Y-53380D02*
X-114660Y-53380D01*
X-114660Y-52240D02*
X-108860Y-52240D01*
X-108860Y-51100D02*
X-114660Y-51100D01*
X-89810Y-49590D02*
X-89810Y-54390D01*
X-95610Y-54390D01*
X-95610Y-49590D01*
X-89810Y-49590D01*
X-89810Y-53250D02*
X-95610Y-53250D01*
X-95610Y-52110D02*
X-89810Y-52110D01*
X-89810Y-50970D02*
X-95610Y-50970D01*
X-95610Y-49830D02*
X-89810Y-49830D01*
X-89810Y-44390D02*
X-89810Y-39590D01*
X-89810Y-44390D02*
X-95610Y-44390D01*
X-95610Y-39590D01*
X-89810Y-39590D01*
X-89810Y-43250D02*
X-95610Y-43250D01*
X-95610Y-42110D02*
X-89810Y-42110D01*
X-89810Y-40970D02*
X-95610Y-40970D01*
X-95610Y-39830D02*
X-89810Y-39830D01*
X-58200Y-91800D02*
X-53400Y-91800D01*
X-58200Y-91800D02*
X-58200Y-86000D01*
X-53400Y-86000D01*
X-53400Y-91800D01*
X-53400Y-90660D02*
X-58200Y-90660D01*
X-58200Y-89520D02*
X-53400Y-89520D01*
X-53400Y-88380D02*
X-58200Y-88380D01*
X-58200Y-87240D02*
X-53400Y-87240D01*
X-53400Y-86100D02*
X-58200Y-86100D01*
X-48200Y-91800D02*
X-43400Y-91800D01*
X-48200Y-91800D02*
X-48200Y-86000D01*
X-43400Y-86000D01*
X-43400Y-91800D01*
X-43400Y-90660D02*
X-48200Y-90660D01*
X-48200Y-89520D02*
X-43400Y-89520D01*
X-43400Y-88380D02*
X-48200Y-88380D01*
X-48200Y-87240D02*
X-43400Y-87240D01*
X-43400Y-86100D02*
X-48200Y-86100D01*
X-68800Y-60600D02*
X-73600Y-60600D01*
X-68800Y-60600D02*
X-68800Y-66400D01*
X-73600Y-66400D01*
X-73600Y-60600D01*
X-73600Y-65260D02*
X-68800Y-65260D01*
X-68800Y-64120D02*
X-73600Y-64120D01*
X-73600Y-62980D02*
X-68800Y-62980D01*
X-68800Y-61840D02*
X-73600Y-61840D01*
X-73600Y-60700D02*
X-68800Y-60700D01*
X-78800Y-60600D02*
X-83600Y-60600D01*
X-78800Y-60600D02*
X-78800Y-66400D01*
X-83600Y-66400D01*
X-83600Y-60600D01*
X-83600Y-65260D02*
X-78800Y-65260D01*
X-78800Y-64120D02*
X-83600Y-64120D01*
X-83600Y-62980D02*
X-78800Y-62980D01*
X-78800Y-61840D02*
X-83600Y-61840D01*
X-83600Y-60700D02*
X-78800Y-60700D01*
X-91500Y98700D02*
X-96300Y98700D01*
X-96300Y104500D01*
X-91500Y104500D01*
X-91500Y98700D01*
X-91500Y99840D02*
X-96300Y99840D01*
X-96300Y100980D02*
X-91500Y100980D01*
X-91500Y102120D02*
X-96300Y102120D01*
X-96300Y103260D02*
X-91500Y103260D01*
X-91500Y104400D02*
X-96300Y104400D01*
X-86300Y98700D02*
X-81500Y98700D01*
X-86300Y98700D02*
X-86300Y104500D01*
X-81500Y104500D01*
X-81500Y98700D01*
X-81500Y99840D02*
X-86300Y99840D01*
X-86300Y100980D02*
X-81500Y100980D01*
X-81500Y102120D02*
X-86300Y102120D01*
X-86300Y103260D02*
X-81500Y103260D01*
X-81500Y104400D02*
X-86300Y104400D01*
X91500Y79100D02*
X96300Y79100D01*
X96300Y73300D01*
X91500Y73300D01*
X91500Y79100D01*
X91500Y74440D02*
X96300Y74440D01*
X96300Y75580D02*
X91500Y75580D01*
X91500Y76720D02*
X96300Y76720D01*
X96300Y77860D02*
X91500Y77860D01*
X91500Y79000D02*
X96300Y79000D01*
X86300Y79100D02*
X81500Y79100D01*
X86300Y79100D02*
X86300Y73300D01*
X81500Y73300D01*
X81500Y79100D01*
X81500Y74440D02*
X86300Y74440D01*
X86300Y75580D02*
X81500Y75580D01*
X81500Y76720D02*
X86300Y76720D01*
X86300Y77860D02*
X81500Y77860D01*
X81500Y79000D02*
X86300Y79000D01*
X116900Y74020D02*
X121700Y74020D01*
X121700Y68220D01*
X116900Y68220D01*
X116900Y74020D01*
X116900Y69360D02*
X121700Y69360D01*
X121700Y70500D02*
X116900Y70500D01*
X116900Y71640D02*
X121700Y71640D01*
X121700Y72780D02*
X116900Y72780D01*
X116900Y73920D02*
X121700Y73920D01*
X111700Y74020D02*
X106900Y74020D01*
X111700Y74020D02*
X111700Y68220D01*
X106900Y68220D01*
X106900Y74020D01*
X106900Y69360D02*
X111700Y69360D01*
X111700Y70500D02*
X106900Y70500D01*
X106900Y71640D02*
X111700Y71640D01*
X111700Y72780D02*
X106900Y72780D01*
X106900Y73920D02*
X111700Y73920D01*
X184510Y64710D02*
X184510Y59910D01*
X178710Y59910D01*
X178710Y64710D01*
X184510Y64710D01*
X184510Y61050D02*
X178710Y61050D01*
X178710Y62190D02*
X184510Y62190D01*
X184510Y63330D02*
X178710Y63330D01*
X178710Y64470D02*
X184510Y64470D01*
X184510Y69910D02*
X184510Y74710D01*
X184510Y69910D02*
X178710Y69910D01*
X178710Y74710D01*
X184510Y74710D01*
X184510Y71050D02*
X178710Y71050D01*
X178710Y72190D02*
X184510Y72190D01*
X184510Y73330D02*
X178710Y73330D01*
X178710Y74470D02*
X184510Y74470D01*
X173080Y64710D02*
X173080Y59910D01*
X167280Y59910D01*
X167280Y64710D01*
X173080Y64710D01*
X173080Y61050D02*
X167280Y61050D01*
X167280Y62190D02*
X173080Y62190D01*
X173080Y63330D02*
X167280Y63330D01*
X167280Y64470D02*
X173080Y64470D01*
X173080Y69910D02*
X173080Y74710D01*
X173080Y69910D02*
X167280Y69910D01*
X167280Y74710D01*
X173080Y74710D01*
X173080Y71050D02*
X167280Y71050D01*
X167280Y72190D02*
X173080Y72190D01*
X173080Y73330D02*
X167280Y73330D01*
X167280Y74470D02*
X173080Y74470D01*
D19*
X-118110Y93980D03*
X-130810Y93980D03*
X-143510Y93980D03*
X-143510Y106680D03*
X-130810Y106680D03*
X-118110Y106680D03*
D20*
X94980Y-18450D02*
X99380Y-18450D01*
X94980Y-18450D02*
X94980Y-7550D01*
X99380Y-7550D01*
X99380Y-18450D01*
X99380Y-17405D02*
X94980Y-17405D01*
X94980Y-16360D02*
X99380Y-16360D01*
X99380Y-15315D02*
X94980Y-15315D01*
X94980Y-14270D02*
X99380Y-14270D01*
X99380Y-13225D02*
X94980Y-13225D01*
X94980Y-12180D02*
X99380Y-12180D01*
X99380Y-11135D02*
X94980Y-11135D01*
X94980Y-10090D02*
X99380Y-10090D01*
X99380Y-9045D02*
X94980Y-9045D01*
X94980Y-8000D02*
X99380Y-8000D01*
X104480Y-18450D02*
X108880Y-18450D01*
X104480Y-18450D02*
X104480Y-7550D01*
X108880Y-7550D01*
X108880Y-18450D01*
X108880Y-17405D02*
X104480Y-17405D01*
X104480Y-16360D02*
X108880Y-16360D01*
X108880Y-15315D02*
X104480Y-15315D01*
X104480Y-14270D02*
X108880Y-14270D01*
X108880Y-13225D02*
X104480Y-13225D01*
X104480Y-12180D02*
X108880Y-12180D01*
X108880Y-11135D02*
X104480Y-11135D01*
X104480Y-10090D02*
X108880Y-10090D01*
X108880Y-9045D02*
X104480Y-9045D01*
X104480Y-8000D02*
X108880Y-8000D01*
X113980Y-18450D02*
X118380Y-18450D01*
X113980Y-18450D02*
X113980Y-7550D01*
X118380Y-7550D01*
X118380Y-18450D01*
X118380Y-17405D02*
X113980Y-17405D01*
X113980Y-16360D02*
X118380Y-16360D01*
X118380Y-15315D02*
X113980Y-15315D01*
X113980Y-14270D02*
X118380Y-14270D01*
X118380Y-13225D02*
X113980Y-13225D01*
X113980Y-12180D02*
X118380Y-12180D01*
X118380Y-11135D02*
X113980Y-11135D01*
X113980Y-10090D02*
X118380Y-10090D01*
X118380Y-9045D02*
X113980Y-9045D01*
X113980Y-8000D02*
X118380Y-8000D01*
X118380Y7550D02*
X113980Y7550D01*
X113980Y18450D01*
X118380Y18450D01*
X118380Y7550D01*
X118380Y8595D02*
X113980Y8595D01*
X113980Y9640D02*
X118380Y9640D01*
X118380Y10685D02*
X113980Y10685D01*
X113980Y11730D02*
X118380Y11730D01*
X118380Y12775D02*
X113980Y12775D01*
X113980Y13820D02*
X118380Y13820D01*
X118380Y14865D02*
X113980Y14865D01*
X113980Y15910D02*
X118380Y15910D01*
X118380Y16955D02*
X113980Y16955D01*
X113980Y18000D02*
X118380Y18000D01*
X99380Y7550D02*
X94980Y7550D01*
X94980Y18450D01*
X99380Y18450D01*
X99380Y7550D01*
X99380Y8595D02*
X94980Y8595D01*
X94980Y9640D02*
X99380Y9640D01*
X99380Y10685D02*
X94980Y10685D01*
X94980Y11730D02*
X99380Y11730D01*
X99380Y12775D02*
X94980Y12775D01*
X94980Y13820D02*
X99380Y13820D01*
X99380Y14865D02*
X94980Y14865D01*
X94980Y15910D02*
X99380Y15910D01*
X99380Y16955D02*
X94980Y16955D01*
X94980Y18000D02*
X99380Y18000D01*
D21*
X77800Y-67560D02*
X74600Y-67560D01*
X74600Y-60360D01*
X77800Y-60360D01*
X77800Y-67560D01*
X77800Y-66800D02*
X74600Y-66800D01*
X74600Y-66040D02*
X77800Y-66040D01*
X77800Y-65280D02*
X74600Y-65280D01*
X74600Y-64520D02*
X77800Y-64520D01*
X77800Y-63760D02*
X74600Y-63760D01*
X74600Y-63000D02*
X77800Y-63000D01*
X77800Y-62240D02*
X74600Y-62240D01*
X74600Y-61480D02*
X77800Y-61480D01*
X77800Y-60720D02*
X74600Y-60720D01*
X81100Y-67560D02*
X84300Y-67560D01*
X81100Y-67560D02*
X81100Y-60360D01*
X84300Y-60360D01*
X84300Y-67560D01*
X84300Y-66800D02*
X81100Y-66800D01*
X81100Y-66040D02*
X84300Y-66040D01*
X84300Y-65280D02*
X81100Y-65280D01*
X81100Y-64520D02*
X84300Y-64520D01*
X84300Y-63760D02*
X81100Y-63760D01*
X81100Y-63000D02*
X84300Y-63000D01*
X84300Y-62240D02*
X81100Y-62240D01*
X81100Y-61480D02*
X84300Y-61480D01*
X84300Y-60720D02*
X81100Y-60720D01*
X71300Y-67560D02*
X68100Y-67560D01*
X68100Y-60360D01*
X71300Y-60360D01*
X71300Y-67560D01*
X71300Y-66800D02*
X68100Y-66800D01*
X68100Y-66040D02*
X71300Y-66040D01*
X71300Y-65280D02*
X68100Y-65280D01*
X68100Y-64520D02*
X71300Y-64520D01*
X71300Y-63760D02*
X68100Y-63760D01*
X68100Y-63000D02*
X71300Y-63000D01*
X71300Y-62240D02*
X68100Y-62240D01*
X68100Y-61480D02*
X71300Y-61480D01*
X71300Y-60720D02*
X68100Y-60720D01*
X68100Y-86960D02*
X71300Y-86960D01*
X68100Y-86960D02*
X68100Y-79760D01*
X71300Y-79760D01*
X71300Y-86960D01*
X71300Y-86200D02*
X68100Y-86200D01*
X68100Y-85440D02*
X71300Y-85440D01*
X71300Y-84680D02*
X68100Y-84680D01*
X68100Y-83920D02*
X71300Y-83920D01*
X71300Y-83160D02*
X68100Y-83160D01*
X68100Y-82400D02*
X71300Y-82400D01*
X71300Y-81640D02*
X68100Y-81640D01*
X68100Y-80880D02*
X71300Y-80880D01*
X71300Y-80120D02*
X68100Y-80120D01*
X81100Y-86960D02*
X84300Y-86960D01*
X81100Y-86960D02*
X81100Y-79760D01*
X84300Y-79760D01*
X84300Y-86960D01*
X84300Y-86200D02*
X81100Y-86200D01*
X81100Y-85440D02*
X84300Y-85440D01*
X84300Y-84680D02*
X81100Y-84680D01*
X81100Y-83920D02*
X84300Y-83920D01*
X84300Y-83160D02*
X81100Y-83160D01*
X81100Y-82400D02*
X84300Y-82400D01*
X84300Y-81640D02*
X81100Y-81640D01*
X81100Y-80880D02*
X84300Y-80880D01*
X84300Y-80120D02*
X81100Y-80120D01*
D20*
X133080Y74259D02*
X137480Y74259D01*
X133080Y74259D02*
X133080Y85159D01*
X137480Y85159D01*
X137480Y74259D01*
X137480Y75304D02*
X133080Y75304D01*
X133080Y76349D02*
X137480Y76349D01*
X137480Y77394D02*
X133080Y77394D01*
X133080Y78439D02*
X137480Y78439D01*
X137480Y79484D02*
X133080Y79484D01*
X133080Y80529D02*
X137480Y80529D01*
X137480Y81574D02*
X133080Y81574D01*
X133080Y82619D02*
X137480Y82619D01*
X137480Y83664D02*
X133080Y83664D01*
X133080Y84709D02*
X137480Y84709D01*
X142580Y74259D02*
X146980Y74259D01*
X142580Y74259D02*
X142580Y85159D01*
X146980Y85159D01*
X146980Y74259D01*
X146980Y75304D02*
X142580Y75304D01*
X142580Y76349D02*
X146980Y76349D01*
X146980Y77394D02*
X142580Y77394D01*
X142580Y78439D02*
X146980Y78439D01*
X146980Y79484D02*
X142580Y79484D01*
X142580Y80529D02*
X146980Y80529D01*
X146980Y81574D02*
X142580Y81574D01*
X142580Y82619D02*
X146980Y82619D01*
X146980Y83664D02*
X142580Y83664D01*
X142580Y84709D02*
X146980Y84709D01*
X152080Y74259D02*
X156480Y74259D01*
X152080Y74259D02*
X152080Y85159D01*
X156480Y85159D01*
X156480Y74259D01*
X156480Y75304D02*
X152080Y75304D01*
X152080Y76349D02*
X156480Y76349D01*
X156480Y77394D02*
X152080Y77394D01*
X152080Y78439D02*
X156480Y78439D01*
X156480Y79484D02*
X152080Y79484D01*
X152080Y80529D02*
X156480Y80529D01*
X156480Y81574D02*
X152080Y81574D01*
X152080Y82619D02*
X156480Y82619D01*
X156480Y83664D02*
X152080Y83664D01*
X152080Y84709D02*
X156480Y84709D01*
X156480Y100261D02*
X152080Y100261D01*
X152080Y111161D01*
X156480Y111161D01*
X156480Y100261D01*
X156480Y101306D02*
X152080Y101306D01*
X152080Y102351D02*
X156480Y102351D01*
X156480Y103396D02*
X152080Y103396D01*
X152080Y104441D02*
X156480Y104441D01*
X156480Y105486D02*
X152080Y105486D01*
X152080Y106531D02*
X156480Y106531D01*
X156480Y107576D02*
X152080Y107576D01*
X152080Y108621D02*
X156480Y108621D01*
X156480Y109666D02*
X152080Y109666D01*
X152080Y110711D02*
X156480Y110711D01*
X137480Y100261D02*
X133080Y100261D01*
X133080Y111161D01*
X137480Y111161D01*
X137480Y100261D01*
X137480Y101306D02*
X133080Y101306D01*
X133080Y102351D02*
X137480Y102351D01*
X137480Y103396D02*
X133080Y103396D01*
X133080Y104441D02*
X137480Y104441D01*
X137480Y105486D02*
X133080Y105486D01*
X133080Y106531D02*
X137480Y106531D01*
X137480Y107576D02*
X133080Y107576D01*
X133080Y108621D02*
X137480Y108621D01*
X137480Y109666D02*
X133080Y109666D01*
X133080Y110711D02*
X137480Y110711D01*
D22*
X150670Y-43200D02*
X161750Y-43200D01*
X161750Y43200D02*
X150670Y43200D01*
X192170Y43200D02*
X203250Y43200D01*
X203250Y-43200D02*
X192170Y-43200D01*
D20*
X155660Y-29800D02*
X145260Y-29800D01*
X155660Y-29800D02*
X155660Y-34200D01*
X145260Y-34200D01*
X145260Y-29800D01*
X145260Y-33155D02*
X155660Y-33155D01*
X155660Y-32110D02*
X145260Y-32110D01*
X145260Y-31065D02*
X155660Y-31065D01*
X155660Y-30020D02*
X145260Y-30020D01*
X145260Y34200D02*
X155660Y34200D01*
X155660Y29800D01*
X145260Y29800D01*
X145260Y34200D01*
X145260Y30845D02*
X155660Y30845D01*
X155660Y31890D02*
X145260Y31890D01*
X145260Y32935D02*
X155660Y32935D01*
X155660Y33980D02*
X145260Y33980D01*
X145260Y26200D02*
X155660Y26200D01*
X155660Y21800D01*
X145260Y21800D01*
X145260Y26200D01*
X145260Y22845D02*
X155660Y22845D01*
X155660Y23890D02*
X145260Y23890D01*
X145260Y24935D02*
X155660Y24935D01*
X155660Y25980D02*
X145260Y25980D01*
X145260Y-21800D02*
X155660Y-21800D01*
X155660Y-26200D01*
X145260Y-26200D01*
X145260Y-21800D01*
X145260Y-25155D02*
X155660Y-25155D01*
X155660Y-24110D02*
X145260Y-24110D01*
X145260Y-23065D02*
X155660Y-23065D01*
X155660Y-22020D02*
X145260Y-22020D01*
D15*
X144985Y-1400D02*
X155935Y-1400D01*
X155935Y-3600D01*
X144985Y-3600D01*
X144985Y-1400D01*
X144985Y-3078D02*
X155935Y-3078D01*
X155935Y-2556D02*
X144985Y-2556D01*
X144985Y-2034D02*
X155935Y-2034D01*
X155935Y-1512D02*
X144985Y-1512D01*
X144985Y3600D02*
X155935Y3600D01*
X155935Y1400D01*
X144985Y1400D01*
X144985Y3600D01*
X144985Y1922D02*
X155935Y1922D01*
X155935Y2444D02*
X144985Y2444D01*
X144985Y2966D02*
X155935Y2966D01*
X155935Y3488D02*
X144985Y3488D01*
X144985Y8600D02*
X155935Y8600D01*
X155935Y6400D01*
X144985Y6400D01*
X144985Y8600D01*
X144985Y6922D02*
X155935Y6922D01*
X155935Y7444D02*
X144985Y7444D01*
X144985Y7966D02*
X155935Y7966D01*
X155935Y8488D02*
X144985Y8488D01*
X144985Y-6400D02*
X155935Y-6400D01*
X155935Y-8600D01*
X144985Y-8600D01*
X144985Y-6400D01*
X144985Y-8078D02*
X155935Y-8078D01*
X155935Y-7556D02*
X144985Y-7556D01*
X144985Y-7034D02*
X155935Y-7034D01*
X155935Y-6512D02*
X144985Y-6512D01*
X144985Y-11400D02*
X155935Y-11400D01*
X155935Y-13600D01*
X144985Y-13600D01*
X144985Y-11400D01*
X144985Y-13078D02*
X155935Y-13078D01*
X155935Y-12556D02*
X144985Y-12556D01*
X144985Y-12034D02*
X155935Y-12034D01*
X155935Y-11512D02*
X144985Y-11512D01*
D23*
X145010Y-16300D02*
X155910Y-16300D01*
X155910Y-18700D01*
X145010Y-18700D01*
X145010Y-16300D01*
X145010Y-18130D02*
X155910Y-18130D01*
X155910Y-17560D02*
X145010Y-17560D01*
X145010Y-16990D02*
X155910Y-16990D01*
X155910Y-16420D02*
X145010Y-16420D01*
D15*
X144985Y18600D02*
X155935Y18600D01*
X155935Y16400D01*
X144985Y16400D01*
X144985Y18600D01*
X144985Y16922D02*
X155935Y16922D01*
X155935Y17444D02*
X144985Y17444D01*
X144985Y17966D02*
X155935Y17966D01*
X155935Y18488D02*
X144985Y18488D01*
X144985Y13600D02*
X155935Y13600D01*
X155935Y11400D01*
X144985Y11400D01*
X144985Y13600D01*
X144985Y11922D02*
X155935Y11922D01*
X155935Y12444D02*
X144985Y12444D01*
X144985Y12966D02*
X155935Y12966D01*
X155935Y13488D02*
X144985Y13488D01*
D24*
X-137660Y66770D02*
X-147460Y66770D01*
X-137660Y66770D02*
X-137660Y57970D01*
X-147460Y57970D01*
X-147460Y66770D01*
X-147460Y60060D02*
X-137660Y60060D01*
X-137660Y62150D02*
X-147460Y62150D01*
X-147460Y64240D02*
X-137660Y64240D01*
X-137660Y66330D02*
X-147460Y66330D01*
X-123960Y57970D02*
X-114160Y57970D01*
X-123960Y57970D02*
X-123960Y66770D01*
X-114160Y66770D01*
X-114160Y57970D01*
X-114160Y60060D02*
X-123960Y60060D01*
X-123960Y62150D02*
X-114160Y62150D01*
X-114160Y64240D02*
X-123960Y64240D01*
X-123960Y66330D02*
X-114160Y66330D01*
X-114160Y75470D02*
X-123960Y75470D01*
X-123960Y84270D01*
X-114160Y84270D01*
X-114160Y75470D01*
X-114160Y77560D02*
X-123960Y77560D01*
X-123960Y79650D02*
X-114160Y79650D01*
X-114160Y81740D02*
X-123960Y81740D01*
X-123960Y83830D02*
X-114160Y83830D01*
X-137660Y84270D02*
X-147460Y84270D01*
X-137660Y84270D02*
X-137660Y75470D01*
X-147460Y75470D01*
X-147460Y84270D01*
X-147460Y77560D02*
X-137660Y77560D01*
X-137660Y79650D02*
X-147460Y79650D01*
X-147460Y81740D02*
X-137660Y81740D01*
X-137660Y83830D02*
X-147460Y83830D01*
D25*
X-119060Y62370D03*
D26*
X-116310Y65120D01*
X-106680Y65120D01*
D25*
X-127000Y43100D03*
D26*
X-101600Y46990D02*
X-94900Y46990D01*
X-106680Y52070D02*
X-106680Y65120D01*
X-106680Y52070D02*
X-101600Y46990D01*
X-145310Y77120D02*
X-154940Y77120D01*
X-145310Y77120D02*
X-142560Y79870D01*
D25*
X-142560Y79870D03*
X-114300Y0D03*
D26*
X-149590Y-32940D02*
X-160020Y-32940D01*
X-149590Y-32940D02*
X-148590Y-33940D01*
X-160020Y-32940D02*
X-160020Y-41910D01*
D25*
X-160020Y-41910D03*
D26*
X-111760Y-53260D02*
X-109140Y-55880D01*
X-102870Y-55880D01*
D25*
X-102870Y-55880D03*
D26*
X-110580Y-85000D02*
X-120000Y-85000D01*
X-110580Y-85000D02*
X-110490Y-85090D01*
D25*
X-110490Y-85090D03*
D26*
X-80930Y-44450D02*
X-82550Y-42830D01*
X-80930Y-44450D02*
X-73660Y-44450D01*
D25*
X-73660Y-44450D03*
D26*
X-71200Y-63500D02*
X-58500Y-76200D01*
X-56800Y-76200D01*
D25*
X-56800Y-76200D03*
D26*
X95250Y-79660D02*
X104490Y-79660D01*
X109150Y-75000D02*
X120000Y-75000D01*
X109150Y-75000D02*
X104490Y-79660D01*
X95250Y-79660D02*
X95250Y-90984D01*
D25*
X95250Y-90984D03*
D26*
X70200Y-95250D02*
X59690Y-95250D01*
D25*
X59690Y-95250D03*
D26*
X76200Y-63960D02*
X76200Y-55070D01*
X70660Y-49530D01*
X70485Y-49530D01*
D25*
X70485Y-49530D03*
D26*
X85090Y-13970D02*
X85090Y-5000D01*
D25*
X85090Y-13970D03*
D26*
X93900Y64500D02*
X93900Y76200D01*
X93900Y64500D02*
X94900Y63500D01*
X94900Y50800D01*
X94900Y31180D02*
X100680Y25400D01*
X94900Y31180D02*
X94900Y50800D01*
X105410Y50800D01*
D25*
X105410Y50800D03*
D26*
X87550Y-2540D02*
X85090Y-5000D01*
X87550Y-2540D02*
X104140Y-2540D01*
X104140Y21940D02*
X100680Y25400D01*
X104140Y21940D02*
X104140Y-2540D01*
X170180Y72310D02*
X181610Y72310D01*
X154280Y105711D02*
X144780Y105711D01*
X154280Y105711D02*
X163529Y105711D01*
X170180Y99060D02*
X170180Y72310D01*
X170180Y99060D02*
X163529Y105711D01*
X181610Y72310D02*
X190580Y72310D01*
X197710Y65180D01*
X106680Y-5080D02*
X106680Y-13000D01*
X106680Y-5080D02*
X104140Y-2540D01*
D25*
X-3810Y46990D03*
X-177800Y2620D03*
X-118110Y106680D03*
D10*
X-94900Y88900D02*
X-94828Y88972D01*
D25*
X-94828Y88972D03*
X-55800Y-88900D03*
D26*
X150460Y-37450D02*
X150460Y-32000D01*
X150460Y-37450D02*
X156210Y-43200D01*
X150460Y37450D02*
X156210Y43200D01*
X150460Y37450D02*
X150460Y32000D01*
X197710Y43200D02*
X197710Y65180D01*
D25*
X-162560Y21590D03*
X-154940Y21590D03*
X-170180Y21590D03*
X-147320Y21590D03*
X-170180Y29210D03*
X-170180Y36830D03*
X-170180Y44450D03*
X-170180Y52070D03*
X-170180Y59690D03*
X-170180Y67310D03*
X-170180Y74930D03*
X-170180Y82550D03*
X-170180Y90170D03*
X-170180Y97790D03*
X-170180Y105410D03*
X-170180Y113030D03*
X-185420Y-3175D03*
X-193040Y-3175D03*
X-200660Y-3175D03*
X-208280Y-3175D03*
X-208280Y-11430D03*
X-208280Y-19685D03*
X-208280Y-27940D03*
X-208280Y-36195D03*
X-208280Y-44450D03*
X-168910Y2540D03*
X-161290Y2540D03*
X-152400Y2620D03*
X-114300Y12700D03*
X-101600Y12700D03*
X-101600Y0D03*
X-101600Y-12700D03*
X-114300Y-12700D03*
X-127000Y-12700D03*
X-127000Y0D03*
X-127000Y12700D03*
D26*
X132080Y-6000D02*
X132080Y-26035D01*
X138045Y-32000D02*
X150460Y-32000D01*
X138045Y-32000D02*
X132080Y-26035D01*
D27*
X144780Y105711D03*
D26*
X135280Y105711D01*
X93900Y101600D02*
X93900Y88900D01*
D10*
X-139300Y7500D02*
X-139300Y2500D01*
X-144820Y2500D01*
X-146376Y944D01*
X-146376Y-3966D02*
X-148761Y-6350D01*
X-146376Y-3966D02*
X-146376Y944D01*
X-148590Y-16510D02*
X-148590Y-21940D01*
X-144580Y-12500D02*
X-139300Y-12500D01*
X-144580Y-12500D02*
X-148590Y-16510D01*
X-121800Y-25000D02*
X-121800Y-51315D01*
X-125095Y-54610D01*
D25*
X-125095Y-54610D03*
D10*
X-121800Y25000D02*
X-116800Y25000D01*
X-116800Y36197D01*
X-118703Y38100D01*
D25*
X-118703Y38100D03*
D10*
X-89300Y-17500D02*
X-86640Y-17500D01*
X-82550Y-21590D02*
X-82550Y-30830D01*
X-82550Y-21590D02*
X-86640Y-17500D01*
D25*
X-82550Y-30830D03*
X-148590Y-21940D03*
X-183000Y-91000D03*
X-139700Y25400D03*
D10*
X-139700Y17900D01*
X-139300Y17500D01*
D26*
X82700Y-83360D02*
X82700Y-94750D01*
X82200Y-95250D01*
X-93900Y101600D02*
X-93900Y106760D01*
X-90170Y110490D01*
X-71120Y110490D01*
D25*
X-71120Y110490D03*
D10*
X-148761Y-6350D02*
X-163830Y-6350D01*
X-170180Y-12700D01*
D25*
X-170180Y-12700D03*
D26*
X-82900Y46990D02*
X-67310Y46990D01*
D25*
X-67310Y46990D03*
D26*
X183000Y-61380D02*
X183000Y-69000D01*
X183000Y-61380D02*
X179405Y-57785D01*
X163195Y-57785D01*
D25*
X163195Y-57785D03*
D26*
X82550Y-95600D02*
X82200Y-95250D01*
X82550Y-95600D02*
X82550Y-104140D01*
D25*
X82550Y-104140D03*
D26*
X93900Y101600D02*
X93900Y110410D01*
X93980Y110490D01*
D25*
X93980Y110490D03*
X-17780Y50800D03*
X3814Y50804D03*
X-143510Y93980D03*
D10*
X-71200Y-88900D02*
X-71200Y-96440D01*
X-66640Y-101000D02*
X-23000Y-101000D01*
X-66640Y-101000D02*
X-71200Y-96440D01*
X-62310Y-51990D02*
X-92710Y-51990D01*
X-57800Y-56500D02*
X-57800Y-63500D01*
X-57800Y-56500D02*
X-62310Y-51990D01*
X-116800Y-32980D02*
X-116800Y-25000D01*
X-116800Y-32980D02*
X-118110Y-34290D01*
X-118110Y-58420D01*
X-113030Y-63500D02*
X-81200Y-63500D01*
X-113030Y-63500D02*
X-118110Y-58420D01*
X-81200Y-63500D02*
X-81200Y-74200D01*
X-83200Y-76200D01*
X-81200Y-78200D02*
X-81200Y-88900D01*
X-81200Y-78200D02*
X-83200Y-76200D01*
D25*
X-91440Y35560D03*
D10*
X-91440Y26670D01*
X-93110Y25000D01*
X-96800Y25000D01*
D25*
X-130810Y106680D03*
X-100994Y35560D03*
D10*
X-101800Y34754D01*
X-101800Y25000D01*
D25*
X-143510Y106680D03*
D10*
X-144927Y-7500D02*
X-139300Y-7500D01*
X-144927Y-7500D02*
X-147301Y-9874D01*
X-158464Y-9874D01*
X-160020Y-11430D02*
X-160020Y-22940D01*
X-160020Y-11430D02*
X-158464Y-9874D01*
X-160020Y-22940D02*
X-170180Y-22940D01*
X-101800Y-25000D02*
X-101800Y-31550D01*
X-99060Y-34290D01*
X-99060Y-41910D01*
X-102870Y-45720D01*
D25*
X-102870Y-45720D03*
X-118110Y93980D03*
D10*
X-130810Y93980D02*
X-130810Y78414D01*
X-131754Y77470D01*
D25*
X-131754Y77470D03*
X-135890Y43180D03*
D10*
X-131800Y27831D02*
X-131800Y25000D01*
X-131800Y27831D02*
X-133024Y29055D01*
X-133024Y40314D02*
X-135890Y43180D01*
X-133024Y40314D02*
X-133024Y29055D01*
D26*
X85090Y5000D02*
X93090Y13000D01*
X97180Y13000D01*
X139700Y-24000D02*
X150460Y-24000D01*
X150460Y24000D02*
X139700Y24000D01*
X139700Y-24000D01*
X114080Y24000D02*
X112680Y25400D01*
X114080Y24000D02*
X139700Y24000D01*
D10*
X150460Y17500D02*
X162280Y17500D01*
X170180Y25400D02*
X170180Y62310D01*
X170180Y25400D02*
X162280Y17500D01*
X172920Y-12500D02*
X150460Y-12500D01*
X181610Y-3810D02*
X181610Y62310D01*
X181610Y-3810D02*
X172920Y-12500D01*
D26*
X154280Y68270D02*
X154280Y79709D01*
X154280Y68270D02*
X150780Y64770D01*
X119300Y59770D02*
X119300Y71120D01*
X119300Y59770D02*
X123190Y55880D01*
X143510Y55880D01*
X150780Y63150D01*
X150780Y64770D01*
X144780Y74930D02*
X144780Y79709D01*
X138780Y68930D02*
X138780Y64770D01*
X138780Y68930D02*
X144780Y74930D01*
X130050Y92710D02*
X120800Y101960D01*
X130050Y92710D02*
X139700Y92710D01*
X144780Y87630D01*
X144780Y79709D01*
D25*
X144780Y79709D03*
X114300Y83460D03*
D10*
X-44800Y-63500D02*
X-44800Y-76200D01*
X-45800Y-82550D02*
X-45800Y-88900D01*
X-45800Y-82550D02*
X-45800Y-77200D01*
X-44800Y-76200D01*
X-63850Y-82550D02*
X-70200Y-76200D01*
X-63850Y-82550D02*
X-45800Y-82550D01*
X-44800Y-63500D02*
X69240Y-63500D01*
X69700Y-63960D01*
X-92710Y-30360D02*
X-96800Y-26270D01*
X-96800Y-25000D01*
X-92710Y-30360D02*
X-92710Y-41990D01*
D28*
X30480Y101600D02*
X83900Y101600D01*
X30480Y101600D02*
X17780Y88900D01*
D25*
X17780Y88900D03*
X-133734Y-34290D03*
D10*
X-133470Y-34290D02*
X-131800Y-32620D01*
X-133470Y-34290D02*
X-133734Y-34290D01*
X-131800Y-32620D02*
X-131800Y-25000D01*
D28*
X31750Y88900D02*
X83900Y88900D01*
X31750Y88900D02*
X25400Y82550D01*
D25*
X25400Y82550D03*
X-105152Y-36572D03*
D10*
X-106800Y-34923D01*
X-106800Y-25000D01*
D28*
X-87528Y54610D02*
X-94900Y61982D01*
X-94900Y62230D01*
X-48260Y54610D02*
X-45720Y52070D01*
D25*
X-45720Y52070D03*
D28*
X-48260Y54610D02*
X-87528Y54610D01*
X-82900Y62230D02*
X-43180Y62230D01*
X-39370Y58420D01*
D25*
X-39370Y58420D03*
D28*
X-90299Y71599D02*
X-94900Y76200D01*
X-90299Y71599D02*
X-90299Y71351D01*
X-88674Y69726D01*
X-35436Y69726D02*
X-31750Y66040D01*
D25*
X-31750Y66040D03*
D28*
X-35436Y69726D02*
X-88674Y69726D01*
X-29210Y76200D02*
X-25400Y72390D01*
X-29210Y76200D02*
X-82900Y76200D01*
D25*
X-25400Y72390D03*
D28*
X-16510Y88900D02*
X-82900Y88900D01*
X-16510Y88900D02*
X-10160Y82550D01*
D25*
X-10160Y82550D03*
D28*
X35560Y76200D02*
X83900Y76200D01*
X35560Y76200D02*
X31750Y72390D01*
D25*
X31750Y72390D03*
D28*
X41910Y63500D02*
X82900Y63500D01*
X41910Y63500D02*
X39370Y60960D01*
D25*
X39370Y60960D03*
D28*
X48260Y50800D02*
X82900Y50800D01*
X48260Y50800D02*
X45720Y48260D01*
D25*
X45720Y48260D03*
D28*
X3810Y101600D02*
X-83900Y101600D01*
X3810Y101600D02*
X10160Y95250D01*
D25*
X10160Y95250D03*
D10*
X-71000Y-7500D02*
X-89300Y-7500D01*
X-62812Y688D02*
X-62812Y18362D01*
D25*
X-62812Y18362D03*
D10*
X-62812Y688D02*
X-71000Y-7500D01*
X-106800Y25000D02*
X-106800Y45744D01*
X-106680Y77120D02*
X-109430Y79870D01*
X-119060Y79870D01*
X-130810Y68120D01*
X-130810Y57150D01*
X-127078Y53418D01*
X-114474Y53418D02*
X-106800Y45744D01*
X-114474Y53418D02*
X-127078Y53418D01*
X-111800Y45760D02*
X-111800Y25000D01*
X-111800Y45760D02*
X-115934Y49894D01*
X-130084Y49894D02*
X-142560Y62370D01*
X-130084Y49894D02*
X-115934Y49894D01*
X-152190Y62370D02*
X-154940Y65120D01*
X-152190Y62370D02*
X-142560Y62370D01*
D14*
X-177800Y12620D02*
X-196600Y12620D01*
X-196850Y12370D01*
D29*
X-177800Y12620D02*
X-170180Y12620D01*
X-170100Y12700D01*
D14*
X-152280Y12500D02*
X-139300Y12500D01*
X-152280Y12500D02*
X-152400Y12620D01*
D29*
X-160020Y12620D01*
X-160100Y12700D01*
D10*
X-126800Y25000D02*
X-126800Y32900D01*
X-127000Y33100D01*
X-111800Y-25000D02*
X-111800Y-43220D01*
X-111760Y-43260D01*
X-126800Y-46790D02*
X-126800Y-25000D01*
X-137000Y-56990D02*
X-137000Y-69000D01*
X-137000Y-56990D02*
X-126800Y-46790D01*
X-126000Y-69000D02*
X-137000Y-69000D01*
X-126000Y-69000D02*
X-120000Y-75000D01*
X126000Y-91000D02*
X137000Y-91000D01*
X126000Y-91000D02*
X120000Y-85000D01*
X66955Y24485D02*
X-69615Y24485D01*
X-76600Y17500D01*
X-89300Y17500D01*
X66955Y24485D02*
X77470Y13970D01*
X90170Y-28531D02*
X90170Y-48260D01*
X90170Y-28531D02*
X77470Y-15831D01*
X77470Y13970D01*
X90170Y-48260D02*
X97790Y-55880D01*
X142240Y-55880D02*
X147320Y-60960D01*
X147320Y-83820D01*
X140140Y-91000D02*
X137000Y-91000D01*
X142240Y-55880D02*
X97790Y-55880D01*
X140140Y-91000D02*
X147320Y-83820D01*
D26*
X97180Y-28680D02*
X97180Y-13000D01*
X97180Y-28680D02*
X102870Y-34370D01*
X102870Y-44370D02*
X115610Y-44370D01*
X119380Y-48140D01*
X116180Y2565D02*
X116180Y13000D01*
X123825Y-26155D02*
X119380Y-30600D01*
X123825Y-5080D02*
X116180Y2565D01*
X123825Y-5080D02*
X123825Y-26155D01*
X105410Y99570D02*
X107800Y101960D01*
X105410Y75010D02*
X109300Y71120D01*
X105410Y75010D02*
X105410Y99570D01*
X91550Y-63960D02*
X82700Y-63960D01*
X91550Y-63960D02*
X95250Y-67660D01*
X54350Y-79000D02*
X23000Y-79000D01*
X80010Y-73660D02*
X82700Y-70970D01*
X82700Y-63960D01*
X59690Y-73660D02*
X54350Y-79000D01*
X59690Y-73660D02*
X80010Y-73660D01*
D25*
X116180Y-13000D03*
X109220Y60960D03*
D26*
X109300Y61040D01*
X109300Y71120D01*
X95250Y-67660D02*
X125957Y-67660D01*
X125986Y-67689D01*
D25*
X125986Y-67689D03*
D10*
X-170180Y-60325D02*
X-170180Y-32940D01*
X-170180Y-60325D02*
X-161290Y-69215D01*
D25*
X-161290Y-69215D03*
X0Y-74295D03*
D10*
X4705Y-79000D02*
X23000Y-79000D01*
X4705Y-79000D02*
X0Y-74295D01*
D26*
X132080Y6000D02*
X132080Y16510D01*
D27*
X132080Y16510D03*
M02*
