G04 EAGLE Gerber RS-274X export*
G75*
%MOMM*%
%FSLAX34Y34*%
%LPD*%
%INEAGLE Copper Layer 15*%
%IPPOS*%
%AMOC8*
5,1,8,0,0,1.08239X$1,22.5*%
G01*
%ADD10C,1.108000*%
%ADD11C,0.604800*%
%ADD12C,1.108000*%
%ADD13C,0.654800*%

G36*
X165016Y-116695D02*
X165016Y-116695D01*
X165043Y-116696D01*
X170186Y-116407D01*
X170217Y-116400D01*
X170313Y-116389D01*
X180341Y-114100D01*
X180342Y-114100D01*
X180344Y-114100D01*
X180502Y-114044D01*
X189770Y-109581D01*
X189771Y-109580D01*
X189772Y-109580D01*
X189914Y-109490D01*
X197956Y-103077D01*
X197957Y-103076D01*
X197958Y-103075D01*
X198077Y-102956D01*
X204490Y-94914D01*
X204491Y-94913D01*
X204492Y-94912D01*
X204581Y-94770D01*
X209044Y-85502D01*
X209045Y-85501D01*
X209045Y-85500D01*
X209100Y-85341D01*
X211389Y-75313D01*
X211391Y-75281D01*
X211407Y-75186D01*
X211696Y-70043D01*
X211694Y-70026D01*
X211697Y-70000D01*
X211697Y-45095D01*
X211682Y-44998D01*
X211672Y-44901D01*
X211662Y-44878D01*
X211658Y-44852D01*
X211612Y-44766D01*
X211572Y-44677D01*
X211555Y-44657D01*
X211542Y-44634D01*
X211472Y-44567D01*
X211406Y-44496D01*
X211383Y-44483D01*
X211364Y-44465D01*
X211276Y-44424D01*
X211190Y-44377D01*
X211165Y-44372D01*
X211141Y-44361D01*
X211044Y-44351D01*
X210948Y-44333D01*
X210922Y-44337D01*
X210897Y-44334D01*
X210801Y-44355D01*
X210705Y-44369D01*
X210682Y-44381D01*
X210656Y-44387D01*
X210573Y-44436D01*
X210486Y-44481D01*
X210467Y-44499D01*
X210445Y-44513D01*
X210382Y-44587D01*
X210314Y-44656D01*
X210298Y-44685D01*
X210285Y-44700D01*
X210273Y-44730D01*
X210233Y-44803D01*
X209239Y-47202D01*
X207252Y-49189D01*
X204655Y-50265D01*
X190765Y-50265D01*
X188168Y-49189D01*
X186181Y-47202D01*
X185105Y-44605D01*
X185105Y-41795D01*
X186181Y-39198D01*
X188168Y-37211D01*
X190765Y-36135D01*
X204655Y-36135D01*
X207252Y-37211D01*
X209239Y-39198D01*
X210233Y-41597D01*
X210284Y-41680D01*
X210330Y-41766D01*
X210348Y-41784D01*
X210362Y-41806D01*
X210438Y-41868D01*
X210508Y-41935D01*
X210532Y-41946D01*
X210552Y-41963D01*
X210643Y-41998D01*
X210731Y-42039D01*
X210757Y-42041D01*
X210781Y-42051D01*
X210879Y-42055D01*
X210975Y-42066D01*
X211001Y-42060D01*
X211027Y-42061D01*
X211121Y-42034D01*
X211216Y-42013D01*
X211238Y-42000D01*
X211263Y-41993D01*
X211343Y-41937D01*
X211427Y-41887D01*
X211444Y-41867D01*
X211465Y-41852D01*
X211524Y-41774D01*
X211587Y-41700D01*
X211597Y-41676D01*
X211612Y-41655D01*
X211642Y-41563D01*
X211679Y-41472D01*
X211682Y-41440D01*
X211688Y-41421D01*
X211688Y-41388D01*
X211697Y-41305D01*
X211697Y41305D01*
X211682Y41402D01*
X211672Y41499D01*
X211662Y41522D01*
X211658Y41548D01*
X211612Y41634D01*
X211572Y41723D01*
X211555Y41743D01*
X211542Y41766D01*
X211472Y41833D01*
X211406Y41904D01*
X211383Y41917D01*
X211364Y41935D01*
X211276Y41976D01*
X211190Y42023D01*
X211165Y42028D01*
X211141Y42039D01*
X211044Y42049D01*
X210948Y42067D01*
X210922Y42063D01*
X210897Y42066D01*
X210801Y42045D01*
X210705Y42031D01*
X210682Y42019D01*
X210656Y42013D01*
X210573Y41964D01*
X210486Y41919D01*
X210467Y41901D01*
X210445Y41887D01*
X210382Y41813D01*
X210314Y41744D01*
X210298Y41715D01*
X210285Y41700D01*
X210273Y41670D01*
X210233Y41597D01*
X209239Y39198D01*
X207252Y37211D01*
X204655Y36135D01*
X190765Y36135D01*
X188168Y37211D01*
X186181Y39198D01*
X185105Y41795D01*
X185105Y44605D01*
X186181Y47202D01*
X188168Y49189D01*
X190765Y50265D01*
X204655Y50265D01*
X207252Y49189D01*
X209239Y47202D01*
X210233Y44803D01*
X210284Y44720D01*
X210330Y44634D01*
X210348Y44616D01*
X210362Y44594D01*
X210438Y44532D01*
X210508Y44465D01*
X210532Y44454D01*
X210552Y44437D01*
X210643Y44402D01*
X210731Y44361D01*
X210757Y44359D01*
X210781Y44349D01*
X210879Y44345D01*
X210975Y44334D01*
X211001Y44340D01*
X211027Y44339D01*
X211121Y44366D01*
X211216Y44387D01*
X211238Y44400D01*
X211263Y44407D01*
X211343Y44463D01*
X211427Y44513D01*
X211444Y44533D01*
X211465Y44548D01*
X211524Y44626D01*
X211587Y44700D01*
X211597Y44724D01*
X211612Y44745D01*
X211642Y44837D01*
X211679Y44928D01*
X211682Y44960D01*
X211688Y44979D01*
X211688Y45012D01*
X211697Y45095D01*
X211697Y70000D01*
X211695Y70016D01*
X211696Y70043D01*
X211407Y75186D01*
X211400Y75217D01*
X211389Y75313D01*
X209100Y85341D01*
X209100Y85342D01*
X209100Y85344D01*
X209044Y85502D01*
X204581Y94770D01*
X204580Y94771D01*
X204580Y94772D01*
X204490Y94914D01*
X198077Y102956D01*
X198076Y102957D01*
X198075Y102958D01*
X197956Y103077D01*
X189914Y109490D01*
X189913Y109491D01*
X189912Y109492D01*
X189770Y109581D01*
X180502Y114044D01*
X180501Y114045D01*
X180500Y114045D01*
X180341Y114100D01*
X177695Y114704D01*
X174360Y115466D01*
X171025Y116227D01*
X170313Y116389D01*
X170281Y116391D01*
X170186Y116407D01*
X165043Y116696D01*
X165026Y116694D01*
X165000Y116697D01*
X-150269Y116697D01*
X-150340Y116686D01*
X-150411Y116684D01*
X-150460Y116666D01*
X-150512Y116658D01*
X-150575Y116624D01*
X-150642Y116599D01*
X-150683Y116567D01*
X-150729Y116542D01*
X-150778Y116490D01*
X-150834Y116446D01*
X-150862Y116402D01*
X-150898Y116364D01*
X-150929Y116299D01*
X-150967Y116239D01*
X-150980Y116188D01*
X-151002Y116141D01*
X-151010Y116070D01*
X-151027Y116000D01*
X-151023Y115948D01*
X-151029Y115897D01*
X-151014Y115826D01*
X-151008Y115755D01*
X-150988Y115707D01*
X-150977Y115656D01*
X-150940Y115595D01*
X-150912Y115529D01*
X-150867Y115473D01*
X-150851Y115445D01*
X-150833Y115430D01*
X-150807Y115398D01*
X-150029Y114620D01*
X-148919Y111940D01*
X-148919Y109541D01*
X-148908Y109471D01*
X-148906Y109399D01*
X-148888Y109350D01*
X-148880Y109299D01*
X-148846Y109235D01*
X-148821Y109168D01*
X-148789Y109127D01*
X-148764Y109081D01*
X-148712Y109032D01*
X-148668Y108976D01*
X-148624Y108948D01*
X-148586Y108912D01*
X-148521Y108882D01*
X-148461Y108843D01*
X-148410Y108830D01*
X-148363Y108808D01*
X-148292Y108800D01*
X-148222Y108783D01*
X-148170Y108787D01*
X-148119Y108781D01*
X-148048Y108796D01*
X-147977Y108802D01*
X-147929Y108822D01*
X-147878Y108833D01*
X-147817Y108870D01*
X-147751Y108898D01*
X-147695Y108943D01*
X-147667Y108960D01*
X-147652Y108977D01*
X-147620Y109003D01*
X-145394Y111229D01*
X-141626Y111229D01*
X-138961Y108564D01*
X-138961Y104796D01*
X-141626Y102131D01*
X-145394Y102131D01*
X-148059Y104796D01*
X-148059Y107290D01*
X-148074Y107386D01*
X-148084Y107483D01*
X-148094Y107507D01*
X-148098Y107533D01*
X-148144Y107619D01*
X-148184Y107708D01*
X-148201Y107727D01*
X-148214Y107750D01*
X-148284Y107817D01*
X-148350Y107889D01*
X-148373Y107902D01*
X-148392Y107920D01*
X-148480Y107961D01*
X-148566Y108008D01*
X-148591Y108012D01*
X-148615Y108023D01*
X-148712Y108034D01*
X-148808Y108051D01*
X-148834Y108048D01*
X-148859Y108051D01*
X-148955Y108030D01*
X-149051Y108016D01*
X-149074Y108004D01*
X-149100Y107998D01*
X-149183Y107948D01*
X-149270Y107904D01*
X-149289Y107885D01*
X-149311Y107872D01*
X-149374Y107798D01*
X-149442Y107729D01*
X-149458Y107700D01*
X-149471Y107685D01*
X-149483Y107654D01*
X-149523Y107582D01*
X-150029Y106360D01*
X-152080Y104309D01*
X-152691Y104056D01*
X-152791Y103994D01*
X-152891Y103935D01*
X-152895Y103930D01*
X-152900Y103926D01*
X-152975Y103836D01*
X-153051Y103748D01*
X-153053Y103742D01*
X-153057Y103737D01*
X-153099Y103628D01*
X-153143Y103519D01*
X-153144Y103512D01*
X-153145Y103507D01*
X-153146Y103489D01*
X-153161Y103353D01*
X-153161Y97307D01*
X-153142Y97193D01*
X-153125Y97076D01*
X-153123Y97071D01*
X-153122Y97064D01*
X-153067Y96962D01*
X-153014Y96857D01*
X-153009Y96853D01*
X-153006Y96847D01*
X-152922Y96767D01*
X-152838Y96685D01*
X-152832Y96681D01*
X-152828Y96678D01*
X-152811Y96670D01*
X-152691Y96604D01*
X-152080Y96351D01*
X-150029Y94300D01*
X-148919Y91620D01*
X-148919Y88720D01*
X-150029Y86040D01*
X-152080Y83989D01*
X-152691Y83736D01*
X-152791Y83674D01*
X-152891Y83615D01*
X-152895Y83610D01*
X-152900Y83606D01*
X-152975Y83516D01*
X-153051Y83428D01*
X-153053Y83422D01*
X-153057Y83417D01*
X-153099Y83308D01*
X-153143Y83199D01*
X-153144Y83192D01*
X-153145Y83187D01*
X-153146Y83169D01*
X-153161Y83033D01*
X-153161Y26559D01*
X-153147Y26469D01*
X-153139Y26378D01*
X-153127Y26349D01*
X-153122Y26317D01*
X-153079Y26236D01*
X-153043Y26152D01*
X-153017Y26120D01*
X-153006Y26099D01*
X-152983Y26077D01*
X-152938Y26021D01*
X-151668Y24751D01*
X-151652Y24740D01*
X-151640Y24724D01*
X-151552Y24668D01*
X-151469Y24608D01*
X-151450Y24602D01*
X-151433Y24591D01*
X-151332Y24566D01*
X-151233Y24535D01*
X-151214Y24536D01*
X-151194Y24531D01*
X-151091Y24539D01*
X-150988Y24542D01*
X-150969Y24549D01*
X-150949Y24550D01*
X-150854Y24590D01*
X-150757Y24626D01*
X-150741Y24639D01*
X-150723Y24646D01*
X-150592Y24751D01*
X-149204Y26139D01*
X-145436Y26139D01*
X-142771Y23474D01*
X-142771Y19706D01*
X-145436Y17041D01*
X-149204Y17041D01*
X-150592Y18429D01*
X-150608Y18440D01*
X-150620Y18456D01*
X-150708Y18512D01*
X-150791Y18572D01*
X-150810Y18578D01*
X-150827Y18589D01*
X-150928Y18614D01*
X-151027Y18645D01*
X-151046Y18644D01*
X-151066Y18649D01*
X-151169Y18641D01*
X-151272Y18638D01*
X-151291Y18631D01*
X-151311Y18630D01*
X-151406Y18590D01*
X-151503Y18554D01*
X-151519Y18541D01*
X-151537Y18534D01*
X-151668Y18429D01*
X-152938Y17159D01*
X-152991Y17085D01*
X-153051Y17015D01*
X-153063Y16985D01*
X-153082Y16959D01*
X-153109Y16872D01*
X-153143Y16787D01*
X-153147Y16746D01*
X-153154Y16724D01*
X-153153Y16692D01*
X-153161Y16621D01*
X-153161Y7930D01*
X-153158Y7910D01*
X-153160Y7891D01*
X-153138Y7789D01*
X-153122Y7687D01*
X-153112Y7670D01*
X-153108Y7650D01*
X-153055Y7561D01*
X-153006Y7470D01*
X-152992Y7456D01*
X-152982Y7439D01*
X-152903Y7372D01*
X-152828Y7300D01*
X-152810Y7292D01*
X-152795Y7279D01*
X-152699Y7240D01*
X-152605Y7197D01*
X-152585Y7195D01*
X-152567Y7187D01*
X-152400Y7169D01*
X-150516Y7169D01*
X-147851Y4504D01*
X-147851Y736D01*
X-150516Y-1929D01*
X-152400Y-1929D01*
X-152420Y-1932D01*
X-152439Y-1930D01*
X-152541Y-1952D01*
X-152643Y-1968D01*
X-152660Y-1978D01*
X-152680Y-1982D01*
X-152769Y-2035D01*
X-152860Y-2084D01*
X-152874Y-2098D01*
X-152891Y-2108D01*
X-152958Y-2187D01*
X-153030Y-2262D01*
X-153038Y-2280D01*
X-153051Y-2295D01*
X-153090Y-2391D01*
X-153133Y-2485D01*
X-153135Y-2505D01*
X-153143Y-2523D01*
X-153161Y-2690D01*
X-153161Y-11939D01*
X-202970Y-11939D01*
X-202990Y-11942D01*
X-203009Y-11940D01*
X-203111Y-11962D01*
X-203213Y-11979D01*
X-203230Y-11988D01*
X-203250Y-11992D01*
X-203339Y-12045D01*
X-203430Y-12094D01*
X-203444Y-12108D01*
X-203461Y-12118D01*
X-203528Y-12197D01*
X-203600Y-12272D01*
X-203608Y-12290D01*
X-203621Y-12305D01*
X-203660Y-12401D01*
X-203703Y-12495D01*
X-203705Y-12515D01*
X-203713Y-12533D01*
X-203731Y-12700D01*
X-203731Y-13314D01*
X-205436Y-15019D01*
X-205448Y-15035D01*
X-205464Y-15048D01*
X-205520Y-15135D01*
X-205580Y-15219D01*
X-205586Y-15238D01*
X-205597Y-15255D01*
X-205622Y-15355D01*
X-205652Y-15454D01*
X-205652Y-15474D01*
X-205657Y-15493D01*
X-205649Y-15596D01*
X-205646Y-15700D01*
X-205639Y-15719D01*
X-205637Y-15738D01*
X-205597Y-15833D01*
X-205561Y-15931D01*
X-205549Y-15947D01*
X-205541Y-15965D01*
X-205436Y-16096D01*
X-203731Y-17801D01*
X-203731Y-21569D01*
X-205436Y-23274D01*
X-205448Y-23290D01*
X-205464Y-23303D01*
X-205520Y-23390D01*
X-205580Y-23474D01*
X-205586Y-23493D01*
X-205597Y-23510D01*
X-205622Y-23610D01*
X-205652Y-23709D01*
X-205652Y-23729D01*
X-205657Y-23748D01*
X-205649Y-23851D01*
X-205646Y-23955D01*
X-205639Y-23974D01*
X-205637Y-23993D01*
X-205597Y-24087D01*
X-205594Y-24105D01*
X-205587Y-24116D01*
X-205561Y-24186D01*
X-205549Y-24202D01*
X-205541Y-24220D01*
X-205477Y-24300D01*
X-205468Y-24316D01*
X-205458Y-24324D01*
X-205436Y-24351D01*
X-203731Y-26056D01*
X-203731Y-29824D01*
X-205436Y-31529D01*
X-205448Y-31545D01*
X-205464Y-31558D01*
X-205520Y-31645D01*
X-205580Y-31729D01*
X-205586Y-31748D01*
X-205597Y-31765D01*
X-205622Y-31865D01*
X-205652Y-31964D01*
X-205652Y-31984D01*
X-205657Y-32003D01*
X-205649Y-32106D01*
X-205646Y-32210D01*
X-205639Y-32229D01*
X-205637Y-32248D01*
X-205597Y-32343D01*
X-205561Y-32441D01*
X-205549Y-32457D01*
X-205541Y-32475D01*
X-205436Y-32606D01*
X-203731Y-34311D01*
X-203731Y-38079D01*
X-205436Y-39784D01*
X-205448Y-39800D01*
X-205464Y-39813D01*
X-205520Y-39900D01*
X-205580Y-39984D01*
X-205586Y-40003D01*
X-205597Y-40020D01*
X-205622Y-40120D01*
X-205652Y-40219D01*
X-205652Y-40239D01*
X-205657Y-40258D01*
X-205649Y-40361D01*
X-205646Y-40465D01*
X-205639Y-40484D01*
X-205637Y-40503D01*
X-205597Y-40598D01*
X-205561Y-40696D01*
X-205549Y-40712D01*
X-205541Y-40730D01*
X-205436Y-40861D01*
X-203731Y-42566D01*
X-203731Y-46334D01*
X-206396Y-48999D01*
X-210164Y-48999D01*
X-210398Y-48765D01*
X-210456Y-48723D01*
X-210508Y-48674D01*
X-210555Y-48652D01*
X-210597Y-48622D01*
X-210666Y-48601D01*
X-210731Y-48570D01*
X-210783Y-48565D01*
X-210833Y-48549D01*
X-210904Y-48551D01*
X-210975Y-48543D01*
X-211026Y-48554D01*
X-211078Y-48556D01*
X-211146Y-48580D01*
X-211216Y-48595D01*
X-211261Y-48622D01*
X-211309Y-48640D01*
X-211365Y-48685D01*
X-211427Y-48722D01*
X-211461Y-48761D01*
X-211501Y-48794D01*
X-211540Y-48854D01*
X-211587Y-48909D01*
X-211606Y-48957D01*
X-211634Y-49001D01*
X-211652Y-49070D01*
X-211679Y-49137D01*
X-211687Y-49208D01*
X-211695Y-49239D01*
X-211693Y-49262D01*
X-211697Y-49303D01*
X-211697Y-70000D01*
X-211695Y-70016D01*
X-211696Y-70043D01*
X-211407Y-75186D01*
X-211400Y-75217D01*
X-211389Y-75313D01*
X-209100Y-85341D01*
X-209100Y-85342D01*
X-209100Y-85344D01*
X-209044Y-85502D01*
X-204581Y-94770D01*
X-204580Y-94771D01*
X-204580Y-94772D01*
X-204490Y-94914D01*
X-198077Y-102956D01*
X-198076Y-102957D01*
X-198075Y-102958D01*
X-197956Y-103077D01*
X-189914Y-109490D01*
X-189913Y-109491D01*
X-189912Y-109492D01*
X-189770Y-109581D01*
X-180502Y-114044D01*
X-180501Y-114045D01*
X-180500Y-114045D01*
X-180341Y-114100D01*
X-179050Y-114395D01*
X-175715Y-115156D01*
X-172380Y-115918D01*
X-170313Y-116389D01*
X-170281Y-116391D01*
X-170186Y-116407D01*
X-165043Y-116696D01*
X-165026Y-116694D01*
X-165000Y-116697D01*
X165000Y-116697D01*
X165016Y-116695D01*
G37*
%LPC*%
G36*
X-75544Y-48999D02*
X-75544Y-48999D01*
X-78209Y-46334D01*
X-78209Y-42566D01*
X-75544Y-39901D01*
X-74105Y-39901D01*
X-74035Y-39890D01*
X-73963Y-39888D01*
X-73914Y-39870D01*
X-73863Y-39862D01*
X-73799Y-39828D01*
X-73732Y-39803D01*
X-73691Y-39771D01*
X-73645Y-39746D01*
X-73596Y-39694D01*
X-73540Y-39650D01*
X-73512Y-39606D01*
X-73476Y-39568D01*
X-73446Y-39503D01*
X-73407Y-39443D01*
X-73394Y-39392D01*
X-73372Y-39345D01*
X-73364Y-39274D01*
X-73347Y-39204D01*
X-73351Y-39152D01*
X-73345Y-39101D01*
X-73360Y-39030D01*
X-73366Y-38959D01*
X-73386Y-38911D01*
X-73397Y-38860D01*
X-73434Y-38799D01*
X-73462Y-38733D01*
X-73507Y-38677D01*
X-73524Y-38649D01*
X-73541Y-38634D01*
X-73567Y-38602D01*
X-75789Y-36380D01*
X-78176Y-30618D01*
X-78176Y-24382D01*
X-75789Y-18620D01*
X-71380Y-14211D01*
X-65618Y-11824D01*
X65618Y-11824D01*
X71380Y-14211D01*
X75789Y-18620D01*
X78176Y-24382D01*
X78176Y-30618D01*
X75789Y-36380D01*
X71380Y-40789D01*
X65618Y-43176D01*
X-65618Y-43176D01*
X-68059Y-42165D01*
X-68103Y-42154D01*
X-68145Y-42135D01*
X-68222Y-42126D01*
X-68298Y-42109D01*
X-68344Y-42113D01*
X-68389Y-42108D01*
X-68466Y-42124D01*
X-68543Y-42132D01*
X-68585Y-42150D01*
X-68630Y-42160D01*
X-68697Y-42200D01*
X-68768Y-42232D01*
X-68802Y-42263D01*
X-68841Y-42286D01*
X-68892Y-42345D01*
X-68949Y-42398D01*
X-68971Y-42438D01*
X-69001Y-42473D01*
X-69030Y-42545D01*
X-69067Y-42614D01*
X-69076Y-42659D01*
X-69093Y-42701D01*
X-69108Y-42838D01*
X-69111Y-42856D01*
X-69110Y-42861D01*
X-69111Y-42868D01*
X-69111Y-46334D01*
X-71776Y-48999D01*
X-75544Y-48999D01*
G37*
%LPD*%
%LPC*%
G36*
X149265Y-50265D02*
X149265Y-50265D01*
X146668Y-49189D01*
X144681Y-47202D01*
X143605Y-44605D01*
X143605Y-41795D01*
X144681Y-39198D01*
X146668Y-37211D01*
X149265Y-36135D01*
X159719Y-36135D01*
X159815Y-36120D01*
X159912Y-36110D01*
X159935Y-36100D01*
X159961Y-36096D01*
X160047Y-36050D01*
X160136Y-36010D01*
X160156Y-35993D01*
X160179Y-35980D01*
X160246Y-35910D01*
X160317Y-35844D01*
X160330Y-35821D01*
X160348Y-35802D01*
X160389Y-35714D01*
X160436Y-35628D01*
X160441Y-35603D01*
X160452Y-35579D01*
X160462Y-35482D01*
X160480Y-35386D01*
X160476Y-35360D01*
X160479Y-35335D01*
X160458Y-35239D01*
X160444Y-35143D01*
X160432Y-35120D01*
X160426Y-35094D01*
X160377Y-35011D01*
X160332Y-34924D01*
X160314Y-34905D01*
X160300Y-34883D01*
X160226Y-34820D01*
X160157Y-34752D01*
X160128Y-34736D01*
X160113Y-34723D01*
X160083Y-34711D01*
X160010Y-34671D01*
X157930Y-33809D01*
X156301Y-32180D01*
X155419Y-30052D01*
X155419Y-27748D01*
X156301Y-25620D01*
X157930Y-23991D01*
X160058Y-23109D01*
X162362Y-23109D01*
X164490Y-23991D01*
X166119Y-25620D01*
X167001Y-27748D01*
X167001Y-30052D01*
X166119Y-32180D01*
X164490Y-33809D01*
X162410Y-34671D01*
X162327Y-34722D01*
X162241Y-34768D01*
X162223Y-34786D01*
X162201Y-34800D01*
X162139Y-34876D01*
X162072Y-34946D01*
X162061Y-34970D01*
X162044Y-34990D01*
X162009Y-35081D01*
X161968Y-35169D01*
X161965Y-35195D01*
X161956Y-35219D01*
X161952Y-35317D01*
X161941Y-35413D01*
X161947Y-35439D01*
X161946Y-35465D01*
X161973Y-35559D01*
X161994Y-35654D01*
X162007Y-35676D01*
X162014Y-35701D01*
X162070Y-35781D01*
X162120Y-35865D01*
X162140Y-35882D01*
X162154Y-35903D01*
X162233Y-35962D01*
X162307Y-36025D01*
X162331Y-36035D01*
X162352Y-36050D01*
X162444Y-36080D01*
X162535Y-36117D01*
X162567Y-36120D01*
X162586Y-36126D01*
X162619Y-36126D01*
X162701Y-36135D01*
X163155Y-36135D01*
X165752Y-37211D01*
X167739Y-39198D01*
X168815Y-41795D01*
X168815Y-44605D01*
X167739Y-47202D01*
X165752Y-49189D01*
X163155Y-50265D01*
X149265Y-50265D01*
G37*
%LPD*%
%LPC*%
G36*
X160058Y23109D02*
X160058Y23109D01*
X157930Y23991D01*
X156301Y25620D01*
X155419Y27748D01*
X155419Y30052D01*
X156301Y32180D01*
X157930Y33809D01*
X160010Y34671D01*
X160093Y34722D01*
X160179Y34768D01*
X160197Y34786D01*
X160219Y34800D01*
X160281Y34876D01*
X160348Y34946D01*
X160359Y34970D01*
X160376Y34990D01*
X160411Y35081D01*
X160452Y35169D01*
X160455Y35195D01*
X160464Y35219D01*
X160468Y35317D01*
X160479Y35413D01*
X160473Y35439D01*
X160474Y35465D01*
X160447Y35559D01*
X160426Y35654D01*
X160413Y35676D01*
X160406Y35701D01*
X160350Y35781D01*
X160300Y35865D01*
X160280Y35882D01*
X160266Y35903D01*
X160187Y35962D01*
X160113Y36025D01*
X160089Y36035D01*
X160068Y36050D01*
X159976Y36080D01*
X159885Y36117D01*
X159853Y36120D01*
X159834Y36126D01*
X159801Y36126D01*
X159719Y36135D01*
X149265Y36135D01*
X146668Y37211D01*
X144681Y39198D01*
X143605Y41795D01*
X143605Y44605D01*
X144681Y47202D01*
X146668Y49189D01*
X149265Y50265D01*
X163155Y50265D01*
X165752Y49189D01*
X167739Y47202D01*
X168815Y44605D01*
X168815Y41795D01*
X167739Y39198D01*
X165752Y37211D01*
X163155Y36135D01*
X162701Y36135D01*
X162605Y36120D01*
X162508Y36110D01*
X162485Y36100D01*
X162459Y36096D01*
X162373Y36050D01*
X162284Y36010D01*
X162264Y35993D01*
X162241Y35980D01*
X162174Y35910D01*
X162103Y35844D01*
X162090Y35821D01*
X162072Y35802D01*
X162031Y35714D01*
X161984Y35628D01*
X161979Y35603D01*
X161968Y35579D01*
X161958Y35482D01*
X161940Y35386D01*
X161944Y35360D01*
X161941Y35335D01*
X161962Y35239D01*
X161976Y35143D01*
X161988Y35120D01*
X161994Y35094D01*
X162043Y35011D01*
X162088Y34924D01*
X162106Y34905D01*
X162120Y34883D01*
X162194Y34820D01*
X162263Y34752D01*
X162292Y34736D01*
X162307Y34723D01*
X162337Y34711D01*
X162410Y34671D01*
X164490Y33809D01*
X166119Y32180D01*
X167001Y30052D01*
X167001Y27748D01*
X166119Y25620D01*
X164490Y23991D01*
X162362Y23109D01*
X160058Y23109D01*
G37*
%LPD*%
%LPC*%
G36*
X23516Y78001D02*
X23516Y78001D01*
X20851Y80666D01*
X20851Y83701D01*
X20840Y83771D01*
X20838Y83843D01*
X20820Y83892D01*
X20812Y83943D01*
X20778Y84007D01*
X20753Y84074D01*
X20721Y84115D01*
X20696Y84161D01*
X20644Y84210D01*
X20600Y84266D01*
X20556Y84294D01*
X20518Y84330D01*
X20453Y84360D01*
X20393Y84399D01*
X20342Y84412D01*
X20295Y84434D01*
X20224Y84442D01*
X20154Y84459D01*
X20102Y84455D01*
X20051Y84461D01*
X19980Y84446D01*
X19909Y84440D01*
X19861Y84420D01*
X19810Y84409D01*
X19749Y84372D01*
X19701Y84351D01*
X15896Y84351D01*
X13231Y87016D01*
X13231Y90051D01*
X13220Y90121D01*
X13218Y90193D01*
X13200Y90242D01*
X13192Y90293D01*
X13158Y90357D01*
X13133Y90424D01*
X13101Y90465D01*
X13076Y90511D01*
X13024Y90560D01*
X12980Y90616D01*
X12936Y90644D01*
X12898Y90680D01*
X12833Y90710D01*
X12773Y90749D01*
X12722Y90762D01*
X12675Y90784D01*
X12604Y90792D01*
X12534Y90809D01*
X12482Y90805D01*
X12431Y90811D01*
X12360Y90796D01*
X12289Y90790D01*
X12241Y90770D01*
X12190Y90759D01*
X12129Y90722D01*
X12081Y90701D01*
X8276Y90701D01*
X5611Y93366D01*
X5611Y97134D01*
X8276Y99799D01*
X12044Y99799D01*
X14709Y97134D01*
X14709Y94099D01*
X14720Y94029D01*
X14722Y93957D01*
X14740Y93908D01*
X14748Y93857D01*
X14782Y93793D01*
X14807Y93726D01*
X14839Y93685D01*
X14864Y93639D01*
X14916Y93590D01*
X14960Y93534D01*
X15004Y93506D01*
X15042Y93470D01*
X15107Y93440D01*
X15167Y93401D01*
X15218Y93388D01*
X15265Y93366D01*
X15336Y93358D01*
X15406Y93341D01*
X15458Y93345D01*
X15509Y93339D01*
X15580Y93354D01*
X15651Y93360D01*
X15699Y93380D01*
X15750Y93391D01*
X15811Y93428D01*
X15859Y93449D01*
X19664Y93449D01*
X22329Y90784D01*
X22329Y87749D01*
X22340Y87679D01*
X22342Y87607D01*
X22360Y87558D01*
X22368Y87507D01*
X22402Y87443D01*
X22427Y87376D01*
X22459Y87335D01*
X22484Y87289D01*
X22536Y87240D01*
X22580Y87184D01*
X22624Y87156D01*
X22662Y87120D01*
X22727Y87090D01*
X22787Y87051D01*
X22838Y87038D01*
X22885Y87016D01*
X22956Y87008D01*
X23026Y86991D01*
X23078Y86995D01*
X23129Y86989D01*
X23200Y87004D01*
X23271Y87010D01*
X23319Y87030D01*
X23370Y87041D01*
X23431Y87078D01*
X23479Y87099D01*
X27284Y87099D01*
X29949Y84434D01*
X29949Y80666D01*
X27284Y78001D01*
X23516Y78001D01*
G37*
%LPD*%
%LPC*%
G36*
X-104754Y-60429D02*
X-104754Y-60429D01*
X-107419Y-57764D01*
X-107419Y-53996D01*
X-104761Y-51338D01*
X-104750Y-51322D01*
X-104734Y-51310D01*
X-104678Y-51222D01*
X-104618Y-51139D01*
X-104612Y-51120D01*
X-104601Y-51103D01*
X-104576Y-51002D01*
X-104545Y-50903D01*
X-104546Y-50884D01*
X-104541Y-50864D01*
X-104549Y-50761D01*
X-104552Y-50658D01*
X-104559Y-50639D01*
X-104560Y-50619D01*
X-104600Y-50524D01*
X-104636Y-50427D01*
X-104649Y-50411D01*
X-104656Y-50393D01*
X-104761Y-50262D01*
X-107419Y-47604D01*
X-107419Y-43836D01*
X-106003Y-42420D01*
X-105961Y-42362D01*
X-105912Y-42310D01*
X-105890Y-42262D01*
X-105859Y-42220D01*
X-105838Y-42152D01*
X-105808Y-42087D01*
X-105802Y-42035D01*
X-105787Y-41985D01*
X-105789Y-41913D01*
X-105781Y-41842D01*
X-105792Y-41791D01*
X-105793Y-41739D01*
X-105818Y-41672D01*
X-105833Y-41602D01*
X-105860Y-41557D01*
X-105878Y-41508D01*
X-105923Y-41452D01*
X-105959Y-41391D01*
X-105999Y-41357D01*
X-106031Y-41316D01*
X-106092Y-41277D01*
X-106146Y-41231D01*
X-106195Y-41211D01*
X-106238Y-41183D01*
X-106308Y-41166D01*
X-106374Y-41139D01*
X-106446Y-41131D01*
X-106477Y-41123D01*
X-106500Y-41125D01*
X-106541Y-41120D01*
X-107036Y-41120D01*
X-109700Y-38456D01*
X-109700Y-34687D01*
X-107036Y-32023D01*
X-103267Y-32023D01*
X-100603Y-34687D01*
X-100603Y-38456D01*
X-102019Y-39872D01*
X-102061Y-39930D01*
X-102110Y-39982D01*
X-102132Y-40029D01*
X-102162Y-40071D01*
X-102183Y-40140D01*
X-102214Y-40205D01*
X-102219Y-40257D01*
X-102235Y-40307D01*
X-102233Y-40378D01*
X-102241Y-40449D01*
X-102230Y-40500D01*
X-102228Y-40552D01*
X-102204Y-40620D01*
X-102189Y-40690D01*
X-102162Y-40735D01*
X-102144Y-40783D01*
X-102099Y-40839D01*
X-102062Y-40901D01*
X-102023Y-40935D01*
X-101990Y-40975D01*
X-101930Y-41014D01*
X-101875Y-41061D01*
X-101827Y-41080D01*
X-101783Y-41108D01*
X-101714Y-41126D01*
X-101647Y-41153D01*
X-101576Y-41161D01*
X-101545Y-41169D01*
X-101522Y-41167D01*
X-101481Y-41171D01*
X-100986Y-41171D01*
X-98321Y-43836D01*
X-98321Y-47604D01*
X-100979Y-50262D01*
X-100990Y-50278D01*
X-101006Y-50290D01*
X-101062Y-50378D01*
X-101122Y-50461D01*
X-101128Y-50480D01*
X-101139Y-50497D01*
X-101164Y-50598D01*
X-101195Y-50697D01*
X-101194Y-50716D01*
X-101199Y-50736D01*
X-101191Y-50839D01*
X-101188Y-50942D01*
X-101181Y-50961D01*
X-101180Y-50981D01*
X-101140Y-51076D01*
X-101104Y-51173D01*
X-101091Y-51189D01*
X-101084Y-51207D01*
X-100979Y-51338D01*
X-98321Y-53996D01*
X-98321Y-57764D01*
X-100986Y-60429D01*
X-104754Y-60429D01*
G37*
%LPD*%
%LPC*%
G36*
X-51500Y-7541D02*
X-51500Y-7541D01*
X-54272Y-6393D01*
X-56393Y-4272D01*
X-57541Y-1500D01*
X-57541Y1500D01*
X-56393Y4272D01*
X-54272Y6393D01*
X-51500Y7541D01*
X-48500Y7541D01*
X-45728Y6393D01*
X-43607Y4272D01*
X-42459Y1500D01*
X-42459Y-1500D01*
X-43607Y-4272D01*
X-45728Y-6393D01*
X-48500Y-7541D01*
X-51500Y-7541D01*
G37*
%LPD*%
%LPC*%
G36*
X48500Y-7541D02*
X48500Y-7541D01*
X45728Y-6393D01*
X43607Y-4272D01*
X42459Y-1500D01*
X42459Y1500D01*
X43607Y4272D01*
X45728Y6393D01*
X48500Y7541D01*
X51500Y7541D01*
X54272Y6393D01*
X56393Y4272D01*
X57541Y1500D01*
X57541Y-1500D01*
X56393Y-4272D01*
X54272Y-6393D01*
X51500Y-7541D01*
X48500Y-7541D01*
G37*
%LPD*%
%LPC*%
G36*
X-106860Y93039D02*
X-106860Y93039D01*
X-109540Y94149D01*
X-111591Y96200D01*
X-112701Y98880D01*
X-112701Y101780D01*
X-111591Y104460D01*
X-109540Y106511D01*
X-106860Y107621D01*
X-103960Y107621D01*
X-101280Y106511D01*
X-99229Y104460D01*
X-98119Y101780D01*
X-98119Y98880D01*
X-99229Y96200D01*
X-101280Y94149D01*
X-103960Y93039D01*
X-106860Y93039D01*
G37*
%LPD*%
%LPC*%
G36*
X-102878Y31011D02*
X-102878Y31011D01*
X-105543Y33676D01*
X-105543Y37444D01*
X-102878Y40109D01*
X-99110Y40109D01*
X-96755Y37754D01*
X-96739Y37743D01*
X-96727Y37727D01*
X-96639Y37671D01*
X-96556Y37611D01*
X-96537Y37605D01*
X-96520Y37594D01*
X-96419Y37569D01*
X-96320Y37538D01*
X-96301Y37539D01*
X-96281Y37534D01*
X-96178Y37542D01*
X-96075Y37545D01*
X-96056Y37552D01*
X-96036Y37553D01*
X-95941Y37593D01*
X-95844Y37629D01*
X-95828Y37642D01*
X-95810Y37649D01*
X-95679Y37754D01*
X-93324Y40109D01*
X-89556Y40109D01*
X-86891Y37444D01*
X-86891Y33676D01*
X-89556Y31011D01*
X-93324Y31011D01*
X-95679Y33366D01*
X-95695Y33377D01*
X-95707Y33393D01*
X-95795Y33449D01*
X-95878Y33509D01*
X-95897Y33515D01*
X-95914Y33526D01*
X-96015Y33551D01*
X-96114Y33582D01*
X-96133Y33581D01*
X-96153Y33586D01*
X-96256Y33578D01*
X-96359Y33575D01*
X-96378Y33568D01*
X-96398Y33567D01*
X-96493Y33527D01*
X-96590Y33491D01*
X-96606Y33478D01*
X-96624Y33471D01*
X-96755Y33366D01*
X-99110Y31011D01*
X-102878Y31011D01*
G37*
%LPD*%
%LPC*%
G36*
X103526Y46251D02*
X103526Y46251D01*
X100861Y48916D01*
X100861Y52684D01*
X103526Y55349D01*
X106561Y55349D01*
X106631Y55360D01*
X106703Y55362D01*
X106752Y55380D01*
X106803Y55388D01*
X106867Y55422D01*
X106934Y55447D01*
X106975Y55479D01*
X107021Y55504D01*
X107070Y55556D01*
X107126Y55600D01*
X107154Y55644D01*
X107190Y55682D01*
X107220Y55747D01*
X107259Y55807D01*
X107272Y55858D01*
X107294Y55905D01*
X107302Y55976D01*
X107319Y56046D01*
X107315Y56098D01*
X107321Y56149D01*
X107306Y56220D01*
X107300Y56291D01*
X107280Y56339D01*
X107269Y56390D01*
X107232Y56451D01*
X107204Y56517D01*
X107159Y56573D01*
X107142Y56601D01*
X107125Y56616D01*
X107099Y56648D01*
X104671Y59076D01*
X104671Y62844D01*
X107336Y65509D01*
X111104Y65509D01*
X113769Y62844D01*
X113769Y59076D01*
X111104Y56411D01*
X108069Y56411D01*
X107999Y56400D01*
X107927Y56398D01*
X107878Y56380D01*
X107827Y56372D01*
X107763Y56338D01*
X107696Y56313D01*
X107655Y56281D01*
X107609Y56256D01*
X107560Y56204D01*
X107504Y56160D01*
X107476Y56116D01*
X107440Y56078D01*
X107410Y56013D01*
X107371Y55953D01*
X107358Y55902D01*
X107336Y55855D01*
X107328Y55784D01*
X107311Y55714D01*
X107315Y55662D01*
X107309Y55611D01*
X107324Y55540D01*
X107330Y55469D01*
X107350Y55421D01*
X107361Y55370D01*
X107398Y55309D01*
X107426Y55243D01*
X107471Y55187D01*
X107488Y55159D01*
X107505Y55144D01*
X107531Y55112D01*
X109959Y52684D01*
X109959Y48916D01*
X107294Y46251D01*
X103526Y46251D01*
G37*
%LPD*%
%LPC*%
G36*
X-47604Y47521D02*
X-47604Y47521D01*
X-50269Y50186D01*
X-50269Y53954D01*
X-47604Y56619D01*
X-44680Y56619D01*
X-44660Y56622D01*
X-44641Y56620D01*
X-44539Y56642D01*
X-44437Y56658D01*
X-44420Y56668D01*
X-44400Y56672D01*
X-44311Y56725D01*
X-44220Y56774D01*
X-44206Y56788D01*
X-44189Y56798D01*
X-44122Y56877D01*
X-44050Y56952D01*
X-44042Y56970D01*
X-44029Y56985D01*
X-43990Y57081D01*
X-43947Y57175D01*
X-43945Y57195D01*
X-43937Y57213D01*
X-43919Y57380D01*
X-43919Y60304D01*
X-41254Y62969D01*
X-37486Y62969D01*
X-34821Y60304D01*
X-34821Y56536D01*
X-37486Y53871D01*
X-40410Y53871D01*
X-40430Y53868D01*
X-40449Y53870D01*
X-40551Y53848D01*
X-40653Y53832D01*
X-40670Y53822D01*
X-40690Y53818D01*
X-40779Y53765D01*
X-40870Y53716D01*
X-40884Y53702D01*
X-40901Y53692D01*
X-40968Y53613D01*
X-41040Y53538D01*
X-41048Y53520D01*
X-41061Y53505D01*
X-41100Y53409D01*
X-41143Y53315D01*
X-41145Y53295D01*
X-41153Y53277D01*
X-41171Y53110D01*
X-41171Y50186D01*
X-43836Y47521D01*
X-47604Y47521D01*
G37*
%LPD*%
%LPC*%
G36*
X-33634Y61491D02*
X-33634Y61491D01*
X-36299Y64156D01*
X-36299Y67924D01*
X-33634Y70589D01*
X-30710Y70589D01*
X-30690Y70592D01*
X-30671Y70590D01*
X-30569Y70612D01*
X-30467Y70628D01*
X-30450Y70638D01*
X-30430Y70642D01*
X-30341Y70695D01*
X-30250Y70744D01*
X-30236Y70758D01*
X-30219Y70768D01*
X-30152Y70847D01*
X-30080Y70922D01*
X-30072Y70940D01*
X-30059Y70955D01*
X-30020Y71051D01*
X-29977Y71145D01*
X-29975Y71165D01*
X-29967Y71183D01*
X-29949Y71350D01*
X-29949Y74274D01*
X-27284Y76939D01*
X-23516Y76939D01*
X-20851Y74274D01*
X-20851Y70506D01*
X-23516Y67841D01*
X-26440Y67841D01*
X-26460Y67838D01*
X-26479Y67840D01*
X-26581Y67818D01*
X-26683Y67802D01*
X-26700Y67792D01*
X-26720Y67788D01*
X-26809Y67735D01*
X-26900Y67686D01*
X-26914Y67672D01*
X-26931Y67662D01*
X-26998Y67583D01*
X-27070Y67508D01*
X-27078Y67490D01*
X-27091Y67475D01*
X-27130Y67379D01*
X-27173Y67285D01*
X-27175Y67265D01*
X-27183Y67247D01*
X-27201Y67080D01*
X-27201Y64156D01*
X-29866Y61491D01*
X-33634Y61491D01*
G37*
%LPD*%
%LPC*%
G36*
X-128884Y38551D02*
X-128884Y38551D01*
X-130947Y40614D01*
X-130963Y40625D01*
X-130975Y40641D01*
X-131063Y40697D01*
X-131146Y40757D01*
X-131165Y40763D01*
X-131182Y40774D01*
X-131283Y40799D01*
X-131382Y40830D01*
X-131401Y40829D01*
X-131421Y40834D01*
X-131524Y40826D01*
X-131627Y40823D01*
X-131646Y40816D01*
X-131666Y40815D01*
X-131761Y40775D01*
X-131858Y40739D01*
X-131874Y40726D01*
X-131892Y40719D01*
X-132023Y40614D01*
X-134006Y38631D01*
X-137774Y38631D01*
X-140439Y41296D01*
X-140439Y45064D01*
X-137774Y47729D01*
X-134006Y47729D01*
X-131943Y45666D01*
X-131927Y45655D01*
X-131915Y45639D01*
X-131850Y45598D01*
X-131806Y45559D01*
X-131781Y45549D01*
X-131744Y45523D01*
X-131725Y45517D01*
X-131708Y45506D01*
X-131615Y45483D01*
X-131578Y45467D01*
X-131557Y45465D01*
X-131508Y45450D01*
X-131489Y45451D01*
X-131469Y45446D01*
X-131419Y45450D01*
X-131411Y45449D01*
X-131399Y45449D01*
X-131372Y45454D01*
X-131366Y45454D01*
X-131263Y45457D01*
X-131244Y45464D01*
X-131224Y45465D01*
X-131176Y45486D01*
X-131156Y45489D01*
X-131116Y45510D01*
X-131032Y45541D01*
X-131016Y45554D01*
X-130998Y45561D01*
X-130955Y45595D01*
X-130939Y45604D01*
X-130921Y45622D01*
X-130867Y45666D01*
X-128884Y47649D01*
X-125116Y47649D01*
X-122451Y44984D01*
X-122451Y41216D01*
X-125116Y38551D01*
X-128884Y38551D01*
G37*
%LPD*%
%LPC*%
G36*
X130092Y11711D02*
X130092Y11711D01*
X127281Y14522D01*
X127281Y18498D01*
X130092Y21309D01*
X134068Y21309D01*
X136879Y18498D01*
X136879Y14522D01*
X134068Y11711D01*
X130092Y11711D01*
G37*
%LPD*%
%LPC*%
G36*
X142792Y100912D02*
X142792Y100912D01*
X139981Y103723D01*
X139981Y107699D01*
X142792Y110510D01*
X146768Y110510D01*
X149579Y107699D01*
X149579Y103723D01*
X146768Y100912D01*
X142792Y100912D01*
G37*
%LPD*%
%LPC*%
G36*
X-120944Y57821D02*
X-120944Y57821D01*
X-123609Y60486D01*
X-123609Y64254D01*
X-120944Y66919D01*
X-117176Y66919D01*
X-114511Y64254D01*
X-114511Y60486D01*
X-117176Y57821D01*
X-120944Y57821D01*
G37*
%LPD*%
%LPC*%
G36*
X37486Y56411D02*
X37486Y56411D01*
X34821Y59076D01*
X34821Y62844D01*
X37486Y65509D01*
X41254Y65509D01*
X43919Y62844D01*
X43919Y59076D01*
X41254Y56411D01*
X37486Y56411D01*
G37*
%LPD*%
%LPC*%
G36*
X29866Y67841D02*
X29866Y67841D01*
X27201Y70506D01*
X27201Y74274D01*
X29866Y76939D01*
X33634Y76939D01*
X36299Y74274D01*
X36299Y70506D01*
X33634Y67841D01*
X29866Y67841D01*
G37*
%LPD*%
%LPC*%
G36*
X43836Y43711D02*
X43836Y43711D01*
X41171Y46376D01*
X41171Y50144D01*
X43836Y52809D01*
X47604Y52809D01*
X50269Y50144D01*
X50269Y46376D01*
X47604Y43711D01*
X43836Y43711D01*
G37*
%LPD*%
%LPC*%
G36*
X57806Y-99799D02*
X57806Y-99799D01*
X55141Y-97134D01*
X55141Y-93366D01*
X57806Y-90701D01*
X61574Y-90701D01*
X64239Y-93366D01*
X64239Y-97134D01*
X61574Y-99799D01*
X57806Y-99799D01*
G37*
%LPD*%
%LPC*%
G36*
X-133638Y72921D02*
X-133638Y72921D01*
X-136303Y75586D01*
X-136303Y79354D01*
X-133638Y82019D01*
X-129870Y82019D01*
X-127205Y79354D01*
X-127205Y75586D01*
X-129870Y72921D01*
X-133638Y72921D01*
G37*
%LPD*%
%LPC*%
G36*
X142896Y75160D02*
X142896Y75160D01*
X140231Y77825D01*
X140231Y81593D01*
X142896Y84258D01*
X146664Y84258D01*
X149329Y81593D01*
X149329Y77825D01*
X146664Y75160D01*
X142896Y75160D01*
G37*
%LPD*%
%LPC*%
G36*
X-144444Y75321D02*
X-144444Y75321D01*
X-147109Y77986D01*
X-147109Y81754D01*
X-144444Y84419D01*
X-140676Y84419D01*
X-138011Y81754D01*
X-138011Y77986D01*
X-140676Y75321D01*
X-144444Y75321D01*
G37*
%LPD*%
%LPC*%
G36*
X-64696Y13813D02*
X-64696Y13813D01*
X-67361Y16478D01*
X-67361Y20246D01*
X-64696Y22911D01*
X-60928Y22911D01*
X-58263Y20246D01*
X-58263Y16478D01*
X-60928Y13813D01*
X-64696Y13813D01*
G37*
%LPD*%
%LPC*%
G36*
X-12044Y78001D02*
X-12044Y78001D01*
X-14709Y80666D01*
X-14709Y84434D01*
X-12044Y87099D01*
X-8276Y87099D01*
X-5611Y84434D01*
X-5611Y80666D01*
X-8276Y78001D01*
X-12044Y78001D01*
G37*
%LPD*%
%LPC*%
G36*
X-103484Y8151D02*
X-103484Y8151D01*
X-106149Y10816D01*
X-106149Y14584D01*
X-103484Y17249D01*
X-99716Y17249D01*
X-97051Y14584D01*
X-97051Y10816D01*
X-99716Y8151D01*
X-103484Y8151D01*
G37*
%LPD*%
%LPC*%
G36*
X-128884Y8151D02*
X-128884Y8151D01*
X-131549Y10816D01*
X-131549Y14584D01*
X-128884Y17249D01*
X-125116Y17249D01*
X-122451Y14584D01*
X-122451Y10816D01*
X-125116Y8151D01*
X-128884Y8151D01*
G37*
%LPD*%
%LPC*%
G36*
X-116184Y8151D02*
X-116184Y8151D01*
X-118849Y10816D01*
X-118849Y14584D01*
X-116184Y17249D01*
X-112416Y17249D01*
X-109751Y14584D01*
X-109751Y10816D01*
X-112416Y8151D01*
X-116184Y8151D01*
G37*
%LPD*%
%LPC*%
G36*
X112416Y78911D02*
X112416Y78911D01*
X109751Y81576D01*
X109751Y85344D01*
X112416Y88009D01*
X116184Y88009D01*
X118849Y85344D01*
X118849Y81576D01*
X116184Y78911D01*
X112416Y78911D01*
G37*
%LPD*%
%LPC*%
G36*
X-96712Y84424D02*
X-96712Y84424D01*
X-99376Y87088D01*
X-99376Y90857D01*
X-96712Y93521D01*
X-92943Y93521D01*
X-90279Y90857D01*
X-90279Y87088D01*
X-92943Y84424D01*
X-96712Y84424D01*
G37*
%LPD*%
%LPC*%
G36*
X93366Y-95533D02*
X93366Y-95533D01*
X90701Y-92868D01*
X90701Y-89100D01*
X93366Y-86435D01*
X97134Y-86435D01*
X99799Y-89100D01*
X99799Y-92868D01*
X97134Y-95533D01*
X93366Y-95533D01*
G37*
%LPD*%
%LPC*%
G36*
X-57684Y-93449D02*
X-57684Y-93449D01*
X-60349Y-90784D01*
X-60349Y-87016D01*
X-57684Y-84351D01*
X-53916Y-84351D01*
X-51251Y-87016D01*
X-51251Y-90784D01*
X-53916Y-93449D01*
X-57684Y-93449D01*
G37*
%LPD*%
%LPC*%
G36*
X-112374Y-89639D02*
X-112374Y-89639D01*
X-115039Y-86974D01*
X-115039Y-83206D01*
X-112374Y-80541D01*
X-108606Y-80541D01*
X-105941Y-83206D01*
X-105941Y-86974D01*
X-108606Y-89639D01*
X-112374Y-89639D01*
G37*
%LPD*%
%LPC*%
G36*
X-116184Y-17249D02*
X-116184Y-17249D01*
X-118849Y-14584D01*
X-118849Y-10816D01*
X-116184Y-8151D01*
X-112416Y-8151D01*
X-109751Y-10816D01*
X-109751Y-14584D01*
X-112416Y-17249D01*
X-116184Y-17249D01*
G37*
%LPD*%
%LPC*%
G36*
X-103484Y-17249D02*
X-103484Y-17249D01*
X-106149Y-14584D01*
X-106149Y-10816D01*
X-103484Y-8151D01*
X-99716Y-8151D01*
X-97051Y-10816D01*
X-97051Y-14584D01*
X-99716Y-17249D01*
X-103484Y-17249D01*
G37*
%LPD*%
%LPC*%
G36*
X-128884Y-17249D02*
X-128884Y-17249D01*
X-131549Y-14584D01*
X-131549Y-10816D01*
X-128884Y-8151D01*
X-125116Y-8151D01*
X-122451Y-10816D01*
X-122451Y-14584D01*
X-125116Y-17249D01*
X-128884Y-17249D01*
G37*
%LPD*%
%LPC*%
G36*
X114296Y-17549D02*
X114296Y-17549D01*
X111631Y-14884D01*
X111631Y-11116D01*
X114296Y-8451D01*
X118064Y-8451D01*
X120729Y-11116D01*
X120729Y-14884D01*
X118064Y-17549D01*
X114296Y-17549D01*
G37*
%LPD*%
%LPC*%
G36*
X83206Y-18519D02*
X83206Y-18519D01*
X80541Y-15854D01*
X80541Y-12086D01*
X83206Y-9421D01*
X86974Y-9421D01*
X89639Y-12086D01*
X89639Y-15854D01*
X86974Y-18519D01*
X83206Y-18519D01*
G37*
%LPD*%
%LPC*%
G36*
X-119994Y89431D02*
X-119994Y89431D01*
X-122659Y92096D01*
X-122659Y95864D01*
X-119994Y98529D01*
X-116226Y98529D01*
X-113561Y95864D01*
X-113561Y92096D01*
X-116226Y89431D01*
X-119994Y89431D01*
G37*
%LPD*%
%LPC*%
G36*
X-132694Y102131D02*
X-132694Y102131D01*
X-135359Y104796D01*
X-135359Y108564D01*
X-132694Y111229D01*
X-128926Y111229D01*
X-126261Y108564D01*
X-126261Y104796D01*
X-128926Y102131D01*
X-132694Y102131D01*
G37*
%LPD*%
%LPC*%
G36*
X-135618Y-38839D02*
X-135618Y-38839D01*
X-138283Y-36174D01*
X-138283Y-32406D01*
X-135618Y-29741D01*
X-131850Y-29741D01*
X-129185Y-32406D01*
X-129185Y-36174D01*
X-131850Y-38839D01*
X-135618Y-38839D01*
G37*
%LPD*%
%LPC*%
G36*
X-119994Y102131D02*
X-119994Y102131D01*
X-122659Y104796D01*
X-122659Y108564D01*
X-119994Y111229D01*
X-116226Y111229D01*
X-113561Y108564D01*
X-113561Y104796D01*
X-116226Y102131D01*
X-119994Y102131D01*
G37*
%LPD*%
%LPC*%
G36*
X-161904Y-46459D02*
X-161904Y-46459D01*
X-164569Y-43794D01*
X-164569Y-40026D01*
X-161904Y-37361D01*
X-158136Y-37361D01*
X-155471Y-40026D01*
X-155471Y-43794D01*
X-158136Y-46459D01*
X-161904Y-46459D01*
G37*
%LPD*%
%LPC*%
G36*
X68601Y-54079D02*
X68601Y-54079D01*
X65936Y-51414D01*
X65936Y-47646D01*
X68601Y-44981D01*
X72369Y-44981D01*
X75034Y-47646D01*
X75034Y-51414D01*
X72369Y-54079D01*
X68601Y-54079D01*
G37*
%LPD*%
%LPC*%
G36*
X124102Y-72238D02*
X124102Y-72238D01*
X121437Y-69573D01*
X121437Y-65805D01*
X124102Y-63140D01*
X127870Y-63140D01*
X130535Y-65805D01*
X130535Y-69573D01*
X127870Y-72238D01*
X124102Y-72238D01*
G37*
%LPD*%
%LPC*%
G36*
X-163174Y-73764D02*
X-163174Y-73764D01*
X-165839Y-71099D01*
X-165839Y-67331D01*
X-163174Y-64666D01*
X-159406Y-64666D01*
X-156741Y-67331D01*
X-156741Y-71099D01*
X-159406Y-73764D01*
X-163174Y-73764D01*
G37*
%LPD*%
%LPC*%
G36*
X-58684Y-80749D02*
X-58684Y-80749D01*
X-61349Y-78084D01*
X-61349Y-74316D01*
X-58684Y-71651D01*
X-54916Y-71651D01*
X-52251Y-74316D01*
X-52251Y-78084D01*
X-54916Y-80749D01*
X-58684Y-80749D01*
G37*
%LPD*%
%LPC*%
G36*
X-5694Y42441D02*
X-5694Y42441D01*
X-8359Y45106D01*
X-8359Y48874D01*
X-5694Y51539D01*
X-1926Y51539D01*
X739Y48874D01*
X739Y45106D01*
X-1926Y42441D01*
X-5694Y42441D01*
G37*
%LPD*%
%LPC*%
G36*
X-1884Y-78844D02*
X-1884Y-78844D01*
X-4549Y-76179D01*
X-4549Y-72411D01*
X-1884Y-69746D01*
X1884Y-69746D01*
X4549Y-72411D01*
X4549Y-76179D01*
X1884Y-78844D01*
X-1884Y-78844D01*
G37*
%LPD*%
%LPC*%
G36*
X-103484Y-4549D02*
X-103484Y-4549D01*
X-106149Y-1884D01*
X-106149Y1884D01*
X-103484Y4549D01*
X-99716Y4549D01*
X-97051Y1884D01*
X-97051Y-1884D01*
X-99716Y-4549D01*
X-103484Y-4549D01*
G37*
%LPD*%
%LPC*%
G36*
X-116184Y-4549D02*
X-116184Y-4549D01*
X-118849Y-1884D01*
X-118849Y1884D01*
X-116184Y4549D01*
X-112416Y4549D01*
X-109751Y1884D01*
X-109751Y-1884D01*
X-112416Y-4549D01*
X-116184Y-4549D01*
G37*
%LPD*%
%LPC*%
G36*
X-128884Y-4549D02*
X-128884Y-4549D01*
X-131549Y-1884D01*
X-131549Y1884D01*
X-128884Y4549D01*
X-125116Y4549D01*
X-122451Y1884D01*
X-122451Y-1884D01*
X-125116Y-4549D01*
X-128884Y-4549D01*
G37*
%LPD*%
D10*
X156210Y-43200D03*
X156210Y43200D03*
X197710Y43200D03*
X197710Y-43200D03*
D11*
X-119060Y62370D03*
X-127000Y43100D03*
X-142560Y79870D03*
X-114300Y0D03*
X-160020Y-41910D03*
X-102870Y-55880D03*
X-110490Y-85090D03*
X-73660Y-44450D03*
X-56800Y-76200D03*
X95250Y-90984D03*
X59690Y-95250D03*
X70485Y-49530D03*
X85090Y-13970D03*
X105410Y50800D03*
X-3810Y46990D03*
X-177800Y2620D03*
X-118110Y106680D03*
X-94828Y88972D03*
X-55800Y-88900D03*
D12*
X150670Y-43200D02*
X156210Y-43200D01*
X161750Y-43200D01*
X156210Y43200D02*
X150670Y43200D01*
X156210Y43200D02*
X161750Y43200D01*
X192170Y-43200D02*
X197710Y-43200D01*
X203250Y-43200D01*
X197710Y43200D02*
X192170Y43200D01*
X197710Y43200D02*
X203250Y43200D01*
D11*
X-162560Y21590D03*
X-154940Y21590D03*
X-170180Y21590D03*
X-147320Y21590D03*
X-170180Y29210D03*
X-170180Y36830D03*
X-170180Y44450D03*
X-170180Y52070D03*
X-170180Y59690D03*
X-170180Y67310D03*
X-170180Y74930D03*
X-170180Y82550D03*
X-170180Y90170D03*
X-170180Y97790D03*
X-170180Y105410D03*
X-170180Y113030D03*
X-185420Y-3175D03*
X-193040Y-3175D03*
X-200660Y-3175D03*
X-208280Y-3175D03*
X-208280Y-11430D03*
X-208280Y-19685D03*
X-208280Y-27940D03*
X-208280Y-36195D03*
X-208280Y-44450D03*
X-168910Y2540D03*
X-161290Y2540D03*
X-152400Y2620D03*
X-114300Y12700D03*
X-101600Y12700D03*
X-101600Y0D03*
X-101600Y-12700D03*
X-114300Y-12700D03*
X-127000Y-12700D03*
X-127000Y0D03*
X-127000Y12700D03*
D13*
X144780Y105711D03*
D11*
X-125095Y-54610D03*
X-118703Y38100D03*
X-82550Y-30830D03*
X-148590Y-21940D03*
X-183000Y-91000D03*
X-139700Y25400D03*
X-71120Y110490D03*
X-170180Y-12700D03*
X-67310Y46990D03*
X163195Y-57785D03*
X82550Y-104140D03*
X93980Y110490D03*
X-17780Y50800D03*
X3814Y50804D03*
X-143510Y93980D03*
X-91440Y35560D03*
X-130810Y106680D03*
X-100994Y35560D03*
X-143510Y106680D03*
X-102870Y-45720D03*
X-118110Y93980D03*
X-131754Y77470D03*
X-135890Y43180D03*
X144780Y79709D03*
X114300Y83460D03*
X17780Y88900D03*
X-133734Y-34290D03*
X25400Y82550D03*
X-105152Y-36572D03*
X-45720Y52070D03*
X-39370Y58420D03*
X-31750Y66040D03*
X-25400Y72390D03*
X-10160Y82550D03*
X31750Y72390D03*
X39370Y60960D03*
X45720Y48260D03*
X10160Y95250D03*
X-62812Y18362D03*
X116180Y-13000D03*
X109220Y60960D03*
X125986Y-67689D03*
X-161290Y-69215D03*
X0Y-74295D03*
D13*
X132080Y16510D03*
M02*
