G04 EAGLE Gerber RS-274X export*
G75*
%MOMM*%
%FSLAX34Y34*%
%LPD*%
%IN*%
%IPPOS*%
%AMOC8*
5,1,8,0,0,1.08239X$1,22.5*%
G01*
%ADD10C,0.254000*%


D10*
X-215000Y-70000D02*
X-214810Y-74358D01*
X-214240Y-78682D01*
X-213296Y-82941D01*
X-211985Y-87101D01*
X-210315Y-91131D01*
X-208301Y-95000D01*
X-205958Y-98679D01*
X-203302Y-102139D01*
X-200355Y-105355D01*
X-197139Y-108302D01*
X-193679Y-110958D01*
X-190000Y-113301D01*
X-186131Y-115315D01*
X-182101Y-116985D01*
X-177941Y-118296D01*
X-173682Y-119240D01*
X-169358Y-119810D01*
X-165000Y-120000D01*
X165000Y-120000D01*
X169358Y-119810D01*
X173682Y-119240D01*
X177941Y-118296D01*
X182101Y-116985D01*
X186131Y-115315D01*
X190000Y-113301D01*
X193679Y-110958D01*
X197139Y-108302D01*
X200355Y-105355D01*
X203302Y-102139D01*
X205958Y-98679D01*
X208301Y-95000D01*
X210315Y-91131D01*
X211985Y-87101D01*
X213296Y-82941D01*
X214240Y-78682D01*
X214810Y-74358D01*
X215000Y-70000D01*
X215000Y70000D01*
X214810Y74358D01*
X214240Y78682D01*
X213296Y82941D01*
X211985Y87101D01*
X210315Y91131D01*
X208301Y95000D01*
X205958Y98679D01*
X203302Y102139D01*
X200355Y105355D01*
X197139Y108302D01*
X193679Y110958D01*
X190000Y113301D01*
X186131Y115315D01*
X182101Y116985D01*
X177941Y118296D01*
X173682Y119240D01*
X169358Y119810D01*
X165000Y120000D01*
X-165000Y120000D01*
X-169358Y119810D01*
X-173682Y119240D01*
X-177941Y118296D01*
X-182101Y116985D01*
X-186131Y115315D01*
X-190000Y113301D01*
X-193679Y110958D01*
X-197139Y108302D01*
X-200355Y105355D01*
X-203302Y102139D01*
X-205958Y98679D01*
X-208301Y95000D01*
X-210315Y91131D01*
X-211985Y87101D01*
X-213296Y82941D01*
X-214240Y78682D01*
X-214810Y74358D01*
X-215000Y70000D01*
X-215000Y-70000D01*
X190710Y43200D02*
X190721Y42939D01*
X190756Y42679D01*
X190812Y42424D01*
X190891Y42174D01*
X190991Y41932D01*
X191112Y41700D01*
X191253Y41479D01*
X191412Y41272D01*
X191589Y41079D01*
X191782Y40902D01*
X191989Y40743D01*
X192210Y40602D01*
X192442Y40481D01*
X192684Y40381D01*
X192934Y40302D01*
X193189Y40246D01*
X193449Y40211D01*
X193710Y40200D01*
X201710Y40200D01*
X201971Y40211D01*
X202231Y40246D01*
X202486Y40302D01*
X202736Y40381D01*
X202978Y40481D01*
X203210Y40602D01*
X203431Y40743D01*
X203638Y40902D01*
X203831Y41079D01*
X204008Y41272D01*
X204167Y41479D01*
X204308Y41700D01*
X204429Y41932D01*
X204529Y42174D01*
X204608Y42424D01*
X204664Y42679D01*
X204699Y42939D01*
X204710Y43200D01*
X204699Y43461D01*
X204664Y43721D01*
X204608Y43976D01*
X204529Y44226D01*
X204429Y44468D01*
X204308Y44700D01*
X204167Y44921D01*
X204008Y45128D01*
X203831Y45321D01*
X203638Y45498D01*
X203431Y45657D01*
X203210Y45798D01*
X202978Y45919D01*
X202736Y46019D01*
X202486Y46098D01*
X202231Y46154D01*
X201971Y46189D01*
X201710Y46200D01*
X193710Y46200D01*
X193449Y46189D01*
X193189Y46154D01*
X192934Y46098D01*
X192684Y46019D01*
X192442Y45919D01*
X192210Y45798D01*
X191989Y45657D01*
X191782Y45498D01*
X191589Y45321D01*
X191412Y45128D01*
X191253Y44921D01*
X191112Y44700D01*
X190991Y44468D01*
X190891Y44226D01*
X190812Y43976D01*
X190756Y43721D01*
X190721Y43461D01*
X190710Y43200D01*
X190710Y-43200D02*
X190721Y-43461D01*
X190756Y-43721D01*
X190812Y-43976D01*
X190891Y-44226D01*
X190991Y-44468D01*
X191112Y-44700D01*
X191253Y-44921D01*
X191412Y-45128D01*
X191589Y-45321D01*
X191782Y-45498D01*
X191989Y-45657D01*
X192210Y-45798D01*
X192442Y-45919D01*
X192684Y-46019D01*
X192934Y-46098D01*
X193189Y-46154D01*
X193449Y-46189D01*
X193710Y-46200D01*
X201710Y-46200D01*
X201971Y-46189D01*
X202231Y-46154D01*
X202486Y-46098D01*
X202736Y-46019D01*
X202978Y-45919D01*
X203210Y-45798D01*
X203431Y-45657D01*
X203638Y-45498D01*
X203831Y-45321D01*
X204008Y-45128D01*
X204167Y-44921D01*
X204308Y-44700D01*
X204429Y-44468D01*
X204529Y-44226D01*
X204608Y-43976D01*
X204664Y-43721D01*
X204699Y-43461D01*
X204710Y-43200D01*
X204699Y-42939D01*
X204664Y-42679D01*
X204608Y-42424D01*
X204529Y-42174D01*
X204429Y-41932D01*
X204308Y-41700D01*
X204167Y-41479D01*
X204008Y-41272D01*
X203831Y-41079D01*
X203638Y-40902D01*
X203431Y-40743D01*
X203210Y-40602D01*
X202978Y-40481D01*
X202736Y-40381D01*
X202486Y-40302D01*
X202231Y-40246D01*
X201971Y-40211D01*
X201710Y-40200D01*
X193710Y-40200D01*
X193449Y-40211D01*
X193189Y-40246D01*
X192934Y-40302D01*
X192684Y-40381D01*
X192442Y-40481D01*
X192210Y-40602D01*
X191989Y-40743D01*
X191782Y-40902D01*
X191589Y-41079D01*
X191412Y-41272D01*
X191253Y-41479D01*
X191112Y-41700D01*
X190991Y-41932D01*
X190891Y-42174D01*
X190812Y-42424D01*
X190756Y-42679D01*
X190721Y-42939D01*
X190710Y-43200D01*
X147710Y43200D02*
X147721Y42939D01*
X147756Y42679D01*
X147812Y42424D01*
X147891Y42174D01*
X147991Y41932D01*
X148112Y41700D01*
X148253Y41479D01*
X148412Y41272D01*
X148589Y41079D01*
X148782Y40902D01*
X148989Y40743D01*
X149210Y40602D01*
X149442Y40481D01*
X149684Y40381D01*
X149934Y40302D01*
X150189Y40246D01*
X150449Y40211D01*
X150710Y40200D01*
X161710Y40200D01*
X161971Y40211D01*
X162231Y40246D01*
X162486Y40302D01*
X162736Y40381D01*
X162978Y40481D01*
X163210Y40602D01*
X163431Y40743D01*
X163638Y40902D01*
X163831Y41079D01*
X164008Y41272D01*
X164167Y41479D01*
X164308Y41700D01*
X164429Y41932D01*
X164529Y42174D01*
X164608Y42424D01*
X164664Y42679D01*
X164699Y42939D01*
X164710Y43200D01*
X164699Y43461D01*
X164664Y43721D01*
X164608Y43976D01*
X164529Y44226D01*
X164429Y44468D01*
X164308Y44700D01*
X164167Y44921D01*
X164008Y45128D01*
X163831Y45321D01*
X163638Y45498D01*
X163431Y45657D01*
X163210Y45798D01*
X162978Y45919D01*
X162736Y46019D01*
X162486Y46098D01*
X162231Y46154D01*
X161971Y46189D01*
X161710Y46200D01*
X150710Y46200D01*
X150449Y46189D01*
X150189Y46154D01*
X149934Y46098D01*
X149684Y46019D01*
X149442Y45919D01*
X149210Y45798D01*
X148989Y45657D01*
X148782Y45498D01*
X148589Y45321D01*
X148412Y45128D01*
X148253Y44921D01*
X148112Y44700D01*
X147991Y44468D01*
X147891Y44226D01*
X147812Y43976D01*
X147756Y43721D01*
X147721Y43461D01*
X147710Y43200D01*
X147710Y-43200D02*
X147721Y-43461D01*
X147756Y-43721D01*
X147812Y-43976D01*
X147891Y-44226D01*
X147991Y-44468D01*
X148112Y-44700D01*
X148253Y-44921D01*
X148412Y-45128D01*
X148589Y-45321D01*
X148782Y-45498D01*
X148989Y-45657D01*
X149210Y-45798D01*
X149442Y-45919D01*
X149684Y-46019D01*
X149934Y-46098D01*
X150189Y-46154D01*
X150449Y-46189D01*
X150710Y-46200D01*
X161710Y-46200D01*
X161971Y-46189D01*
X162231Y-46154D01*
X162486Y-46098D01*
X162736Y-46019D01*
X162978Y-45919D01*
X163210Y-45798D01*
X163431Y-45657D01*
X163638Y-45498D01*
X163831Y-45321D01*
X164008Y-45128D01*
X164167Y-44921D01*
X164308Y-44700D01*
X164429Y-44468D01*
X164529Y-44226D01*
X164608Y-43976D01*
X164664Y-43721D01*
X164699Y-43461D01*
X164710Y-43200D01*
X164699Y-42939D01*
X164664Y-42679D01*
X164608Y-42424D01*
X164529Y-42174D01*
X164429Y-41932D01*
X164308Y-41700D01*
X164167Y-41479D01*
X164008Y-41272D01*
X163831Y-41079D01*
X163638Y-40902D01*
X163431Y-40743D01*
X163210Y-40602D01*
X162978Y-40481D01*
X162736Y-40381D01*
X162486Y-40302D01*
X162231Y-40246D01*
X161971Y-40211D01*
X161710Y-40200D01*
X150710Y-40200D01*
X150449Y-40211D01*
X150189Y-40246D01*
X149934Y-40302D01*
X149684Y-40381D01*
X149442Y-40481D01*
X149210Y-40602D01*
X148989Y-40743D01*
X148782Y-40902D01*
X148589Y-41079D01*
X148412Y-41272D01*
X148253Y-41479D01*
X148112Y-41700D01*
X147991Y-41932D01*
X147891Y-42174D01*
X147812Y-42424D01*
X147756Y-42679D01*
X147721Y-42939D01*
X147710Y-43200D01*
X-75000Y-27500D02*
X-74952Y-28589D01*
X-74810Y-29671D01*
X-74574Y-30735D01*
X-74246Y-31775D01*
X-73829Y-32783D01*
X-73325Y-33750D01*
X-72739Y-34670D01*
X-72076Y-35535D01*
X-71339Y-36339D01*
X-70535Y-37076D01*
X-69670Y-37739D01*
X-68750Y-38325D01*
X-67783Y-38829D01*
X-66775Y-39246D01*
X-65735Y-39574D01*
X-64671Y-39810D01*
X-63589Y-39952D01*
X-62500Y-40000D01*
X62500Y-40000D01*
X63589Y-39952D01*
X64671Y-39810D01*
X65735Y-39574D01*
X66775Y-39246D01*
X67783Y-38829D01*
X68750Y-38325D01*
X69670Y-37739D01*
X70535Y-37076D01*
X71339Y-36339D01*
X72076Y-35535D01*
X72739Y-34670D01*
X73325Y-33750D01*
X73829Y-32783D01*
X74246Y-31775D01*
X74574Y-30735D01*
X74810Y-29671D01*
X74952Y-28589D01*
X75000Y-27500D01*
X74952Y-26411D01*
X74810Y-25329D01*
X74574Y-24265D01*
X74246Y-23225D01*
X73829Y-22217D01*
X73325Y-21250D01*
X72739Y-20330D01*
X72076Y-19465D01*
X71339Y-18661D01*
X70535Y-17924D01*
X69670Y-17261D01*
X68750Y-16675D01*
X67783Y-16171D01*
X66775Y-15754D01*
X65735Y-15426D01*
X64671Y-15190D01*
X63589Y-15048D01*
X62500Y-15000D01*
X-62500Y-15000D01*
X-63589Y-15048D01*
X-64671Y-15190D01*
X-65735Y-15426D01*
X-66775Y-15754D01*
X-67783Y-16171D01*
X-68750Y-16675D01*
X-69670Y-17261D01*
X-70535Y-17924D01*
X-71339Y-18661D01*
X-72076Y-19465D01*
X-72739Y-20330D01*
X-73325Y-21250D01*
X-73829Y-22217D01*
X-74246Y-23225D01*
X-74574Y-24265D01*
X-74810Y-25329D01*
X-74952Y-26411D01*
X-75000Y-27500D01*
X55000Y-281D02*
X54937Y-839D01*
X54812Y-1386D01*
X54627Y-1916D01*
X54383Y-2422D01*
X54084Y-2898D01*
X53734Y-3337D01*
X53337Y-3734D01*
X52898Y-4084D01*
X52422Y-4383D01*
X51916Y-4627D01*
X51386Y-4812D01*
X50839Y-4937D01*
X50281Y-5000D01*
X49719Y-5000D01*
X49161Y-4937D01*
X48614Y-4812D01*
X48084Y-4627D01*
X47578Y-4383D01*
X47102Y-4084D01*
X46663Y-3734D01*
X46266Y-3337D01*
X45916Y-2898D01*
X45617Y-2422D01*
X45373Y-1916D01*
X45188Y-1386D01*
X45063Y-839D01*
X45000Y-281D01*
X45000Y281D01*
X45063Y839D01*
X45188Y1386D01*
X45373Y1916D01*
X45617Y2422D01*
X45916Y2898D01*
X46266Y3337D01*
X46663Y3734D01*
X47102Y4084D01*
X47578Y4383D01*
X48084Y4627D01*
X48614Y4812D01*
X49161Y4937D01*
X49719Y5000D01*
X50281Y5000D01*
X50839Y4937D01*
X51386Y4812D01*
X51916Y4627D01*
X52422Y4383D01*
X52898Y4084D01*
X53337Y3734D01*
X53734Y3337D01*
X54084Y2898D01*
X54383Y2422D01*
X54627Y1916D01*
X54812Y1386D01*
X54937Y839D01*
X55000Y281D01*
X55000Y-281D01*
X-45000Y-281D02*
X-45063Y-839D01*
X-45188Y-1386D01*
X-45373Y-1916D01*
X-45617Y-2422D01*
X-45916Y-2898D01*
X-46266Y-3337D01*
X-46663Y-3734D01*
X-47102Y-4084D01*
X-47578Y-4383D01*
X-48084Y-4627D01*
X-48614Y-4812D01*
X-49161Y-4937D01*
X-49719Y-5000D01*
X-50281Y-5000D01*
X-50839Y-4937D01*
X-51386Y-4812D01*
X-51916Y-4627D01*
X-52422Y-4383D01*
X-52898Y-4084D01*
X-53337Y-3734D01*
X-53734Y-3337D01*
X-54084Y-2898D01*
X-54383Y-2422D01*
X-54627Y-1916D01*
X-54812Y-1386D01*
X-54937Y-839D01*
X-55000Y-281D01*
X-55000Y281D01*
X-54937Y839D01*
X-54812Y1386D01*
X-54627Y1916D01*
X-54383Y2422D01*
X-54084Y2898D01*
X-53734Y3337D01*
X-53337Y3734D01*
X-52898Y4084D01*
X-52422Y4383D01*
X-51916Y4627D01*
X-51386Y4812D01*
X-50839Y4937D01*
X-50281Y5000D01*
X-49719Y5000D01*
X-49161Y4937D01*
X-48614Y4812D01*
X-48084Y4627D01*
X-47578Y4383D01*
X-47102Y4084D01*
X-46663Y3734D01*
X-46266Y3337D01*
X-45916Y2898D01*
X-45617Y2422D01*
X-45373Y1916D01*
X-45188Y1386D01*
X-45063Y839D01*
X-45000Y281D01*
X-45000Y-281D01*
X-110160Y100597D02*
X-110100Y101127D01*
X-109982Y101647D01*
X-109805Y102151D01*
X-109574Y102631D01*
X-109290Y103083D01*
X-108957Y103500D01*
X-108580Y103877D01*
X-108163Y104210D01*
X-107711Y104494D01*
X-107231Y104725D01*
X-106727Y104902D01*
X-106207Y105020D01*
X-105677Y105080D01*
X-105143Y105080D01*
X-104613Y105020D01*
X-104093Y104902D01*
X-103589Y104725D01*
X-103109Y104494D01*
X-102657Y104210D01*
X-102240Y103877D01*
X-101863Y103500D01*
X-101530Y103083D01*
X-101246Y102631D01*
X-101015Y102151D01*
X-100838Y101647D01*
X-100720Y101127D01*
X-100660Y100597D01*
X-100660Y100063D01*
X-100720Y99533D01*
X-100838Y99013D01*
X-101015Y98509D01*
X-101246Y98029D01*
X-101530Y97577D01*
X-101863Y97160D01*
X-102240Y96783D01*
X-102657Y96450D01*
X-103109Y96166D01*
X-103589Y95935D01*
X-104093Y95758D01*
X-104613Y95640D01*
X-105143Y95580D01*
X-105677Y95580D01*
X-106207Y95640D01*
X-106727Y95758D01*
X-107231Y95935D01*
X-107711Y96166D01*
X-108163Y96450D01*
X-108580Y96783D01*
X-108957Y97160D01*
X-109290Y97577D01*
X-109574Y98029D01*
X-109805Y98509D01*
X-109982Y99013D01*
X-110100Y99533D01*
X-110160Y100063D01*
X-110160Y100597D01*
X-160960Y110757D02*
X-160900Y111287D01*
X-160782Y111807D01*
X-160605Y112311D01*
X-160374Y112791D01*
X-160090Y113243D01*
X-159757Y113660D01*
X-159380Y114037D01*
X-158963Y114370D01*
X-158511Y114654D01*
X-158031Y114885D01*
X-157527Y115062D01*
X-157007Y115180D01*
X-156477Y115240D01*
X-155943Y115240D01*
X-155413Y115180D01*
X-154893Y115062D01*
X-154389Y114885D01*
X-153909Y114654D01*
X-153457Y114370D01*
X-153040Y114037D01*
X-152663Y113660D01*
X-152330Y113243D01*
X-152046Y112791D01*
X-151815Y112311D01*
X-151638Y111807D01*
X-151520Y111287D01*
X-151460Y110757D01*
X-151460Y110223D01*
X-151520Y109693D01*
X-151638Y109173D01*
X-151815Y108669D01*
X-152046Y108189D01*
X-152330Y107737D01*
X-152663Y107320D01*
X-153040Y106943D01*
X-153457Y106610D01*
X-153909Y106326D01*
X-154389Y106095D01*
X-154893Y105918D01*
X-155413Y105800D01*
X-155943Y105740D01*
X-156477Y105740D01*
X-157007Y105800D01*
X-157527Y105918D01*
X-158031Y106095D01*
X-158511Y106326D01*
X-158963Y106610D01*
X-159380Y106943D01*
X-159757Y107320D01*
X-160090Y107737D01*
X-160374Y108189D01*
X-160605Y108669D01*
X-160782Y109173D01*
X-160900Y109693D01*
X-160960Y110223D01*
X-160960Y110757D01*
X-160960Y90437D02*
X-160900Y90967D01*
X-160782Y91487D01*
X-160605Y91991D01*
X-160374Y92471D01*
X-160090Y92923D01*
X-159757Y93340D01*
X-159380Y93717D01*
X-158963Y94050D01*
X-158511Y94334D01*
X-158031Y94565D01*
X-157527Y94742D01*
X-157007Y94860D01*
X-156477Y94920D01*
X-155943Y94920D01*
X-155413Y94860D01*
X-154893Y94742D01*
X-154389Y94565D01*
X-153909Y94334D01*
X-153457Y94050D01*
X-153040Y93717D01*
X-152663Y93340D01*
X-152330Y92923D01*
X-152046Y92471D01*
X-151815Y91991D01*
X-151638Y91487D01*
X-151520Y90967D01*
X-151460Y90437D01*
X-151460Y89903D01*
X-151520Y89373D01*
X-151638Y88853D01*
X-151815Y88349D01*
X-152046Y87869D01*
X-152330Y87417D01*
X-152663Y87000D01*
X-153040Y86623D01*
X-153457Y86290D01*
X-153909Y86006D01*
X-154389Y85775D01*
X-154893Y85598D01*
X-155413Y85480D01*
X-155943Y85420D01*
X-156477Y85420D01*
X-157007Y85480D01*
X-157527Y85598D01*
X-158031Y85775D01*
X-158511Y86006D01*
X-158963Y86290D01*
X-159380Y86623D01*
X-159757Y87000D01*
X-160090Y87417D01*
X-160374Y87869D01*
X-160605Y88349D01*
X-160782Y88853D01*
X-160900Y89373D01*
X-160960Y89903D01*
X-160960Y90437D01*
X161423Y32150D02*
X161845Y32094D01*
X162257Y31984D01*
X162651Y31821D01*
X163019Y31608D01*
X163357Y31349D01*
X163659Y31047D01*
X163918Y30709D01*
X164131Y30341D01*
X164294Y29947D01*
X164404Y29535D01*
X164460Y29113D01*
X164460Y28687D01*
X164404Y28265D01*
X164294Y27853D01*
X164131Y27459D01*
X163918Y27091D01*
X163659Y26753D01*
X163357Y26451D01*
X163019Y26192D01*
X162651Y25979D01*
X162257Y25816D01*
X161845Y25706D01*
X161423Y25650D01*
X160997Y25650D01*
X160575Y25706D01*
X160163Y25816D01*
X159769Y25979D01*
X159401Y26192D01*
X159063Y26451D01*
X158761Y26753D01*
X158502Y27091D01*
X158289Y27459D01*
X158126Y27853D01*
X158016Y28265D01*
X157960Y28687D01*
X157960Y29113D01*
X158016Y29535D01*
X158126Y29947D01*
X158289Y30341D01*
X158502Y30709D01*
X158761Y31047D01*
X159063Y31349D01*
X159401Y31608D01*
X159769Y31821D01*
X160163Y31984D01*
X160575Y32094D01*
X160997Y32150D01*
X161423Y32150D01*
X161423Y-25650D02*
X161845Y-25706D01*
X162257Y-25816D01*
X162651Y-25979D01*
X163019Y-26192D01*
X163357Y-26451D01*
X163659Y-26753D01*
X163918Y-27091D01*
X164131Y-27459D01*
X164294Y-27853D01*
X164404Y-28265D01*
X164460Y-28687D01*
X164460Y-29113D01*
X164404Y-29535D01*
X164294Y-29947D01*
X164131Y-30341D01*
X163918Y-30709D01*
X163659Y-31047D01*
X163357Y-31349D01*
X163019Y-31608D01*
X162651Y-31821D01*
X162257Y-31984D01*
X161845Y-32094D01*
X161423Y-32150D01*
X160997Y-32150D01*
X160575Y-32094D01*
X160163Y-31984D01*
X159769Y-31821D01*
X159401Y-31608D01*
X159063Y-31349D01*
X158761Y-31047D01*
X158502Y-30709D01*
X158289Y-30341D01*
X158126Y-29947D01*
X158016Y-29535D01*
X157960Y-29113D01*
X157960Y-28687D01*
X158016Y-28265D01*
X158126Y-27853D01*
X158289Y-27459D01*
X158502Y-27091D01*
X158761Y-26753D01*
X159063Y-26451D01*
X159401Y-26192D01*
X159769Y-25979D01*
X160163Y-25816D01*
X160575Y-25706D01*
X160997Y-25650D01*
X161423Y-25650D01*
M02*
