G04 EAGLE Gerber RS-274X export*
G75*
%MOMM*%
%FSLAX34Y34*%
%LPD*%
%INSilkscreen Bottom*%
%IPPOS*%
%AMOC8*
5,1,8,0,0,1.08239X$1,22.5*%
G01*
%ADD10C,0.076200*%
%ADD11C,0.127000*%


D10*
X48619Y87263D02*
X48617Y87352D01*
X48611Y87441D01*
X48601Y87530D01*
X48588Y87618D01*
X48571Y87706D01*
X48549Y87793D01*
X48524Y87878D01*
X48496Y87963D01*
X48463Y88046D01*
X48427Y88128D01*
X48388Y88208D01*
X48345Y88286D01*
X48299Y88362D01*
X48249Y88437D01*
X48196Y88509D01*
X48140Y88578D01*
X48081Y88645D01*
X48020Y88710D01*
X47955Y88771D01*
X47888Y88830D01*
X47819Y88886D01*
X47747Y88939D01*
X47672Y88989D01*
X47596Y89035D01*
X47518Y89078D01*
X47438Y89117D01*
X47356Y89153D01*
X47273Y89186D01*
X47188Y89214D01*
X47103Y89239D01*
X47016Y89261D01*
X46928Y89278D01*
X46840Y89291D01*
X46751Y89301D01*
X46662Y89307D01*
X46573Y89309D01*
X46484Y89307D01*
X46395Y89301D01*
X46306Y89291D01*
X46218Y89278D01*
X46130Y89261D01*
X46043Y89239D01*
X45958Y89214D01*
X45873Y89186D01*
X45790Y89153D01*
X45708Y89117D01*
X45628Y89078D01*
X45550Y89035D01*
X45474Y88989D01*
X45399Y88939D01*
X45327Y88886D01*
X45258Y88830D01*
X45191Y88771D01*
X45126Y88710D01*
X45065Y88645D01*
X45006Y88578D01*
X44950Y88509D01*
X44897Y88437D01*
X44847Y88362D01*
X44801Y88286D01*
X44758Y88208D01*
X44719Y88128D01*
X44683Y88046D01*
X44650Y87963D01*
X44622Y87878D01*
X44597Y87793D01*
X44575Y87706D01*
X44558Y87618D01*
X44545Y87530D01*
X44535Y87441D01*
X44529Y87352D01*
X44527Y87263D01*
X44529Y87174D01*
X44535Y87085D01*
X44545Y86996D01*
X44558Y86908D01*
X44575Y86820D01*
X44597Y86733D01*
X44622Y86648D01*
X44650Y86563D01*
X44683Y86480D01*
X44719Y86398D01*
X44758Y86318D01*
X44801Y86240D01*
X44847Y86164D01*
X44897Y86089D01*
X44950Y86017D01*
X45006Y85948D01*
X45065Y85881D01*
X45126Y85816D01*
X45191Y85755D01*
X45258Y85696D01*
X45327Y85640D01*
X45399Y85587D01*
X45474Y85537D01*
X45550Y85491D01*
X45628Y85448D01*
X45708Y85409D01*
X45790Y85373D01*
X45873Y85340D01*
X45958Y85312D01*
X46043Y85287D01*
X46130Y85265D01*
X46218Y85248D01*
X46306Y85235D01*
X46395Y85225D01*
X46484Y85219D01*
X46573Y85217D01*
X46662Y85219D01*
X46751Y85225D01*
X46840Y85235D01*
X46928Y85248D01*
X47016Y85265D01*
X47103Y85287D01*
X47188Y85312D01*
X47273Y85340D01*
X47356Y85373D01*
X47438Y85409D01*
X47518Y85448D01*
X47596Y85491D01*
X47672Y85537D01*
X47747Y85587D01*
X47819Y85640D01*
X47888Y85696D01*
X47955Y85755D01*
X48020Y85816D01*
X48081Y85881D01*
X48140Y85948D01*
X48196Y86017D01*
X48249Y86089D01*
X48299Y86164D01*
X48345Y86240D01*
X48388Y86318D01*
X48427Y86398D01*
X48463Y86480D01*
X48496Y86563D01*
X48524Y86648D01*
X48549Y86733D01*
X48571Y86820D01*
X48588Y86908D01*
X48601Y86996D01*
X48611Y87085D01*
X48617Y87174D01*
X48619Y87263D01*
X48210Y90946D02*
X48208Y91025D01*
X48202Y91104D01*
X48193Y91183D01*
X48180Y91261D01*
X48162Y91338D01*
X48142Y91414D01*
X48117Y91489D01*
X48089Y91563D01*
X48058Y91636D01*
X48022Y91707D01*
X47984Y91776D01*
X47942Y91843D01*
X47897Y91908D01*
X47849Y91971D01*
X47798Y92032D01*
X47744Y92089D01*
X47688Y92145D01*
X47629Y92197D01*
X47567Y92247D01*
X47503Y92293D01*
X47437Y92337D01*
X47369Y92377D01*
X47299Y92413D01*
X47227Y92447D01*
X47153Y92477D01*
X47079Y92503D01*
X47003Y92526D01*
X46926Y92544D01*
X46849Y92560D01*
X46770Y92571D01*
X46692Y92579D01*
X46613Y92583D01*
X46533Y92583D01*
X46454Y92579D01*
X46376Y92571D01*
X46297Y92560D01*
X46220Y92544D01*
X46143Y92526D01*
X46067Y92503D01*
X45993Y92477D01*
X45919Y92447D01*
X45847Y92413D01*
X45777Y92377D01*
X45709Y92337D01*
X45643Y92293D01*
X45579Y92247D01*
X45517Y92197D01*
X45458Y92145D01*
X45402Y92089D01*
X45348Y92032D01*
X45297Y91971D01*
X45249Y91908D01*
X45204Y91843D01*
X45162Y91776D01*
X45124Y91707D01*
X45088Y91636D01*
X45057Y91563D01*
X45029Y91489D01*
X45004Y91414D01*
X44984Y91338D01*
X44966Y91261D01*
X44953Y91183D01*
X44944Y91104D01*
X44938Y91025D01*
X44936Y90946D01*
X44938Y90867D01*
X44944Y90788D01*
X44953Y90709D01*
X44966Y90631D01*
X44984Y90554D01*
X45004Y90478D01*
X45029Y90403D01*
X45057Y90329D01*
X45088Y90256D01*
X45124Y90185D01*
X45162Y90116D01*
X45204Y90049D01*
X45249Y89984D01*
X45297Y89921D01*
X45348Y89860D01*
X45402Y89803D01*
X45458Y89747D01*
X45517Y89695D01*
X45579Y89645D01*
X45643Y89599D01*
X45709Y89555D01*
X45777Y89515D01*
X45847Y89479D01*
X45919Y89445D01*
X45993Y89415D01*
X46067Y89389D01*
X46143Y89366D01*
X46220Y89348D01*
X46297Y89332D01*
X46376Y89321D01*
X46454Y89313D01*
X46533Y89309D01*
X46613Y89309D01*
X46692Y89313D01*
X46770Y89321D01*
X46849Y89332D01*
X46926Y89348D01*
X47003Y89366D01*
X47079Y89389D01*
X47153Y89415D01*
X47227Y89445D01*
X47299Y89479D01*
X47369Y89515D01*
X47437Y89555D01*
X47503Y89599D01*
X47567Y89645D01*
X47629Y89695D01*
X47688Y89747D01*
X47744Y89803D01*
X47798Y89860D01*
X47849Y89921D01*
X47897Y89984D01*
X47942Y90049D01*
X47984Y90116D01*
X48022Y90185D01*
X48058Y90256D01*
X48089Y90329D01*
X48117Y90403D01*
X48142Y90478D01*
X48162Y90554D01*
X48180Y90631D01*
X48193Y90709D01*
X48202Y90788D01*
X48208Y90867D01*
X48210Y90946D01*
X39054Y92584D02*
X38969Y92582D01*
X38884Y92576D01*
X38800Y92566D01*
X38716Y92553D01*
X38632Y92535D01*
X38550Y92514D01*
X38469Y92489D01*
X38389Y92460D01*
X38310Y92427D01*
X38233Y92391D01*
X38158Y92351D01*
X38084Y92308D01*
X38013Y92262D01*
X37944Y92212D01*
X37877Y92159D01*
X37813Y92103D01*
X37752Y92044D01*
X37693Y91983D01*
X37637Y91919D01*
X37584Y91852D01*
X37534Y91783D01*
X37488Y91712D01*
X37445Y91638D01*
X37405Y91563D01*
X37369Y91486D01*
X37336Y91407D01*
X37307Y91327D01*
X37282Y91246D01*
X37261Y91164D01*
X37243Y91080D01*
X37230Y90996D01*
X37220Y90912D01*
X37214Y90827D01*
X37212Y90742D01*
X39054Y92583D02*
X39150Y92581D01*
X39246Y92575D01*
X39341Y92565D01*
X39436Y92552D01*
X39531Y92534D01*
X39624Y92513D01*
X39717Y92488D01*
X39808Y92459D01*
X39899Y92427D01*
X39988Y92391D01*
X40075Y92351D01*
X40161Y92308D01*
X40245Y92262D01*
X40327Y92212D01*
X40407Y92158D01*
X40484Y92102D01*
X40559Y92042D01*
X40632Y91980D01*
X40702Y91914D01*
X40770Y91846D01*
X40835Y91775D01*
X40896Y91702D01*
X40955Y91626D01*
X41011Y91547D01*
X41063Y91467D01*
X41112Y91384D01*
X41158Y91300D01*
X41200Y91214D01*
X41238Y91126D01*
X41273Y91037D01*
X41305Y90946D01*
X37826Y89310D02*
X37766Y89369D01*
X37709Y89431D01*
X37654Y89495D01*
X37603Y89562D01*
X37554Y89631D01*
X37508Y89701D01*
X37465Y89774D01*
X37425Y89848D01*
X37389Y89924D01*
X37356Y90002D01*
X37326Y90081D01*
X37299Y90161D01*
X37276Y90242D01*
X37257Y90324D01*
X37241Y90406D01*
X37228Y90490D01*
X37219Y90574D01*
X37214Y90658D01*
X37212Y90742D01*
X37826Y89309D02*
X41304Y85217D01*
X37212Y85217D01*
X33989Y87263D02*
X33987Y87352D01*
X33981Y87441D01*
X33971Y87530D01*
X33958Y87618D01*
X33941Y87706D01*
X33919Y87793D01*
X33894Y87878D01*
X33866Y87963D01*
X33833Y88046D01*
X33797Y88128D01*
X33758Y88208D01*
X33715Y88286D01*
X33669Y88362D01*
X33619Y88437D01*
X33566Y88509D01*
X33510Y88578D01*
X33451Y88645D01*
X33390Y88710D01*
X33325Y88771D01*
X33258Y88830D01*
X33189Y88886D01*
X33117Y88939D01*
X33042Y88989D01*
X32966Y89035D01*
X32888Y89078D01*
X32808Y89117D01*
X32726Y89153D01*
X32643Y89186D01*
X32558Y89214D01*
X32473Y89239D01*
X32386Y89261D01*
X32298Y89278D01*
X32210Y89291D01*
X32121Y89301D01*
X32032Y89307D01*
X31943Y89309D01*
X31854Y89307D01*
X31765Y89301D01*
X31676Y89291D01*
X31588Y89278D01*
X31500Y89261D01*
X31413Y89239D01*
X31328Y89214D01*
X31243Y89186D01*
X31160Y89153D01*
X31078Y89117D01*
X30998Y89078D01*
X30920Y89035D01*
X30844Y88989D01*
X30769Y88939D01*
X30697Y88886D01*
X30628Y88830D01*
X30561Y88771D01*
X30496Y88710D01*
X30435Y88645D01*
X30376Y88578D01*
X30320Y88509D01*
X30267Y88437D01*
X30217Y88362D01*
X30171Y88286D01*
X30128Y88208D01*
X30089Y88128D01*
X30053Y88046D01*
X30020Y87963D01*
X29992Y87878D01*
X29967Y87793D01*
X29945Y87706D01*
X29928Y87618D01*
X29915Y87530D01*
X29905Y87441D01*
X29899Y87352D01*
X29897Y87263D01*
X29899Y87174D01*
X29905Y87085D01*
X29915Y86996D01*
X29928Y86908D01*
X29945Y86820D01*
X29967Y86733D01*
X29992Y86648D01*
X30020Y86563D01*
X30053Y86480D01*
X30089Y86398D01*
X30128Y86318D01*
X30171Y86240D01*
X30217Y86164D01*
X30267Y86089D01*
X30320Y86017D01*
X30376Y85948D01*
X30435Y85881D01*
X30496Y85816D01*
X30561Y85755D01*
X30628Y85696D01*
X30697Y85640D01*
X30769Y85587D01*
X30844Y85537D01*
X30920Y85491D01*
X30998Y85448D01*
X31078Y85409D01*
X31160Y85373D01*
X31243Y85340D01*
X31328Y85312D01*
X31413Y85287D01*
X31500Y85265D01*
X31588Y85248D01*
X31676Y85235D01*
X31765Y85225D01*
X31854Y85219D01*
X31943Y85217D01*
X32032Y85219D01*
X32121Y85225D01*
X32210Y85235D01*
X32298Y85248D01*
X32386Y85265D01*
X32473Y85287D01*
X32558Y85312D01*
X32643Y85340D01*
X32726Y85373D01*
X32808Y85409D01*
X32888Y85448D01*
X32966Y85491D01*
X33042Y85537D01*
X33117Y85587D01*
X33189Y85640D01*
X33258Y85696D01*
X33325Y85755D01*
X33390Y85816D01*
X33451Y85881D01*
X33510Y85948D01*
X33566Y86017D01*
X33619Y86089D01*
X33669Y86164D01*
X33715Y86240D01*
X33758Y86318D01*
X33797Y86398D01*
X33833Y86480D01*
X33866Y86563D01*
X33894Y86648D01*
X33919Y86733D01*
X33941Y86820D01*
X33958Y86908D01*
X33971Y86996D01*
X33981Y87085D01*
X33987Y87174D01*
X33989Y87263D01*
X33580Y90946D02*
X33578Y91025D01*
X33572Y91104D01*
X33563Y91183D01*
X33550Y91261D01*
X33532Y91338D01*
X33512Y91414D01*
X33487Y91489D01*
X33459Y91563D01*
X33428Y91636D01*
X33392Y91707D01*
X33354Y91776D01*
X33312Y91843D01*
X33267Y91908D01*
X33219Y91971D01*
X33168Y92032D01*
X33114Y92089D01*
X33058Y92145D01*
X32999Y92197D01*
X32937Y92247D01*
X32873Y92293D01*
X32807Y92337D01*
X32739Y92377D01*
X32669Y92413D01*
X32597Y92447D01*
X32523Y92477D01*
X32449Y92503D01*
X32373Y92526D01*
X32296Y92544D01*
X32219Y92560D01*
X32140Y92571D01*
X32062Y92579D01*
X31983Y92583D01*
X31903Y92583D01*
X31824Y92579D01*
X31746Y92571D01*
X31667Y92560D01*
X31590Y92544D01*
X31513Y92526D01*
X31437Y92503D01*
X31363Y92477D01*
X31289Y92447D01*
X31217Y92413D01*
X31147Y92377D01*
X31079Y92337D01*
X31013Y92293D01*
X30949Y92247D01*
X30887Y92197D01*
X30828Y92145D01*
X30772Y92089D01*
X30718Y92032D01*
X30667Y91971D01*
X30619Y91908D01*
X30574Y91843D01*
X30532Y91776D01*
X30494Y91707D01*
X30458Y91636D01*
X30427Y91563D01*
X30399Y91489D01*
X30374Y91414D01*
X30354Y91338D01*
X30336Y91261D01*
X30323Y91183D01*
X30314Y91104D01*
X30308Y91025D01*
X30306Y90946D01*
X30308Y90867D01*
X30314Y90788D01*
X30323Y90709D01*
X30336Y90631D01*
X30354Y90554D01*
X30374Y90478D01*
X30399Y90403D01*
X30427Y90329D01*
X30458Y90256D01*
X30494Y90185D01*
X30532Y90116D01*
X30574Y90049D01*
X30619Y89984D01*
X30667Y89921D01*
X30718Y89860D01*
X30772Y89803D01*
X30828Y89747D01*
X30887Y89695D01*
X30949Y89645D01*
X31013Y89599D01*
X31079Y89555D01*
X31147Y89515D01*
X31217Y89479D01*
X31289Y89445D01*
X31363Y89415D01*
X31437Y89389D01*
X31513Y89366D01*
X31590Y89348D01*
X31667Y89332D01*
X31746Y89321D01*
X31824Y89313D01*
X31903Y89309D01*
X31983Y89309D01*
X32062Y89313D01*
X32140Y89321D01*
X32219Y89332D01*
X32296Y89348D01*
X32373Y89366D01*
X32449Y89389D01*
X32523Y89415D01*
X32597Y89445D01*
X32669Y89479D01*
X32739Y89515D01*
X32807Y89555D01*
X32873Y89599D01*
X32937Y89645D01*
X32999Y89695D01*
X33058Y89747D01*
X33114Y89803D01*
X33168Y89860D01*
X33219Y89921D01*
X33267Y89984D01*
X33312Y90049D01*
X33354Y90116D01*
X33392Y90185D01*
X33428Y90256D01*
X33459Y90329D01*
X33487Y90403D01*
X33512Y90478D01*
X33532Y90554D01*
X33550Y90631D01*
X33563Y90709D01*
X33572Y90788D01*
X33578Y90867D01*
X33580Y90946D01*
X26674Y85217D02*
X24219Y85217D01*
X24139Y85219D01*
X24059Y85225D01*
X23979Y85235D01*
X23900Y85248D01*
X23821Y85266D01*
X23744Y85287D01*
X23668Y85313D01*
X23593Y85342D01*
X23519Y85374D01*
X23447Y85410D01*
X23377Y85450D01*
X23310Y85493D01*
X23244Y85539D01*
X23181Y85589D01*
X23120Y85641D01*
X23061Y85696D01*
X23006Y85755D01*
X22954Y85815D01*
X22904Y85879D01*
X22858Y85944D01*
X22815Y86012D01*
X22775Y86082D01*
X22739Y86154D01*
X22707Y86228D01*
X22678Y86302D01*
X22653Y86379D01*
X22631Y86456D01*
X22613Y86535D01*
X22600Y86614D01*
X22590Y86693D01*
X22584Y86774D01*
X22582Y86854D01*
X22582Y87672D01*
X22581Y87672D02*
X22583Y87750D01*
X22588Y87828D01*
X22598Y87905D01*
X22611Y87982D01*
X22627Y88058D01*
X22647Y88133D01*
X22671Y88207D01*
X22698Y88280D01*
X22729Y88352D01*
X22763Y88422D01*
X22800Y88491D01*
X22841Y88557D01*
X22885Y88622D01*
X22931Y88684D01*
X22981Y88744D01*
X23033Y88802D01*
X23088Y88857D01*
X23146Y88909D01*
X23206Y88959D01*
X23268Y89005D01*
X23333Y89049D01*
X23400Y89090D01*
X23468Y89127D01*
X23538Y89161D01*
X23610Y89192D01*
X23683Y89219D01*
X23757Y89243D01*
X23832Y89263D01*
X23908Y89279D01*
X23985Y89292D01*
X24062Y89302D01*
X24140Y89307D01*
X24218Y89309D01*
X24219Y89309D02*
X26674Y89309D01*
X26674Y92583D01*
X22582Y92583D01*
X15162Y92583D02*
X15162Y85217D01*
X15162Y92583D02*
X13116Y92583D01*
X13027Y92581D01*
X12938Y92575D01*
X12849Y92565D01*
X12761Y92552D01*
X12673Y92535D01*
X12586Y92513D01*
X12501Y92488D01*
X12416Y92460D01*
X12333Y92427D01*
X12251Y92391D01*
X12171Y92352D01*
X12093Y92309D01*
X12017Y92263D01*
X11942Y92213D01*
X11870Y92160D01*
X11801Y92104D01*
X11734Y92045D01*
X11669Y91984D01*
X11608Y91919D01*
X11549Y91852D01*
X11493Y91783D01*
X11440Y91711D01*
X11390Y91636D01*
X11344Y91560D01*
X11301Y91482D01*
X11262Y91402D01*
X11226Y91320D01*
X11193Y91237D01*
X11165Y91152D01*
X11140Y91067D01*
X11118Y90980D01*
X11101Y90892D01*
X11088Y90804D01*
X11078Y90715D01*
X11072Y90626D01*
X11070Y90537D01*
X11072Y90448D01*
X11078Y90359D01*
X11088Y90270D01*
X11101Y90182D01*
X11118Y90094D01*
X11140Y90007D01*
X11165Y89922D01*
X11193Y89837D01*
X11226Y89754D01*
X11262Y89672D01*
X11301Y89592D01*
X11344Y89514D01*
X11390Y89438D01*
X11440Y89363D01*
X11493Y89291D01*
X11549Y89222D01*
X11608Y89155D01*
X11669Y89090D01*
X11734Y89029D01*
X11801Y88970D01*
X11870Y88914D01*
X11942Y88861D01*
X12017Y88811D01*
X12093Y88765D01*
X12171Y88722D01*
X12251Y88683D01*
X12333Y88647D01*
X12416Y88614D01*
X12501Y88586D01*
X12586Y88561D01*
X12673Y88539D01*
X12761Y88522D01*
X12849Y88509D01*
X12938Y88499D01*
X13027Y88493D01*
X13116Y88491D01*
X15162Y88491D01*
X12707Y88491D02*
X11070Y85217D01*
X6749Y85217D02*
X4703Y85217D01*
X6749Y85217D02*
X6818Y85219D01*
X6886Y85225D01*
X6955Y85234D01*
X7022Y85248D01*
X7089Y85265D01*
X7155Y85286D01*
X7219Y85310D01*
X7282Y85339D01*
X7343Y85370D01*
X7402Y85405D01*
X7460Y85443D01*
X7515Y85485D01*
X7567Y85529D01*
X7617Y85577D01*
X7665Y85627D01*
X7709Y85679D01*
X7751Y85734D01*
X7789Y85792D01*
X7824Y85851D01*
X7855Y85912D01*
X7884Y85975D01*
X7908Y86039D01*
X7929Y86105D01*
X7946Y86172D01*
X7960Y86239D01*
X7969Y86308D01*
X7975Y86376D01*
X7977Y86445D01*
X7977Y88491D01*
X7975Y88570D01*
X7969Y88649D01*
X7960Y88728D01*
X7947Y88806D01*
X7929Y88883D01*
X7909Y88959D01*
X7884Y89034D01*
X7856Y89108D01*
X7825Y89181D01*
X7789Y89252D01*
X7751Y89321D01*
X7709Y89388D01*
X7664Y89453D01*
X7616Y89516D01*
X7565Y89577D01*
X7511Y89634D01*
X7455Y89690D01*
X7396Y89742D01*
X7334Y89792D01*
X7270Y89838D01*
X7204Y89882D01*
X7136Y89922D01*
X7066Y89958D01*
X6994Y89992D01*
X6920Y90022D01*
X6846Y90048D01*
X6770Y90071D01*
X6693Y90089D01*
X6616Y90105D01*
X6537Y90116D01*
X6459Y90124D01*
X6380Y90128D01*
X6300Y90128D01*
X6221Y90124D01*
X6143Y90116D01*
X6064Y90105D01*
X5987Y90089D01*
X5910Y90071D01*
X5834Y90048D01*
X5760Y90022D01*
X5686Y89992D01*
X5614Y89958D01*
X5544Y89922D01*
X5476Y89882D01*
X5410Y89838D01*
X5346Y89792D01*
X5284Y89742D01*
X5225Y89690D01*
X5169Y89634D01*
X5115Y89577D01*
X5064Y89516D01*
X5016Y89453D01*
X4971Y89388D01*
X4929Y89321D01*
X4891Y89252D01*
X4855Y89181D01*
X4824Y89108D01*
X4796Y89034D01*
X4771Y88959D01*
X4751Y88883D01*
X4733Y88806D01*
X4720Y88728D01*
X4711Y88649D01*
X4705Y88570D01*
X4703Y88491D01*
X4703Y87672D01*
X7977Y87672D01*
X1236Y85217D02*
X1236Y90128D01*
X-2447Y90128D01*
X-2516Y90126D01*
X-2584Y90120D01*
X-2653Y90111D01*
X-2720Y90097D01*
X-2787Y90080D01*
X-2853Y90059D01*
X-2917Y90035D01*
X-2980Y90006D01*
X-3041Y89975D01*
X-3100Y89940D01*
X-3158Y89902D01*
X-3213Y89860D01*
X-3265Y89816D01*
X-3315Y89768D01*
X-3363Y89718D01*
X-3407Y89666D01*
X-3449Y89611D01*
X-3487Y89553D01*
X-3522Y89494D01*
X-3553Y89433D01*
X-3582Y89370D01*
X-3606Y89306D01*
X-3627Y89240D01*
X-3644Y89173D01*
X-3658Y89106D01*
X-3667Y89037D01*
X-3673Y88969D01*
X-3675Y88900D01*
X-3675Y85217D01*
X-1219Y85217D02*
X-1219Y90128D01*
X-7141Y88491D02*
X-7141Y86854D01*
X-7141Y88491D02*
X-7143Y88570D01*
X-7149Y88649D01*
X-7158Y88728D01*
X-7171Y88806D01*
X-7189Y88883D01*
X-7209Y88959D01*
X-7234Y89034D01*
X-7262Y89108D01*
X-7293Y89181D01*
X-7329Y89252D01*
X-7367Y89321D01*
X-7409Y89388D01*
X-7454Y89453D01*
X-7502Y89516D01*
X-7553Y89577D01*
X-7607Y89634D01*
X-7663Y89690D01*
X-7722Y89742D01*
X-7784Y89792D01*
X-7848Y89838D01*
X-7914Y89882D01*
X-7982Y89922D01*
X-8052Y89958D01*
X-8124Y89992D01*
X-8198Y90022D01*
X-8272Y90048D01*
X-8348Y90071D01*
X-8425Y90089D01*
X-8502Y90105D01*
X-8581Y90116D01*
X-8659Y90124D01*
X-8738Y90128D01*
X-8818Y90128D01*
X-8897Y90124D01*
X-8975Y90116D01*
X-9054Y90105D01*
X-9131Y90089D01*
X-9208Y90071D01*
X-9284Y90048D01*
X-9358Y90022D01*
X-9432Y89992D01*
X-9504Y89958D01*
X-9574Y89922D01*
X-9642Y89882D01*
X-9708Y89838D01*
X-9772Y89792D01*
X-9834Y89742D01*
X-9893Y89690D01*
X-9949Y89634D01*
X-10003Y89577D01*
X-10054Y89516D01*
X-10102Y89453D01*
X-10147Y89388D01*
X-10189Y89321D01*
X-10227Y89252D01*
X-10263Y89181D01*
X-10294Y89108D01*
X-10322Y89034D01*
X-10347Y88959D01*
X-10367Y88883D01*
X-10385Y88806D01*
X-10398Y88728D01*
X-10407Y88649D01*
X-10413Y88570D01*
X-10415Y88491D01*
X-10415Y86854D01*
X-10413Y86775D01*
X-10407Y86696D01*
X-10398Y86617D01*
X-10385Y86539D01*
X-10367Y86462D01*
X-10347Y86386D01*
X-10322Y86311D01*
X-10294Y86237D01*
X-10263Y86164D01*
X-10227Y86093D01*
X-10189Y86024D01*
X-10147Y85957D01*
X-10102Y85892D01*
X-10054Y85829D01*
X-10003Y85768D01*
X-9949Y85711D01*
X-9893Y85655D01*
X-9834Y85603D01*
X-9772Y85553D01*
X-9708Y85507D01*
X-9642Y85463D01*
X-9574Y85423D01*
X-9504Y85387D01*
X-9432Y85353D01*
X-9358Y85323D01*
X-9284Y85297D01*
X-9208Y85274D01*
X-9131Y85256D01*
X-9054Y85240D01*
X-8975Y85229D01*
X-8897Y85221D01*
X-8818Y85217D01*
X-8738Y85217D01*
X-8659Y85221D01*
X-8581Y85229D01*
X-8502Y85240D01*
X-8425Y85256D01*
X-8348Y85274D01*
X-8272Y85297D01*
X-8198Y85323D01*
X-8124Y85353D01*
X-8052Y85387D01*
X-7982Y85423D01*
X-7914Y85463D01*
X-7848Y85507D01*
X-7784Y85553D01*
X-7722Y85603D01*
X-7663Y85655D01*
X-7607Y85711D01*
X-7553Y85768D01*
X-7502Y85829D01*
X-7454Y85892D01*
X-7409Y85957D01*
X-7367Y86024D01*
X-7329Y86093D01*
X-7293Y86164D01*
X-7262Y86237D01*
X-7234Y86311D01*
X-7209Y86386D01*
X-7189Y86462D01*
X-7171Y86539D01*
X-7158Y86617D01*
X-7149Y86696D01*
X-7143Y86775D01*
X-7141Y86854D01*
X-12851Y90128D02*
X-15306Y90128D01*
X-13669Y92583D02*
X-13669Y86445D01*
X-13671Y86376D01*
X-13677Y86308D01*
X-13686Y86239D01*
X-13700Y86172D01*
X-13717Y86105D01*
X-13738Y86039D01*
X-13762Y85975D01*
X-13791Y85912D01*
X-13822Y85851D01*
X-13857Y85792D01*
X-13895Y85734D01*
X-13937Y85679D01*
X-13981Y85627D01*
X-14029Y85577D01*
X-14079Y85529D01*
X-14131Y85485D01*
X-14186Y85443D01*
X-14244Y85405D01*
X-14303Y85370D01*
X-14364Y85339D01*
X-14427Y85310D01*
X-14491Y85286D01*
X-14557Y85265D01*
X-14624Y85248D01*
X-14691Y85234D01*
X-14760Y85225D01*
X-14828Y85219D01*
X-14897Y85217D01*
X-15306Y85217D01*
X-19342Y85217D02*
X-21388Y85217D01*
X-19342Y85217D02*
X-19273Y85219D01*
X-19205Y85225D01*
X-19136Y85234D01*
X-19069Y85248D01*
X-19002Y85265D01*
X-18936Y85286D01*
X-18872Y85310D01*
X-18809Y85339D01*
X-18748Y85370D01*
X-18689Y85405D01*
X-18631Y85443D01*
X-18576Y85485D01*
X-18524Y85529D01*
X-18474Y85577D01*
X-18426Y85627D01*
X-18382Y85679D01*
X-18340Y85734D01*
X-18302Y85792D01*
X-18267Y85851D01*
X-18236Y85912D01*
X-18207Y85975D01*
X-18183Y86039D01*
X-18162Y86105D01*
X-18145Y86172D01*
X-18131Y86239D01*
X-18122Y86308D01*
X-18116Y86376D01*
X-18114Y86445D01*
X-18114Y88491D01*
X-18116Y88570D01*
X-18122Y88649D01*
X-18131Y88728D01*
X-18144Y88806D01*
X-18162Y88883D01*
X-18182Y88959D01*
X-18207Y89034D01*
X-18235Y89108D01*
X-18266Y89181D01*
X-18302Y89252D01*
X-18340Y89321D01*
X-18382Y89388D01*
X-18427Y89453D01*
X-18475Y89516D01*
X-18526Y89577D01*
X-18580Y89634D01*
X-18636Y89690D01*
X-18695Y89742D01*
X-18757Y89792D01*
X-18821Y89838D01*
X-18887Y89882D01*
X-18955Y89922D01*
X-19025Y89958D01*
X-19097Y89992D01*
X-19171Y90022D01*
X-19245Y90048D01*
X-19321Y90071D01*
X-19398Y90089D01*
X-19475Y90105D01*
X-19554Y90116D01*
X-19632Y90124D01*
X-19711Y90128D01*
X-19791Y90128D01*
X-19870Y90124D01*
X-19948Y90116D01*
X-20027Y90105D01*
X-20104Y90089D01*
X-20181Y90071D01*
X-20257Y90048D01*
X-20331Y90022D01*
X-20405Y89992D01*
X-20477Y89958D01*
X-20547Y89922D01*
X-20615Y89882D01*
X-20681Y89838D01*
X-20745Y89792D01*
X-20807Y89742D01*
X-20866Y89690D01*
X-20922Y89634D01*
X-20976Y89577D01*
X-21027Y89516D01*
X-21075Y89453D01*
X-21120Y89388D01*
X-21162Y89321D01*
X-21200Y89252D01*
X-21236Y89181D01*
X-21267Y89108D01*
X-21295Y89034D01*
X-21320Y88959D01*
X-21340Y88883D01*
X-21358Y88806D01*
X-21371Y88728D01*
X-21380Y88649D01*
X-21386Y88570D01*
X-21388Y88491D01*
X-21388Y87672D01*
X-18114Y87672D01*
X-28112Y90128D02*
X-29748Y85217D01*
X-31385Y90128D01*
X-34286Y90946D02*
X-36332Y92583D01*
X-36332Y85217D01*
X-34286Y85217D02*
X-38378Y85217D01*
X-41248Y85217D02*
X-41248Y85626D01*
X-41657Y85626D01*
X-41657Y85217D01*
X-41248Y85217D01*
X-44528Y88900D02*
X-44530Y89053D01*
X-44536Y89206D01*
X-44545Y89358D01*
X-44559Y89511D01*
X-44576Y89663D01*
X-44597Y89814D01*
X-44622Y89965D01*
X-44651Y90115D01*
X-44683Y90265D01*
X-44720Y90413D01*
X-44760Y90561D01*
X-44803Y90708D01*
X-44851Y90853D01*
X-44902Y90997D01*
X-44956Y91140D01*
X-45015Y91282D01*
X-45076Y91421D01*
X-45142Y91560D01*
X-45141Y91560D02*
X-45167Y91630D01*
X-45197Y91700D01*
X-45230Y91767D01*
X-45266Y91833D01*
X-45305Y91897D01*
X-45348Y91959D01*
X-45394Y92018D01*
X-45442Y92076D01*
X-45493Y92130D01*
X-45547Y92183D01*
X-45604Y92232D01*
X-45663Y92279D01*
X-45724Y92322D01*
X-45787Y92363D01*
X-45852Y92400D01*
X-45919Y92435D01*
X-45988Y92465D01*
X-46058Y92493D01*
X-46129Y92516D01*
X-46201Y92537D01*
X-46274Y92553D01*
X-46348Y92566D01*
X-46423Y92576D01*
X-46498Y92581D01*
X-46573Y92583D01*
X-46648Y92581D01*
X-46723Y92576D01*
X-46798Y92566D01*
X-46872Y92553D01*
X-46945Y92537D01*
X-47017Y92516D01*
X-47088Y92493D01*
X-47158Y92465D01*
X-47227Y92435D01*
X-47294Y92400D01*
X-47359Y92363D01*
X-47422Y92322D01*
X-47483Y92279D01*
X-47542Y92232D01*
X-47599Y92183D01*
X-47653Y92130D01*
X-47704Y92076D01*
X-47753Y92018D01*
X-47798Y91959D01*
X-47841Y91897D01*
X-47880Y91833D01*
X-47917Y91767D01*
X-47949Y91699D01*
X-47979Y91630D01*
X-48005Y91560D01*
X-48070Y91422D01*
X-48132Y91282D01*
X-48190Y91140D01*
X-48245Y90997D01*
X-48296Y90853D01*
X-48344Y90708D01*
X-48387Y90561D01*
X-48427Y90414D01*
X-48464Y90265D01*
X-48496Y90115D01*
X-48525Y89965D01*
X-48550Y89814D01*
X-48571Y89663D01*
X-48588Y89511D01*
X-48602Y89358D01*
X-48611Y89206D01*
X-48617Y89053D01*
X-48619Y88900D01*
X-44527Y88900D02*
X-44529Y88747D01*
X-44535Y88594D01*
X-44544Y88441D01*
X-44558Y88289D01*
X-44575Y88137D01*
X-44596Y87986D01*
X-44621Y87835D01*
X-44650Y87684D01*
X-44682Y87535D01*
X-44719Y87386D01*
X-44759Y87239D01*
X-44802Y87092D01*
X-44850Y86947D01*
X-44901Y86802D01*
X-44956Y86660D01*
X-45014Y86518D01*
X-45076Y86378D01*
X-45141Y86240D01*
X-45167Y86169D01*
X-45197Y86100D01*
X-45230Y86033D01*
X-45266Y85967D01*
X-45305Y85903D01*
X-45348Y85841D01*
X-45394Y85782D01*
X-45442Y85724D01*
X-45493Y85670D01*
X-45547Y85617D01*
X-45604Y85568D01*
X-45663Y85521D01*
X-45724Y85478D01*
X-45787Y85437D01*
X-45852Y85400D01*
X-45919Y85365D01*
X-45988Y85335D01*
X-46058Y85307D01*
X-46129Y85284D01*
X-46201Y85263D01*
X-46274Y85247D01*
X-46348Y85234D01*
X-46423Y85224D01*
X-46498Y85219D01*
X-46573Y85217D01*
X-48005Y86240D02*
X-48070Y86378D01*
X-48132Y86518D01*
X-48190Y86660D01*
X-48245Y86803D01*
X-48296Y86947D01*
X-48344Y87092D01*
X-48387Y87239D01*
X-48427Y87387D01*
X-48464Y87535D01*
X-48496Y87685D01*
X-48525Y87835D01*
X-48550Y87986D01*
X-48571Y88137D01*
X-48588Y88289D01*
X-48602Y88442D01*
X-48611Y88594D01*
X-48617Y88747D01*
X-48619Y88900D01*
X-48005Y86240D02*
X-47979Y86170D01*
X-47949Y86100D01*
X-47917Y86033D01*
X-47880Y85967D01*
X-47841Y85903D01*
X-47798Y85841D01*
X-47752Y85782D01*
X-47704Y85724D01*
X-47653Y85670D01*
X-47599Y85617D01*
X-47542Y85568D01*
X-47483Y85521D01*
X-47422Y85478D01*
X-47359Y85437D01*
X-47294Y85400D01*
X-47227Y85365D01*
X-47158Y85335D01*
X-47088Y85307D01*
X-47017Y85284D01*
X-46945Y85263D01*
X-46872Y85247D01*
X-46798Y85234D01*
X-46723Y85224D01*
X-46648Y85219D01*
X-46573Y85217D01*
X-44936Y86854D02*
X-48210Y90946D01*
D11*
X60000Y40000D02*
X60000Y-10000D01*
X-60000Y-10000D01*
X-60000Y40000D01*
X60000Y40000D01*
D10*
X197676Y-94351D02*
X197676Y-101717D01*
X197676Y-94351D02*
X195630Y-94351D01*
X195541Y-94353D01*
X195452Y-94359D01*
X195363Y-94369D01*
X195275Y-94382D01*
X195187Y-94399D01*
X195100Y-94421D01*
X195015Y-94446D01*
X194930Y-94474D01*
X194847Y-94507D01*
X194765Y-94543D01*
X194685Y-94582D01*
X194607Y-94625D01*
X194531Y-94671D01*
X194456Y-94721D01*
X194384Y-94774D01*
X194315Y-94830D01*
X194248Y-94889D01*
X194183Y-94950D01*
X194122Y-95015D01*
X194063Y-95082D01*
X194007Y-95151D01*
X193954Y-95223D01*
X193904Y-95298D01*
X193858Y-95374D01*
X193815Y-95452D01*
X193776Y-95532D01*
X193740Y-95614D01*
X193707Y-95697D01*
X193679Y-95782D01*
X193654Y-95867D01*
X193632Y-95954D01*
X193615Y-96042D01*
X193602Y-96130D01*
X193592Y-96219D01*
X193586Y-96308D01*
X193584Y-96397D01*
X193586Y-96486D01*
X193592Y-96575D01*
X193602Y-96664D01*
X193615Y-96752D01*
X193632Y-96840D01*
X193654Y-96927D01*
X193679Y-97012D01*
X193707Y-97097D01*
X193740Y-97180D01*
X193776Y-97262D01*
X193815Y-97342D01*
X193858Y-97420D01*
X193904Y-97496D01*
X193954Y-97571D01*
X194007Y-97643D01*
X194063Y-97712D01*
X194122Y-97779D01*
X194183Y-97844D01*
X194248Y-97905D01*
X194315Y-97964D01*
X194384Y-98020D01*
X194456Y-98073D01*
X194531Y-98123D01*
X194607Y-98169D01*
X194685Y-98212D01*
X194765Y-98251D01*
X194847Y-98287D01*
X194930Y-98320D01*
X195015Y-98348D01*
X195100Y-98373D01*
X195187Y-98395D01*
X195275Y-98412D01*
X195363Y-98425D01*
X195452Y-98435D01*
X195541Y-98441D01*
X195630Y-98443D01*
X197676Y-98443D01*
X191131Y-101717D02*
X188676Y-94351D01*
X186221Y-101717D01*
X186834Y-99876D02*
X190517Y-99876D01*
X183163Y-101717D02*
X183163Y-94351D01*
X181117Y-94351D01*
X181028Y-94353D01*
X180939Y-94359D01*
X180850Y-94369D01*
X180762Y-94382D01*
X180674Y-94399D01*
X180587Y-94421D01*
X180502Y-94446D01*
X180417Y-94474D01*
X180334Y-94507D01*
X180252Y-94543D01*
X180172Y-94582D01*
X180094Y-94625D01*
X180018Y-94671D01*
X179943Y-94721D01*
X179871Y-94774D01*
X179802Y-94830D01*
X179735Y-94889D01*
X179670Y-94950D01*
X179609Y-95015D01*
X179550Y-95082D01*
X179494Y-95151D01*
X179441Y-95223D01*
X179391Y-95298D01*
X179345Y-95374D01*
X179302Y-95452D01*
X179263Y-95532D01*
X179227Y-95614D01*
X179194Y-95697D01*
X179166Y-95782D01*
X179141Y-95867D01*
X179119Y-95954D01*
X179102Y-96042D01*
X179089Y-96130D01*
X179079Y-96219D01*
X179073Y-96308D01*
X179071Y-96397D01*
X179071Y-99671D01*
X179073Y-99760D01*
X179079Y-99849D01*
X179089Y-99938D01*
X179102Y-100026D01*
X179119Y-100114D01*
X179141Y-100201D01*
X179166Y-100286D01*
X179194Y-100371D01*
X179227Y-100454D01*
X179263Y-100536D01*
X179302Y-100616D01*
X179345Y-100694D01*
X179391Y-100770D01*
X179441Y-100845D01*
X179494Y-100917D01*
X179550Y-100986D01*
X179609Y-101053D01*
X179670Y-101118D01*
X179735Y-101179D01*
X179802Y-101238D01*
X179871Y-101294D01*
X179943Y-101347D01*
X180018Y-101397D01*
X180094Y-101443D01*
X180172Y-101486D01*
X180252Y-101525D01*
X180334Y-101561D01*
X180417Y-101594D01*
X180502Y-101622D01*
X180587Y-101647D01*
X180674Y-101669D01*
X180762Y-101686D01*
X180850Y-101699D01*
X180939Y-101709D01*
X181028Y-101715D01*
X181117Y-101717D01*
X183163Y-101717D01*
X175526Y-98852D02*
X170615Y-98852D01*
X173070Y-96397D02*
X173070Y-101308D01*
X167235Y-98852D02*
X162324Y-98852D01*
X164780Y-96397D02*
X164780Y-101308D01*
X197676Y94351D02*
X197676Y101717D01*
X195630Y101717D01*
X195541Y101715D01*
X195452Y101709D01*
X195363Y101699D01*
X195275Y101686D01*
X195187Y101669D01*
X195100Y101647D01*
X195015Y101622D01*
X194930Y101594D01*
X194847Y101561D01*
X194765Y101525D01*
X194685Y101486D01*
X194607Y101443D01*
X194531Y101397D01*
X194456Y101347D01*
X194384Y101294D01*
X194315Y101238D01*
X194248Y101179D01*
X194183Y101118D01*
X194122Y101053D01*
X194063Y100986D01*
X194007Y100917D01*
X193954Y100845D01*
X193904Y100770D01*
X193858Y100694D01*
X193815Y100616D01*
X193776Y100536D01*
X193740Y100454D01*
X193707Y100371D01*
X193679Y100286D01*
X193654Y100201D01*
X193632Y100114D01*
X193615Y100026D01*
X193602Y99938D01*
X193592Y99849D01*
X193586Y99760D01*
X193584Y99671D01*
X193586Y99582D01*
X193592Y99493D01*
X193602Y99404D01*
X193615Y99316D01*
X193632Y99228D01*
X193654Y99141D01*
X193679Y99056D01*
X193707Y98971D01*
X193740Y98888D01*
X193776Y98806D01*
X193815Y98726D01*
X193858Y98648D01*
X193904Y98572D01*
X193954Y98497D01*
X194007Y98425D01*
X194063Y98356D01*
X194122Y98289D01*
X194183Y98224D01*
X194248Y98163D01*
X194315Y98104D01*
X194384Y98048D01*
X194456Y97995D01*
X194531Y97945D01*
X194607Y97899D01*
X194685Y97856D01*
X194765Y97817D01*
X194847Y97781D01*
X194930Y97748D01*
X195015Y97720D01*
X195100Y97695D01*
X195187Y97673D01*
X195275Y97656D01*
X195363Y97643D01*
X195452Y97633D01*
X195541Y97627D01*
X195630Y97625D01*
X197676Y97625D01*
X191131Y94351D02*
X188676Y101717D01*
X186221Y94351D01*
X186834Y96193D02*
X190517Y96193D01*
X183163Y94351D02*
X183163Y101717D01*
X181117Y101717D01*
X181028Y101715D01*
X180939Y101709D01*
X180850Y101699D01*
X180762Y101686D01*
X180674Y101669D01*
X180587Y101647D01*
X180502Y101622D01*
X180417Y101594D01*
X180334Y101561D01*
X180252Y101525D01*
X180172Y101486D01*
X180094Y101443D01*
X180018Y101397D01*
X179943Y101347D01*
X179871Y101294D01*
X179802Y101238D01*
X179735Y101179D01*
X179670Y101118D01*
X179609Y101053D01*
X179550Y100986D01*
X179494Y100917D01*
X179441Y100845D01*
X179391Y100770D01*
X179345Y100694D01*
X179302Y100616D01*
X179263Y100536D01*
X179227Y100454D01*
X179194Y100371D01*
X179166Y100286D01*
X179141Y100201D01*
X179119Y100114D01*
X179102Y100026D01*
X179089Y99938D01*
X179079Y99849D01*
X179073Y99760D01*
X179071Y99671D01*
X179071Y96397D01*
X179073Y96308D01*
X179079Y96219D01*
X179089Y96130D01*
X179102Y96042D01*
X179119Y95954D01*
X179141Y95867D01*
X179166Y95782D01*
X179194Y95697D01*
X179227Y95614D01*
X179263Y95532D01*
X179302Y95452D01*
X179345Y95374D01*
X179391Y95298D01*
X179441Y95223D01*
X179494Y95151D01*
X179550Y95082D01*
X179609Y95015D01*
X179670Y94950D01*
X179735Y94889D01*
X179802Y94830D01*
X179871Y94774D01*
X179943Y94721D01*
X180018Y94671D01*
X180094Y94625D01*
X180172Y94582D01*
X180252Y94543D01*
X180334Y94507D01*
X180417Y94474D01*
X180502Y94446D01*
X180587Y94421D01*
X180674Y94399D01*
X180762Y94382D01*
X180850Y94369D01*
X180939Y94359D01*
X181028Y94353D01*
X181117Y94351D01*
X183163Y94351D01*
X175526Y97216D02*
X170615Y97216D01*
X167235Y97216D02*
X162324Y97216D01*
M02*
