G04 EAGLE Gerber RS-274X export*
G75*
%MOMM*%
%FSLAX34Y34*%
%LPD*%
%INSolderpaste Bottom*%
%IPPOS*%
%AMOC8*
5,1,8,0,0,1.08239X$1,22.5*%
G01*
%ADD10C,0.070000*%
%ADD11C,0.500000*%
%ADD12C,0.508000*%


D10*
X-2100Y39650D02*
X-2100Y20350D01*
X-4900Y20350D01*
X-4900Y39650D01*
X-2100Y39650D01*
X-2100Y21015D02*
X-4900Y21015D01*
X-4900Y21680D02*
X-2100Y21680D01*
X-2100Y22345D02*
X-4900Y22345D01*
X-4900Y23010D02*
X-2100Y23010D01*
X-2100Y23675D02*
X-4900Y23675D01*
X-4900Y24340D02*
X-2100Y24340D01*
X-2100Y25005D02*
X-4900Y25005D01*
X-4900Y25670D02*
X-2100Y25670D01*
X-2100Y26335D02*
X-4900Y26335D01*
X-4900Y27000D02*
X-2100Y27000D01*
X-2100Y27665D02*
X-4900Y27665D01*
X-4900Y28330D02*
X-2100Y28330D01*
X-2100Y28995D02*
X-4900Y28995D01*
X-4900Y29660D02*
X-2100Y29660D01*
X-2100Y30325D02*
X-4900Y30325D01*
X-4900Y30990D02*
X-2100Y30990D01*
X-2100Y31655D02*
X-4900Y31655D01*
X-4900Y32320D02*
X-2100Y32320D01*
X-2100Y32985D02*
X-4900Y32985D01*
X-4900Y33650D02*
X-2100Y33650D01*
X-2100Y34315D02*
X-4900Y34315D01*
X-4900Y34980D02*
X-2100Y34980D01*
X-2100Y35645D02*
X-4900Y35645D01*
X-4900Y36310D02*
X-2100Y36310D01*
X-2100Y36975D02*
X-4900Y36975D01*
X-4900Y37640D02*
X-2100Y37640D01*
X-2100Y38305D02*
X-4900Y38305D01*
X-4900Y38970D02*
X-2100Y38970D01*
X-2100Y39635D02*
X-4900Y39635D01*
X4900Y39650D02*
X4900Y20350D01*
X2100Y20350D01*
X2100Y39650D01*
X4900Y39650D01*
X4900Y21015D02*
X2100Y21015D01*
X2100Y21680D02*
X4900Y21680D01*
X4900Y22345D02*
X2100Y22345D01*
X2100Y23010D02*
X4900Y23010D01*
X4900Y23675D02*
X2100Y23675D01*
X2100Y24340D02*
X4900Y24340D01*
X4900Y25005D02*
X2100Y25005D01*
X2100Y25670D02*
X4900Y25670D01*
X4900Y26335D02*
X2100Y26335D01*
X2100Y27000D02*
X4900Y27000D01*
X4900Y27665D02*
X2100Y27665D01*
X2100Y28330D02*
X4900Y28330D01*
X4900Y28995D02*
X2100Y28995D01*
X2100Y29660D02*
X4900Y29660D01*
X4900Y30325D02*
X2100Y30325D01*
X2100Y30990D02*
X4900Y30990D01*
X4900Y31655D02*
X2100Y31655D01*
X2100Y32320D02*
X4900Y32320D01*
X4900Y32985D02*
X2100Y32985D01*
X2100Y33650D02*
X4900Y33650D01*
X4900Y34315D02*
X2100Y34315D01*
X2100Y34980D02*
X4900Y34980D01*
X4900Y35645D02*
X2100Y35645D01*
X2100Y36310D02*
X4900Y36310D01*
X4900Y36975D02*
X2100Y36975D01*
X2100Y37640D02*
X4900Y37640D01*
X4900Y38305D02*
X2100Y38305D01*
X2100Y38970D02*
X4900Y38970D01*
X4900Y39635D02*
X2100Y39635D01*
X11900Y39650D02*
X11900Y20350D01*
X9100Y20350D01*
X9100Y39650D01*
X11900Y39650D01*
X11900Y21015D02*
X9100Y21015D01*
X9100Y21680D02*
X11900Y21680D01*
X11900Y22345D02*
X9100Y22345D01*
X9100Y23010D02*
X11900Y23010D01*
X11900Y23675D02*
X9100Y23675D01*
X9100Y24340D02*
X11900Y24340D01*
X11900Y25005D02*
X9100Y25005D01*
X9100Y25670D02*
X11900Y25670D01*
X11900Y26335D02*
X9100Y26335D01*
X9100Y27000D02*
X11900Y27000D01*
X11900Y27665D02*
X9100Y27665D01*
X9100Y28330D02*
X11900Y28330D01*
X11900Y28995D02*
X9100Y28995D01*
X9100Y29660D02*
X11900Y29660D01*
X11900Y30325D02*
X9100Y30325D01*
X9100Y30990D02*
X11900Y30990D01*
X11900Y31655D02*
X9100Y31655D01*
X9100Y32320D02*
X11900Y32320D01*
X11900Y32985D02*
X9100Y32985D01*
X9100Y33650D02*
X11900Y33650D01*
X11900Y34315D02*
X9100Y34315D01*
X9100Y34980D02*
X11900Y34980D01*
X11900Y35645D02*
X9100Y35645D01*
X9100Y36310D02*
X11900Y36310D01*
X11900Y36975D02*
X9100Y36975D01*
X9100Y37640D02*
X11900Y37640D01*
X11900Y38305D02*
X9100Y38305D01*
X9100Y38970D02*
X11900Y38970D01*
X11900Y39635D02*
X9100Y39635D01*
X18900Y39650D02*
X18900Y20350D01*
X16100Y20350D01*
X16100Y39650D01*
X18900Y39650D01*
X18900Y21015D02*
X16100Y21015D01*
X16100Y21680D02*
X18900Y21680D01*
X18900Y22345D02*
X16100Y22345D01*
X16100Y23010D02*
X18900Y23010D01*
X18900Y23675D02*
X16100Y23675D01*
X16100Y24340D02*
X18900Y24340D01*
X18900Y25005D02*
X16100Y25005D01*
X16100Y25670D02*
X18900Y25670D01*
X18900Y26335D02*
X16100Y26335D01*
X16100Y27000D02*
X18900Y27000D01*
X18900Y27665D02*
X16100Y27665D01*
X16100Y28330D02*
X18900Y28330D01*
X18900Y28995D02*
X16100Y28995D01*
X16100Y29660D02*
X18900Y29660D01*
X18900Y30325D02*
X16100Y30325D01*
X16100Y30990D02*
X18900Y30990D01*
X18900Y31655D02*
X16100Y31655D01*
X16100Y32320D02*
X18900Y32320D01*
X18900Y32985D02*
X16100Y32985D01*
X16100Y33650D02*
X18900Y33650D01*
X18900Y34315D02*
X16100Y34315D01*
X16100Y34980D02*
X18900Y34980D01*
X18900Y35645D02*
X16100Y35645D01*
X16100Y36310D02*
X18900Y36310D01*
X18900Y36975D02*
X16100Y36975D01*
X16100Y37640D02*
X18900Y37640D01*
X18900Y38305D02*
X16100Y38305D01*
X16100Y38970D02*
X18900Y38970D01*
X18900Y39635D02*
X16100Y39635D01*
X25900Y39650D02*
X25900Y20350D01*
X23100Y20350D01*
X23100Y39650D01*
X25900Y39650D01*
X25900Y21015D02*
X23100Y21015D01*
X23100Y21680D02*
X25900Y21680D01*
X25900Y22345D02*
X23100Y22345D01*
X23100Y23010D02*
X25900Y23010D01*
X25900Y23675D02*
X23100Y23675D01*
X23100Y24340D02*
X25900Y24340D01*
X25900Y25005D02*
X23100Y25005D01*
X23100Y25670D02*
X25900Y25670D01*
X25900Y26335D02*
X23100Y26335D01*
X23100Y27000D02*
X25900Y27000D01*
X25900Y27665D02*
X23100Y27665D01*
X23100Y28330D02*
X25900Y28330D01*
X25900Y28995D02*
X23100Y28995D01*
X23100Y29660D02*
X25900Y29660D01*
X25900Y30325D02*
X23100Y30325D01*
X23100Y30990D02*
X25900Y30990D01*
X25900Y31655D02*
X23100Y31655D01*
X23100Y32320D02*
X25900Y32320D01*
X25900Y32985D02*
X23100Y32985D01*
X23100Y33650D02*
X25900Y33650D01*
X25900Y34315D02*
X23100Y34315D01*
X23100Y34980D02*
X25900Y34980D01*
X25900Y35645D02*
X23100Y35645D01*
X23100Y36310D02*
X25900Y36310D01*
X25900Y36975D02*
X23100Y36975D01*
X23100Y37640D02*
X25900Y37640D01*
X25900Y38305D02*
X23100Y38305D01*
X23100Y38970D02*
X25900Y38970D01*
X25900Y39635D02*
X23100Y39635D01*
X32900Y39650D02*
X32900Y20350D01*
X30100Y20350D01*
X30100Y39650D01*
X32900Y39650D01*
X32900Y21015D02*
X30100Y21015D01*
X30100Y21680D02*
X32900Y21680D01*
X32900Y22345D02*
X30100Y22345D01*
X30100Y23010D02*
X32900Y23010D01*
X32900Y23675D02*
X30100Y23675D01*
X30100Y24340D02*
X32900Y24340D01*
X32900Y25005D02*
X30100Y25005D01*
X30100Y25670D02*
X32900Y25670D01*
X32900Y26335D02*
X30100Y26335D01*
X30100Y27000D02*
X32900Y27000D01*
X32900Y27665D02*
X30100Y27665D01*
X30100Y28330D02*
X32900Y28330D01*
X32900Y28995D02*
X30100Y28995D01*
X30100Y29660D02*
X32900Y29660D01*
X32900Y30325D02*
X30100Y30325D01*
X30100Y30990D02*
X32900Y30990D01*
X32900Y31655D02*
X30100Y31655D01*
X30100Y32320D02*
X32900Y32320D01*
X32900Y32985D02*
X30100Y32985D01*
X30100Y33650D02*
X32900Y33650D01*
X32900Y34315D02*
X30100Y34315D01*
X30100Y34980D02*
X32900Y34980D01*
X32900Y35645D02*
X30100Y35645D01*
X30100Y36310D02*
X32900Y36310D01*
X32900Y36975D02*
X30100Y36975D01*
X30100Y37640D02*
X32900Y37640D01*
X32900Y38305D02*
X30100Y38305D01*
X30100Y38970D02*
X32900Y38970D01*
X32900Y39635D02*
X30100Y39635D01*
X39900Y39650D02*
X39900Y20350D01*
X37100Y20350D01*
X37100Y39650D01*
X39900Y39650D01*
X39900Y21015D02*
X37100Y21015D01*
X37100Y21680D02*
X39900Y21680D01*
X39900Y22345D02*
X37100Y22345D01*
X37100Y23010D02*
X39900Y23010D01*
X39900Y23675D02*
X37100Y23675D01*
X37100Y24340D02*
X39900Y24340D01*
X39900Y25005D02*
X37100Y25005D01*
X37100Y25670D02*
X39900Y25670D01*
X39900Y26335D02*
X37100Y26335D01*
X37100Y27000D02*
X39900Y27000D01*
X39900Y27665D02*
X37100Y27665D01*
X37100Y28330D02*
X39900Y28330D01*
X39900Y28995D02*
X37100Y28995D01*
X37100Y29660D02*
X39900Y29660D01*
X39900Y30325D02*
X37100Y30325D01*
X37100Y30990D02*
X39900Y30990D01*
X39900Y31655D02*
X37100Y31655D01*
X37100Y32320D02*
X39900Y32320D01*
X39900Y32985D02*
X37100Y32985D01*
X37100Y33650D02*
X39900Y33650D01*
X39900Y34315D02*
X37100Y34315D01*
X37100Y34980D02*
X39900Y34980D01*
X39900Y35645D02*
X37100Y35645D01*
X37100Y36310D02*
X39900Y36310D01*
X39900Y36975D02*
X37100Y36975D01*
X37100Y37640D02*
X39900Y37640D01*
X39900Y38305D02*
X37100Y38305D01*
X37100Y38970D02*
X39900Y38970D01*
X39900Y39635D02*
X37100Y39635D01*
X46900Y39650D02*
X46900Y20350D01*
X44100Y20350D01*
X44100Y39650D01*
X46900Y39650D01*
X46900Y21015D02*
X44100Y21015D01*
X44100Y21680D02*
X46900Y21680D01*
X46900Y22345D02*
X44100Y22345D01*
X44100Y23010D02*
X46900Y23010D01*
X46900Y23675D02*
X44100Y23675D01*
X44100Y24340D02*
X46900Y24340D01*
X46900Y25005D02*
X44100Y25005D01*
X44100Y25670D02*
X46900Y25670D01*
X46900Y26335D02*
X44100Y26335D01*
X44100Y27000D02*
X46900Y27000D01*
X46900Y27665D02*
X44100Y27665D01*
X44100Y28330D02*
X46900Y28330D01*
X46900Y28995D02*
X44100Y28995D01*
X44100Y29660D02*
X46900Y29660D01*
X46900Y30325D02*
X44100Y30325D01*
X44100Y30990D02*
X46900Y30990D01*
X46900Y31655D02*
X44100Y31655D01*
X44100Y32320D02*
X46900Y32320D01*
X46900Y32985D02*
X44100Y32985D01*
X44100Y33650D02*
X46900Y33650D01*
X46900Y34315D02*
X44100Y34315D01*
X44100Y34980D02*
X46900Y34980D01*
X46900Y35645D02*
X44100Y35645D01*
X44100Y36310D02*
X46900Y36310D01*
X46900Y36975D02*
X44100Y36975D01*
X44100Y37640D02*
X46900Y37640D01*
X46900Y38305D02*
X44100Y38305D01*
X44100Y38970D02*
X46900Y38970D01*
X46900Y39635D02*
X44100Y39635D01*
X-9100Y39650D02*
X-9100Y20350D01*
X-11900Y20350D01*
X-11900Y39650D01*
X-9100Y39650D01*
X-9100Y21015D02*
X-11900Y21015D01*
X-11900Y21680D02*
X-9100Y21680D01*
X-9100Y22345D02*
X-11900Y22345D01*
X-11900Y23010D02*
X-9100Y23010D01*
X-9100Y23675D02*
X-11900Y23675D01*
X-11900Y24340D02*
X-9100Y24340D01*
X-9100Y25005D02*
X-11900Y25005D01*
X-11900Y25670D02*
X-9100Y25670D01*
X-9100Y26335D02*
X-11900Y26335D01*
X-11900Y27000D02*
X-9100Y27000D01*
X-9100Y27665D02*
X-11900Y27665D01*
X-11900Y28330D02*
X-9100Y28330D01*
X-9100Y28995D02*
X-11900Y28995D01*
X-11900Y29660D02*
X-9100Y29660D01*
X-9100Y30325D02*
X-11900Y30325D01*
X-11900Y30990D02*
X-9100Y30990D01*
X-9100Y31655D02*
X-11900Y31655D01*
X-11900Y32320D02*
X-9100Y32320D01*
X-9100Y32985D02*
X-11900Y32985D01*
X-11900Y33650D02*
X-9100Y33650D01*
X-9100Y34315D02*
X-11900Y34315D01*
X-11900Y34980D02*
X-9100Y34980D01*
X-9100Y35645D02*
X-11900Y35645D01*
X-11900Y36310D02*
X-9100Y36310D01*
X-9100Y36975D02*
X-11900Y36975D01*
X-11900Y37640D02*
X-9100Y37640D01*
X-9100Y38305D02*
X-11900Y38305D01*
X-11900Y38970D02*
X-9100Y38970D01*
X-9100Y39635D02*
X-11900Y39635D01*
X-16100Y39650D02*
X-16100Y20350D01*
X-18900Y20350D01*
X-18900Y39650D01*
X-16100Y39650D01*
X-16100Y21015D02*
X-18900Y21015D01*
X-18900Y21680D02*
X-16100Y21680D01*
X-16100Y22345D02*
X-18900Y22345D01*
X-18900Y23010D02*
X-16100Y23010D01*
X-16100Y23675D02*
X-18900Y23675D01*
X-18900Y24340D02*
X-16100Y24340D01*
X-16100Y25005D02*
X-18900Y25005D01*
X-18900Y25670D02*
X-16100Y25670D01*
X-16100Y26335D02*
X-18900Y26335D01*
X-18900Y27000D02*
X-16100Y27000D01*
X-16100Y27665D02*
X-18900Y27665D01*
X-18900Y28330D02*
X-16100Y28330D01*
X-16100Y28995D02*
X-18900Y28995D01*
X-18900Y29660D02*
X-16100Y29660D01*
X-16100Y30325D02*
X-18900Y30325D01*
X-18900Y30990D02*
X-16100Y30990D01*
X-16100Y31655D02*
X-18900Y31655D01*
X-18900Y32320D02*
X-16100Y32320D01*
X-16100Y32985D02*
X-18900Y32985D01*
X-18900Y33650D02*
X-16100Y33650D01*
X-16100Y34315D02*
X-18900Y34315D01*
X-18900Y34980D02*
X-16100Y34980D01*
X-16100Y35645D02*
X-18900Y35645D01*
X-18900Y36310D02*
X-16100Y36310D01*
X-16100Y36975D02*
X-18900Y36975D01*
X-18900Y37640D02*
X-16100Y37640D01*
X-16100Y38305D02*
X-18900Y38305D01*
X-18900Y38970D02*
X-16100Y38970D01*
X-16100Y39635D02*
X-18900Y39635D01*
X-23100Y39650D02*
X-23100Y20350D01*
X-25900Y20350D01*
X-25900Y39650D01*
X-23100Y39650D01*
X-23100Y21015D02*
X-25900Y21015D01*
X-25900Y21680D02*
X-23100Y21680D01*
X-23100Y22345D02*
X-25900Y22345D01*
X-25900Y23010D02*
X-23100Y23010D01*
X-23100Y23675D02*
X-25900Y23675D01*
X-25900Y24340D02*
X-23100Y24340D01*
X-23100Y25005D02*
X-25900Y25005D01*
X-25900Y25670D02*
X-23100Y25670D01*
X-23100Y26335D02*
X-25900Y26335D01*
X-25900Y27000D02*
X-23100Y27000D01*
X-23100Y27665D02*
X-25900Y27665D01*
X-25900Y28330D02*
X-23100Y28330D01*
X-23100Y28995D02*
X-25900Y28995D01*
X-25900Y29660D02*
X-23100Y29660D01*
X-23100Y30325D02*
X-25900Y30325D01*
X-25900Y30990D02*
X-23100Y30990D01*
X-23100Y31655D02*
X-25900Y31655D01*
X-25900Y32320D02*
X-23100Y32320D01*
X-23100Y32985D02*
X-25900Y32985D01*
X-25900Y33650D02*
X-23100Y33650D01*
X-23100Y34315D02*
X-25900Y34315D01*
X-25900Y34980D02*
X-23100Y34980D01*
X-23100Y35645D02*
X-25900Y35645D01*
X-25900Y36310D02*
X-23100Y36310D01*
X-23100Y36975D02*
X-25900Y36975D01*
X-25900Y37640D02*
X-23100Y37640D01*
X-23100Y38305D02*
X-25900Y38305D01*
X-25900Y38970D02*
X-23100Y38970D01*
X-23100Y39635D02*
X-25900Y39635D01*
X-30100Y39650D02*
X-30100Y20350D01*
X-32900Y20350D01*
X-32900Y39650D01*
X-30100Y39650D01*
X-30100Y21015D02*
X-32900Y21015D01*
X-32900Y21680D02*
X-30100Y21680D01*
X-30100Y22345D02*
X-32900Y22345D01*
X-32900Y23010D02*
X-30100Y23010D01*
X-30100Y23675D02*
X-32900Y23675D01*
X-32900Y24340D02*
X-30100Y24340D01*
X-30100Y25005D02*
X-32900Y25005D01*
X-32900Y25670D02*
X-30100Y25670D01*
X-30100Y26335D02*
X-32900Y26335D01*
X-32900Y27000D02*
X-30100Y27000D01*
X-30100Y27665D02*
X-32900Y27665D01*
X-32900Y28330D02*
X-30100Y28330D01*
X-30100Y28995D02*
X-32900Y28995D01*
X-32900Y29660D02*
X-30100Y29660D01*
X-30100Y30325D02*
X-32900Y30325D01*
X-32900Y30990D02*
X-30100Y30990D01*
X-30100Y31655D02*
X-32900Y31655D01*
X-32900Y32320D02*
X-30100Y32320D01*
X-30100Y32985D02*
X-32900Y32985D01*
X-32900Y33650D02*
X-30100Y33650D01*
X-30100Y34315D02*
X-32900Y34315D01*
X-32900Y34980D02*
X-30100Y34980D01*
X-30100Y35645D02*
X-32900Y35645D01*
X-32900Y36310D02*
X-30100Y36310D01*
X-30100Y36975D02*
X-32900Y36975D01*
X-32900Y37640D02*
X-30100Y37640D01*
X-30100Y38305D02*
X-32900Y38305D01*
X-32900Y38970D02*
X-30100Y38970D01*
X-30100Y39635D02*
X-32900Y39635D01*
X-37100Y39650D02*
X-37100Y20350D01*
X-39900Y20350D01*
X-39900Y39650D01*
X-37100Y39650D01*
X-37100Y21015D02*
X-39900Y21015D01*
X-39900Y21680D02*
X-37100Y21680D01*
X-37100Y22345D02*
X-39900Y22345D01*
X-39900Y23010D02*
X-37100Y23010D01*
X-37100Y23675D02*
X-39900Y23675D01*
X-39900Y24340D02*
X-37100Y24340D01*
X-37100Y25005D02*
X-39900Y25005D01*
X-39900Y25670D02*
X-37100Y25670D01*
X-37100Y26335D02*
X-39900Y26335D01*
X-39900Y27000D02*
X-37100Y27000D01*
X-37100Y27665D02*
X-39900Y27665D01*
X-39900Y28330D02*
X-37100Y28330D01*
X-37100Y28995D02*
X-39900Y28995D01*
X-39900Y29660D02*
X-37100Y29660D01*
X-37100Y30325D02*
X-39900Y30325D01*
X-39900Y30990D02*
X-37100Y30990D01*
X-37100Y31655D02*
X-39900Y31655D01*
X-39900Y32320D02*
X-37100Y32320D01*
X-37100Y32985D02*
X-39900Y32985D01*
X-39900Y33650D02*
X-37100Y33650D01*
X-37100Y34315D02*
X-39900Y34315D01*
X-39900Y34980D02*
X-37100Y34980D01*
X-37100Y35645D02*
X-39900Y35645D01*
X-39900Y36310D02*
X-37100Y36310D01*
X-37100Y36975D02*
X-39900Y36975D01*
X-39900Y37640D02*
X-37100Y37640D01*
X-37100Y38305D02*
X-39900Y38305D01*
X-39900Y38970D02*
X-37100Y38970D01*
X-37100Y39635D02*
X-39900Y39635D01*
X-44100Y39650D02*
X-44100Y20350D01*
X-46900Y20350D01*
X-46900Y39650D01*
X-44100Y39650D01*
X-44100Y21015D02*
X-46900Y21015D01*
X-46900Y21680D02*
X-44100Y21680D01*
X-44100Y22345D02*
X-46900Y22345D01*
X-46900Y23010D02*
X-44100Y23010D01*
X-44100Y23675D02*
X-46900Y23675D01*
X-46900Y24340D02*
X-44100Y24340D01*
X-44100Y25005D02*
X-46900Y25005D01*
X-46900Y25670D02*
X-44100Y25670D01*
X-44100Y26335D02*
X-46900Y26335D01*
X-46900Y27000D02*
X-44100Y27000D01*
X-44100Y27665D02*
X-46900Y27665D01*
X-46900Y28330D02*
X-44100Y28330D01*
X-44100Y28995D02*
X-46900Y28995D01*
X-46900Y29660D02*
X-44100Y29660D01*
X-44100Y30325D02*
X-46900Y30325D01*
X-46900Y30990D02*
X-44100Y30990D01*
X-44100Y31655D02*
X-46900Y31655D01*
X-46900Y32320D02*
X-44100Y32320D01*
X-44100Y32985D02*
X-46900Y32985D01*
X-46900Y33650D02*
X-44100Y33650D01*
X-44100Y34315D02*
X-46900Y34315D01*
X-46900Y34980D02*
X-44100Y34980D01*
X-44100Y35645D02*
X-46900Y35645D01*
X-46900Y36310D02*
X-44100Y36310D01*
X-44100Y36975D02*
X-46900Y36975D01*
X-46900Y37640D02*
X-44100Y37640D01*
X-44100Y38305D02*
X-46900Y38305D01*
X-46900Y38970D02*
X-44100Y38970D01*
X-44100Y39635D02*
X-46900Y39635D01*
D11*
X82500Y-42700D02*
X82500Y-62700D01*
X82500Y-42700D02*
X117500Y-42700D01*
X117500Y-62700D01*
X82500Y-62700D01*
X82500Y-57950D02*
X117500Y-57950D01*
X117500Y-53200D02*
X82500Y-53200D01*
X82500Y-48450D02*
X117500Y-48450D01*
X117500Y-43700D02*
X82500Y-43700D01*
X82500Y17300D02*
X82500Y37300D01*
X117500Y37300D01*
X117500Y17300D01*
X82500Y17300D01*
X82500Y22050D02*
X117500Y22050D01*
X117500Y26800D02*
X82500Y26800D01*
X82500Y31550D02*
X117500Y31550D01*
X117500Y36300D02*
X82500Y36300D01*
D12*
X157140Y-69840D02*
X157140Y-90160D01*
X157140Y-69840D02*
X202860Y-69840D01*
X202860Y-90160D01*
X157140Y-90160D01*
X157140Y-85334D02*
X202860Y-85334D01*
X202860Y-80508D02*
X157140Y-80508D01*
X157140Y-75682D02*
X202860Y-75682D01*
X202860Y-70856D02*
X157140Y-70856D01*
X157140Y69840D02*
X157140Y90160D01*
X202860Y90160D01*
X202860Y69840D01*
X157140Y69840D01*
X157140Y74666D02*
X202860Y74666D01*
X202860Y79492D02*
X157140Y79492D01*
X157140Y84318D02*
X202860Y84318D01*
X202860Y89144D02*
X157140Y89144D01*
M02*
